G04 #@! TF.FileFunction,Copper,L2,Bot,Signal*
%FSLAX46Y46*%
G04 Gerber Fmt 4.6, Leading zero omitted, Abs format (unit mm)*
G04 Created by KiCad (PCBNEW 4.0.0-rc1-stable) date 26.11.2015 17:24:08*
%MOMM*%
G01*
G04 APERTURE LIST*
%ADD10C,0.100000*%
%ADD11R,0.800000X0.800000*%
%ADD12C,3.600000*%
%ADD13C,1.600000*%
%ADD14C,1.699260*%
%ADD15R,1.500000X1.500000*%
%ADD16C,1.500000*%
%ADD17R,1.676400X1.676400*%
%ADD18C,1.676400*%
%ADD19C,0.800000*%
%ADD20C,0.500000*%
%ADD21C,0.200000*%
%ADD22C,0.254000*%
G04 APERTURE END LIST*
D10*
D11*
X155900000Y-101150000D03*
X155100000Y-101150000D03*
X155900000Y-101950000D03*
X155100000Y-101950000D03*
X155900000Y-100350000D03*
X155100000Y-100350000D03*
D12*
X163400000Y-115550000D03*
X153400000Y-115550000D03*
D13*
X160900000Y-108550000D03*
X158400000Y-108550000D03*
X155900000Y-108550000D03*
D14*
X164299140Y-90200000D03*
X163900360Y-87799700D03*
X161898840Y-92600300D03*
X156900120Y-87799700D03*
X157900880Y-90200000D03*
D15*
X109537800Y-116006000D03*
D16*
X109537800Y-113466000D03*
X109537800Y-110926000D03*
X109537800Y-108386000D03*
D15*
X114615900Y-80721500D03*
D16*
X112075900Y-80721500D03*
X109535900Y-80721500D03*
D17*
X111101800Y-101469500D03*
D18*
X108561800Y-101469500D03*
D17*
X145700000Y-83170000D03*
D18*
X145700000Y-80630000D03*
D17*
X149800000Y-83070000D03*
D18*
X149800000Y-80530000D03*
D17*
X141800000Y-83170000D03*
D18*
X141800000Y-80630000D03*
D19*
X113068300Y-86223600D03*
X113060900Y-96000200D03*
X112060700Y-93250100D03*
X112060700Y-88849900D03*
X142788400Y-96333700D03*
X140697600Y-99272900D03*
X127736100Y-84186000D03*
X124309700Y-84100700D03*
X129278500Y-86175200D03*
X128631700Y-90518500D03*
X118698000Y-93614400D03*
X120444000Y-95971700D03*
X123630800Y-92119800D03*
X117921500Y-83007600D03*
X122642100Y-82877800D03*
X143012000Y-91299600D03*
X132416800Y-101567900D03*
X125022800Y-103970600D03*
X116491600Y-83934700D03*
X122979600Y-86565000D03*
X117076100Y-90305800D03*
X133266900Y-86798800D03*
X138293600Y-81830500D03*
X153549100Y-82648800D03*
X160387800Y-83642500D03*
X164187100Y-82298100D03*
X145190700Y-88727700D03*
X150743500Y-88377000D03*
X140339300Y-90831900D03*
X136306300Y-88610800D03*
X132799200Y-96969200D03*
X122395100Y-98664200D03*
X121869000Y-103457200D03*
X130110500Y-104509300D03*
X112224700Y-98956500D03*
X106204300Y-99190300D03*
X118056800Y-105566300D03*
X107590400Y-83527200D03*
X113451900Y-83450000D03*
X113654600Y-107988500D03*
X114590800Y-112962500D03*
X117185900Y-118050900D03*
X110113000Y-118966800D03*
X121680800Y-83758600D03*
X130869700Y-81583000D03*
X121181600Y-93855300D03*
X124378600Y-117953700D03*
X126950500Y-115544600D03*
X132452700Y-114724000D03*
X146485400Y-114342500D03*
X146673200Y-111828200D03*
X149933400Y-108893300D03*
X148768200Y-102348500D03*
X153997600Y-103050100D03*
X128331900Y-109609200D03*
X127861800Y-111621900D03*
X153687700Y-90238600D03*
X151404900Y-93260000D03*
X149524900Y-96684300D03*
X159059000Y-94737100D03*
X164094700Y-94737100D03*
X164833200Y-99101400D03*
X162483300Y-105278400D03*
X157514800Y-105211300D03*
X153083400Y-107359800D03*
X164094700Y-108971200D03*
X162147600Y-112664000D03*
X158521900Y-117095400D03*
X154493400Y-111656900D03*
X155030500Y-119579600D03*
X149122000Y-120049600D03*
X149904300Y-115023300D03*
X141216100Y-119940200D03*
X142034400Y-116374700D03*
X137299900Y-110938800D03*
X134085200Y-107840900D03*
X141683700Y-105912100D03*
X123856300Y-109769800D03*
X122979600Y-112517000D03*
X125083800Y-119297200D03*
X134377400Y-119180300D03*
X137640100Y-115128100D03*
X139206000Y-112986300D03*
X124797000Y-115072500D03*
X148317200Y-103351900D03*
X136055900Y-92727500D03*
X135477400Y-99447800D03*
X125643400Y-102519500D03*
X143149100Y-117987600D03*
X147587200Y-114689000D03*
X158358000Y-101747800D03*
X149905000Y-106391600D03*
X126342100Y-100159800D03*
X130236200Y-95547800D03*
X132260800Y-88605500D03*
X141758900Y-87141300D03*
X128771400Y-93153200D03*
X117112600Y-99931500D03*
X129702900Y-93769000D03*
X144257200Y-103453000D03*
X120162600Y-89523500D03*
X118751700Y-89619200D03*
X128788800Y-101474500D03*
X146481400Y-96275000D03*
X148658900Y-87530400D03*
X135133400Y-91405500D03*
X140392600Y-87085300D03*
X144885700Y-100306600D03*
X152766100Y-86942100D03*
D20*
X112060700Y-88849900D02*
X112060700Y-93250100D01*
X112060700Y-93250100D02*
X113060900Y-96000200D01*
X113068300Y-86223600D02*
X112060700Y-88849900D01*
X122395100Y-98664200D02*
X121869000Y-103457200D01*
X113654600Y-107988500D02*
X108561800Y-101469500D01*
X145190700Y-88727700D02*
X143012000Y-91299600D01*
X125022800Y-103970600D02*
X130110500Y-104509300D01*
X138293600Y-81830500D02*
X141800000Y-80630000D01*
X164187100Y-82298100D02*
X160387800Y-83642500D01*
X117076100Y-90305800D02*
X118698000Y-93614400D01*
X110003800Y-100146400D02*
X112224700Y-98956500D01*
X109913800Y-100205200D02*
X109887900Y-100229500D01*
X109972400Y-100163200D02*
X109913800Y-100205200D01*
X110003800Y-100146400D02*
X109972400Y-100163200D01*
X108561800Y-101469500D02*
X109887900Y-100229500D01*
X116491600Y-83934700D02*
X117921500Y-83007600D01*
X132416800Y-101567900D02*
X130110500Y-104509300D01*
X143163800Y-82169400D02*
X145190700Y-88727700D01*
X143082900Y-82001900D02*
X143040000Y-81956100D01*
X143145300Y-82109500D02*
X143082900Y-82001900D01*
X143163800Y-82169400D02*
X143145300Y-82109500D01*
X141800000Y-80630000D02*
X143040000Y-81956100D01*
X121751700Y-82811200D02*
X122642100Y-82877800D01*
X121660600Y-82808300D02*
X121630200Y-82809800D01*
X121721900Y-82809000D02*
X121660600Y-82808300D01*
X121751700Y-82811200D02*
X121721900Y-82809000D01*
X117921500Y-83007600D02*
X121630200Y-82809800D01*
X121948000Y-94416800D02*
X123630800Y-92119800D01*
X121928700Y-94443100D02*
X121948000Y-94416800D01*
X121884800Y-94495100D02*
X121928700Y-94443100D01*
X121861600Y-94518800D02*
X121884800Y-94495100D01*
X120444000Y-95971700D02*
X121861600Y-94518800D01*
X118698000Y-93614400D02*
X120444000Y-95971700D01*
X129278500Y-86175200D02*
X128631700Y-90518500D01*
X127736100Y-84186000D02*
X124309700Y-84100700D01*
X142788400Y-96333700D02*
X140697600Y-99272900D01*
X121181600Y-93855300D02*
X121680800Y-83758600D01*
X124092300Y-83175800D02*
X130869700Y-81583000D01*
X123888600Y-83246000D02*
X123827300Y-83282200D01*
X124022700Y-83192100D02*
X123888600Y-83246000D01*
X124092300Y-83175800D02*
X124022700Y-83192100D01*
X123124500Y-83696300D02*
X123827300Y-83282200D01*
X122999300Y-83770000D02*
X123124500Y-83696300D01*
X122716200Y-83836000D02*
X122999300Y-83770000D01*
X122571200Y-83825200D02*
X122716200Y-83836000D01*
X121680800Y-83758600D02*
X122571200Y-83825200D01*
X148768200Y-102348500D02*
X149895600Y-103724200D01*
X153083400Y-107359800D02*
X155900000Y-108550000D01*
X122979600Y-112517000D02*
X124378600Y-117953700D01*
X123856300Y-109769800D02*
X122979600Y-112517000D01*
X124378600Y-117953700D02*
X125083800Y-119297200D01*
X149933400Y-108893300D02*
X149118500Y-108651100D01*
X137640100Y-115128100D02*
X146485400Y-114342500D01*
X134377400Y-119180300D02*
X137640100Y-115128100D01*
X141683700Y-105912100D02*
X137299900Y-110938800D01*
X141216100Y-119940200D02*
X142034400Y-116374700D01*
X147428900Y-113752200D02*
X147140600Y-113800900D01*
X147601600Y-113723000D02*
X147428900Y-113752200D01*
X147945200Y-113791700D02*
X147601600Y-113723000D01*
X148092800Y-113884600D02*
X147945200Y-113791700D01*
X149904300Y-115023300D02*
X148092800Y-113884600D01*
X149122000Y-120049600D02*
X149904300Y-115023300D01*
X155030500Y-119579600D02*
X149122000Y-120049600D01*
X162147600Y-112664000D02*
X158521900Y-117095400D01*
X162483300Y-105278400D02*
X164094700Y-108971200D01*
X157514800Y-105211300D02*
X153083400Y-107359800D01*
X164094700Y-94737100D02*
X164833200Y-99101400D01*
X128331900Y-109609200D02*
X127861800Y-111621900D01*
X157900900Y-90200000D02*
X163900400Y-87799700D01*
X153997600Y-103050100D02*
X149895600Y-103724200D01*
X163900400Y-87799700D02*
X164299100Y-90200000D01*
X149016000Y-106056300D02*
X149895600Y-103724200D01*
X148949800Y-106358800D02*
X148957500Y-106461300D01*
X148979500Y-106152900D02*
X148949800Y-106358800D01*
X149016000Y-106056300D02*
X148979500Y-106152900D01*
X149118500Y-108651100D02*
X148957500Y-106461300D01*
X149933400Y-108893300D02*
X153083400Y-107359800D01*
X149118500Y-108651100D02*
X146673200Y-111828200D01*
X146673200Y-111828200D02*
X147140600Y-113800900D01*
X132452700Y-114724000D02*
X137640100Y-115128100D01*
X126950500Y-115544600D02*
X132452700Y-114724000D01*
X124378600Y-117953700D02*
X126950500Y-115544600D01*
X146485400Y-114342500D02*
X147140600Y-113800900D01*
X139206000Y-112986300D02*
X148317200Y-103351900D01*
X126734100Y-114619500D02*
X124797000Y-115072500D01*
X126753300Y-114615000D02*
X126734100Y-114619500D01*
X126790700Y-114607800D02*
X126753300Y-114615000D01*
X126810400Y-114604900D02*
X126790700Y-114607800D01*
X132312600Y-113784300D02*
X126810400Y-114604900D01*
X132343500Y-113780200D02*
X132312600Y-113784300D01*
X139206000Y-112986300D02*
X132343500Y-113780200D01*
X110037800Y-115506000D02*
X109537800Y-116006000D01*
X110287800Y-115506000D02*
X110037800Y-115506000D01*
X110421400Y-115472400D02*
X110456100Y-115440900D01*
X110334600Y-115506000D02*
X110421400Y-115472400D01*
X110287800Y-115506000D02*
X110334600Y-115506000D01*
X113951300Y-112259800D02*
X110456100Y-115440900D01*
X113970500Y-112242800D02*
X113951300Y-112259800D01*
X124402500Y-103250900D02*
X113970500Y-112242800D01*
X124436800Y-103221400D02*
X124402500Y-103250900D01*
X124511300Y-103168700D02*
X124436800Y-103221400D01*
X124550200Y-103146400D02*
X124511300Y-103168700D01*
X125643400Y-102519500D02*
X124550200Y-103146400D01*
X128817300Y-102424200D02*
X125643400Y-102519500D01*
X129163200Y-102355700D02*
X129265300Y-102296500D01*
X128935600Y-102420600D02*
X129163200Y-102355700D01*
X128817300Y-102424200D02*
X128935600Y-102420600D01*
X131940300Y-100745900D02*
X129265300Y-102296500D01*
X131977300Y-100724500D02*
X131940300Y-100745900D01*
X132054000Y-100688800D02*
X131977300Y-100724500D01*
X132093000Y-100674700D02*
X132054000Y-100688800D01*
X135477400Y-99447800D02*
X132093000Y-100674700D01*
X136055900Y-92727500D02*
X135477400Y-99447800D01*
D21*
X143149100Y-117987600D02*
X147587200Y-114689000D01*
X158358000Y-101747800D02*
X149905000Y-106391600D01*
X126342100Y-100159800D02*
X130236200Y-95547800D01*
X140886900Y-86456200D02*
X141758900Y-87141300D01*
X140356100Y-86263100D02*
X140170200Y-86316700D01*
X140734700Y-86336700D02*
X140356100Y-86263100D01*
X140886900Y-86456200D02*
X140734700Y-86336700D01*
X132260800Y-88605500D02*
X140170200Y-86316700D01*
X128771400Y-93153200D02*
X117112600Y-99931500D01*
X143585000Y-96259300D02*
X144257200Y-103453000D01*
X143343300Y-95723200D02*
X143166200Y-95628400D01*
X143566400Y-96059200D02*
X143343300Y-95723200D01*
X143585000Y-96259300D02*
X143566400Y-96059200D01*
X136433700Y-92022200D02*
X143166200Y-95628400D01*
X135857400Y-91927000D02*
X135680800Y-92020800D01*
X136257900Y-91927900D02*
X135857400Y-91927000D01*
X136433700Y-92022200D02*
X136257900Y-91927900D01*
X135508500Y-92112200D02*
X135680800Y-92020800D01*
X135470200Y-92132500D02*
X135508500Y-92112200D01*
X135391100Y-92164100D02*
X135470200Y-92132500D01*
X135350700Y-92175500D02*
X135391100Y-92164100D01*
X129702900Y-93769000D02*
X135350700Y-92175500D01*
X120162600Y-89523500D02*
X112075900Y-80721500D01*
X112890900Y-84020500D02*
X109535900Y-80721500D01*
X112890900Y-84020500D02*
X112899200Y-84028500D01*
X118751700Y-89619200D02*
X112899200Y-84028500D01*
X122341300Y-104103000D02*
X109537800Y-113466000D01*
X122341300Y-104103000D02*
X122377400Y-104075000D01*
X124006100Y-102734900D02*
X122377400Y-104075000D01*
X124073600Y-102682300D02*
X124006100Y-102734900D01*
X125168800Y-101875400D02*
X124073600Y-102682300D01*
X125259000Y-101808900D02*
X125168800Y-101875400D01*
X125469800Y-101730500D02*
X125259000Y-101808900D01*
X125581900Y-101721800D02*
X125469800Y-101730500D01*
X128788800Y-101474500D02*
X125581900Y-101721800D01*
X146481400Y-96275000D02*
X148658900Y-87530400D01*
X135133400Y-91405500D02*
X140392600Y-87085300D01*
X147175200Y-96673600D02*
X152766100Y-86942100D01*
X147158200Y-96701700D02*
X147175200Y-96673600D01*
X144885700Y-100306600D02*
X147158200Y-96701700D01*
D22*
G36*
X165598000Y-98786740D02*
X165534705Y-98633554D01*
X165421462Y-98520113D01*
X164841788Y-95094425D01*
X164921556Y-94902322D01*
X164921843Y-94573321D01*
X164796205Y-94269254D01*
X164563770Y-94036412D01*
X164259922Y-93910244D01*
X163930921Y-93909957D01*
X163626854Y-94035595D01*
X163394012Y-94268030D01*
X163267844Y-94571878D01*
X163267557Y-94900879D01*
X163393195Y-95204946D01*
X163506438Y-95318387D01*
X164086112Y-98744075D01*
X164006344Y-98936178D01*
X164006057Y-99265179D01*
X164131695Y-99569246D01*
X164364130Y-99802088D01*
X164667978Y-99928256D01*
X164996979Y-99928543D01*
X165301046Y-99802905D01*
X165533888Y-99570470D01*
X165598000Y-99416070D01*
X165598000Y-115037846D01*
X165289060Y-114290154D01*
X164663142Y-113663142D01*
X163844921Y-113323387D01*
X162958966Y-113322614D01*
X162240605Y-113619434D01*
X162363034Y-113469800D01*
X162615446Y-113365505D01*
X162848288Y-113133070D01*
X162974456Y-112829222D01*
X162974743Y-112500221D01*
X162849105Y-112196154D01*
X162616670Y-111963312D01*
X162312822Y-111837144D01*
X161983821Y-111836857D01*
X161679754Y-111962495D01*
X161446912Y-112194930D01*
X161320744Y-112498778D01*
X161320651Y-112605606D01*
X158306465Y-116289601D01*
X158054054Y-116393895D01*
X157821212Y-116626330D01*
X157695044Y-116930178D01*
X157694757Y-117259179D01*
X157820395Y-117563246D01*
X158052830Y-117796088D01*
X158356678Y-117922256D01*
X158685679Y-117922543D01*
X158989746Y-117796905D01*
X159222588Y-117564470D01*
X159348756Y-117260622D01*
X159348849Y-117153795D01*
X161326222Y-114737011D01*
X161173387Y-115105079D01*
X161172614Y-115991034D01*
X161510940Y-116809846D01*
X162136858Y-117436858D01*
X162955079Y-117776613D01*
X163841034Y-117777386D01*
X164659846Y-117439060D01*
X165286858Y-116813142D01*
X165598000Y-116063829D01*
X165598000Y-121898000D01*
X105552000Y-121898000D01*
X105552000Y-115256000D01*
X108352435Y-115256000D01*
X108352435Y-116756000D01*
X108382209Y-116914237D01*
X108475727Y-117059567D01*
X108618419Y-117157064D01*
X108787800Y-117191365D01*
X110287800Y-117191365D01*
X110446037Y-117161591D01*
X110591367Y-117068073D01*
X110688864Y-116925381D01*
X110723165Y-116756000D01*
X110723165Y-116067323D01*
X110770300Y-116037398D01*
X110876440Y-115973666D01*
X110911140Y-115942166D01*
X110911405Y-115941808D01*
X110911785Y-115941579D01*
X114403581Y-112763578D01*
X114415901Y-112752669D01*
X114499304Y-112680779D01*
X122152457Y-112680779D01*
X122278095Y-112984846D01*
X122443595Y-113150636D01*
X123604399Y-117661671D01*
X123551744Y-117788478D01*
X123551457Y-118117479D01*
X123677095Y-118421546D01*
X123909530Y-118654388D01*
X124001933Y-118692757D01*
X124256903Y-119178509D01*
X124256657Y-119460979D01*
X124382295Y-119765046D01*
X124614730Y-119997888D01*
X124918578Y-120124056D01*
X125247579Y-120124343D01*
X125551646Y-119998705D01*
X125784488Y-119766270D01*
X125910656Y-119462422D01*
X125910943Y-119133421D01*
X125785305Y-118829354D01*
X125552870Y-118596512D01*
X125460467Y-118558143D01*
X125217591Y-118095432D01*
X127057814Y-116371694D01*
X127114279Y-116371743D01*
X127418346Y-116246105D01*
X127520561Y-116144068D01*
X132078881Y-115464239D01*
X132287478Y-115550856D01*
X132616479Y-115551143D01*
X132892056Y-115437277D01*
X136307747Y-115703360D01*
X134154571Y-118377556D01*
X133909554Y-118478795D01*
X133676712Y-118711230D01*
X133550544Y-119015078D01*
X133550257Y-119344079D01*
X133675895Y-119648146D01*
X133908330Y-119880988D01*
X134212178Y-120007156D01*
X134541179Y-120007443D01*
X134845246Y-119881805D01*
X135078088Y-119649370D01*
X135204256Y-119345522D01*
X135204354Y-119232734D01*
X137862929Y-115930844D01*
X138107946Y-115829605D01*
X138177650Y-115760023D01*
X146057274Y-115060190D01*
X146151623Y-115099366D01*
X143355268Y-117177746D01*
X143314322Y-117160744D01*
X142985321Y-117160457D01*
X142681254Y-117286095D01*
X142471858Y-117495125D01*
X142587544Y-116991056D01*
X142735088Y-116843770D01*
X142861256Y-116539922D01*
X142861543Y-116210921D01*
X142735905Y-115906854D01*
X142503470Y-115674012D01*
X142199622Y-115547844D01*
X141870621Y-115547557D01*
X141566554Y-115673195D01*
X141333712Y-115905630D01*
X141207544Y-116209478D01*
X141207257Y-116538479D01*
X141268303Y-116686222D01*
X140662956Y-119323844D01*
X140515412Y-119471130D01*
X140389244Y-119774978D01*
X140388957Y-120103979D01*
X140514595Y-120408046D01*
X140747030Y-120640888D01*
X141050878Y-120767056D01*
X141379879Y-120767343D01*
X141683946Y-120641705D01*
X141916788Y-120409270D01*
X142042956Y-120105422D01*
X142043243Y-119776421D01*
X141982197Y-119628678D01*
X142321960Y-118148261D01*
X142321957Y-118151379D01*
X142447595Y-118455446D01*
X142680030Y-118688288D01*
X142983878Y-118814456D01*
X143312879Y-118814743D01*
X143616946Y-118689105D01*
X143849788Y-118456670D01*
X143975956Y-118152822D01*
X143976064Y-118029583D01*
X147381032Y-115498854D01*
X147421978Y-115515856D01*
X147750979Y-115516143D01*
X148055046Y-115390505D01*
X148287888Y-115158070D01*
X148403532Y-114879568D01*
X149141863Y-115343679D01*
X149161782Y-115391887D01*
X148526144Y-119475882D01*
X148421312Y-119580530D01*
X148295144Y-119884378D01*
X148294857Y-120213379D01*
X148420495Y-120517446D01*
X148652930Y-120750288D01*
X148956778Y-120876456D01*
X149285779Y-120876743D01*
X149589846Y-120751105D01*
X149654700Y-120686364D01*
X154593289Y-120293517D01*
X154865278Y-120406456D01*
X155194279Y-120406743D01*
X155498346Y-120281105D01*
X155731188Y-120048670D01*
X155857356Y-119744822D01*
X155857643Y-119415821D01*
X155732005Y-119111754D01*
X155499570Y-118878912D01*
X155195722Y-118752744D01*
X154866721Y-118752457D01*
X154562654Y-118878095D01*
X154497800Y-118942836D01*
X149922767Y-119306764D01*
X150438830Y-115991034D01*
X151172614Y-115991034D01*
X151510940Y-116809846D01*
X152136858Y-117436858D01*
X152955079Y-117776613D01*
X153841034Y-117777386D01*
X154659846Y-117439060D01*
X155286858Y-116813142D01*
X155626613Y-115994921D01*
X155627386Y-115108966D01*
X155289060Y-114290154D01*
X154663142Y-113663142D01*
X153844921Y-113323387D01*
X152958966Y-113322614D01*
X152140154Y-113660940D01*
X151513142Y-114286858D01*
X151173387Y-115105079D01*
X151172614Y-115991034D01*
X150438830Y-115991034D01*
X150500156Y-115597018D01*
X150604988Y-115492370D01*
X150731156Y-115188522D01*
X150731443Y-114859521D01*
X150605805Y-114555454D01*
X150373370Y-114322612D01*
X150069522Y-114196444D01*
X149860719Y-114196262D01*
X148453090Y-113311433D01*
X148305822Y-113218742D01*
X148191236Y-113174902D01*
X148077934Y-113127840D01*
X147734333Y-113059139D01*
X147660578Y-113059066D01*
X147441502Y-112134438D01*
X147500056Y-111993422D01*
X147500169Y-111863715D01*
X147533292Y-111820679D01*
X153666257Y-111820679D01*
X153791895Y-112124746D01*
X154024330Y-112357588D01*
X154328178Y-112483756D01*
X154657179Y-112484043D01*
X154961246Y-112358405D01*
X155194088Y-112125970D01*
X155320256Y-111822122D01*
X155320543Y-111493121D01*
X155194905Y-111189054D01*
X154962470Y-110956212D01*
X154658622Y-110830044D01*
X154329621Y-110829757D01*
X154025554Y-110955395D01*
X153792712Y-111187830D01*
X153666544Y-111491678D01*
X153666257Y-111820679D01*
X147533292Y-111820679D01*
X149341669Y-109471113D01*
X149464330Y-109593988D01*
X149768178Y-109720156D01*
X150097179Y-109720443D01*
X150401246Y-109594805D01*
X150634088Y-109362370D01*
X150663868Y-109290652D01*
X152931589Y-108186668D01*
X153247179Y-108186943D01*
X153274667Y-108175585D01*
X154672811Y-108766393D01*
X154672788Y-108792995D01*
X154859194Y-109244131D01*
X155204053Y-109589593D01*
X155654864Y-109776786D01*
X156142995Y-109777212D01*
X156594131Y-109590806D01*
X156939593Y-109245947D01*
X157126786Y-108795136D01*
X157126787Y-108792995D01*
X157172788Y-108792995D01*
X157359194Y-109244131D01*
X157704053Y-109589593D01*
X158154864Y-109776786D01*
X158642995Y-109777212D01*
X159094131Y-109590806D01*
X159439593Y-109245947D01*
X159626786Y-108795136D01*
X159626787Y-108792995D01*
X159672788Y-108792995D01*
X159859194Y-109244131D01*
X160204053Y-109589593D01*
X160654864Y-109776786D01*
X161142995Y-109777212D01*
X161594131Y-109590806D01*
X161939593Y-109245947D01*
X162126786Y-108795136D01*
X162127212Y-108307005D01*
X161940806Y-107855869D01*
X161595947Y-107510407D01*
X161145136Y-107323214D01*
X160657005Y-107322788D01*
X160205869Y-107509194D01*
X159860407Y-107854053D01*
X159673214Y-108304864D01*
X159672788Y-108792995D01*
X159626787Y-108792995D01*
X159627212Y-108307005D01*
X159440806Y-107855869D01*
X159095947Y-107510407D01*
X158645136Y-107323214D01*
X158157005Y-107322788D01*
X157705869Y-107509194D01*
X157360407Y-107854053D01*
X157173214Y-108304864D01*
X157172788Y-108792995D01*
X157126787Y-108792995D01*
X157127212Y-108307005D01*
X156940806Y-107855869D01*
X156595947Y-107510407D01*
X156145136Y-107323214D01*
X155657005Y-107322788D01*
X155205869Y-107509194D01*
X155197052Y-107517996D01*
X154722515Y-107317473D01*
X157361155Y-106038166D01*
X157678579Y-106038443D01*
X157982646Y-105912805D01*
X158215488Y-105680370D01*
X158314392Y-105442179D01*
X161656157Y-105442179D01*
X161781795Y-105746246D01*
X162014230Y-105979088D01*
X162058412Y-105997434D01*
X163275700Y-108787058D01*
X163267844Y-108805978D01*
X163267557Y-109134979D01*
X163393195Y-109439046D01*
X163625630Y-109671888D01*
X163929478Y-109798056D01*
X164258479Y-109798343D01*
X164562546Y-109672705D01*
X164795388Y-109440270D01*
X164921556Y-109136422D01*
X164921843Y-108807421D01*
X164796205Y-108503354D01*
X164563770Y-108270512D01*
X164519588Y-108252166D01*
X163302300Y-105462542D01*
X163310156Y-105443622D01*
X163310443Y-105114621D01*
X163184805Y-104810554D01*
X162952370Y-104577712D01*
X162648522Y-104451544D01*
X162319521Y-104451257D01*
X162015454Y-104576895D01*
X161782612Y-104809330D01*
X161656444Y-105113178D01*
X161656157Y-105442179D01*
X158314392Y-105442179D01*
X158341656Y-105376522D01*
X158341943Y-105047521D01*
X158216305Y-104743454D01*
X157983870Y-104510612D01*
X157680022Y-104384444D01*
X157351021Y-104384157D01*
X157046954Y-104509795D01*
X156814112Y-104742230D01*
X156784782Y-104812865D01*
X153237045Y-106532934D01*
X152919621Y-106532657D01*
X152615554Y-106658295D01*
X152382712Y-106890730D01*
X152352932Y-106962448D01*
X150085211Y-108066432D01*
X149769621Y-108066157D01*
X149754772Y-108072292D01*
X149690491Y-107197990D01*
X149739778Y-107218456D01*
X150068779Y-107218743D01*
X150372846Y-107093105D01*
X150605688Y-106860670D01*
X150731856Y-106556822D01*
X150731872Y-106538633D01*
X158053032Y-102516629D01*
X158192778Y-102574656D01*
X158521779Y-102574943D01*
X158825846Y-102449305D01*
X159058688Y-102216870D01*
X159184856Y-101913022D01*
X159185143Y-101584021D01*
X159059505Y-101279954D01*
X158827070Y-101047112D01*
X158523222Y-100920944D01*
X158194221Y-100920657D01*
X157890154Y-101046295D01*
X157657312Y-101278730D01*
X157531144Y-101582578D01*
X157531128Y-101600767D01*
X156735365Y-102037933D01*
X156735365Y-99950000D01*
X156705591Y-99791763D01*
X156612073Y-99646433D01*
X156469381Y-99548936D01*
X156300000Y-99514635D01*
X154700000Y-99514635D01*
X154541763Y-99544409D01*
X154396433Y-99637927D01*
X154298936Y-99780619D01*
X154264635Y-99950000D01*
X154264635Y-102265520D01*
X154162822Y-102223244D01*
X153833821Y-102222957D01*
X153529754Y-102348595D01*
X153419063Y-102459093D01*
X150171489Y-102992781D01*
X149595251Y-102289632D01*
X149595343Y-102184721D01*
X149469705Y-101880654D01*
X149237270Y-101647812D01*
X148933422Y-101521644D01*
X148604421Y-101521357D01*
X148300354Y-101646995D01*
X148067512Y-101879430D01*
X147941344Y-102183278D01*
X147941057Y-102512279D01*
X147976430Y-102597888D01*
X147849354Y-102650395D01*
X147616512Y-102882830D01*
X147490344Y-103186678D01*
X147490297Y-103240992D01*
X139056424Y-112159169D01*
X139042221Y-112159157D01*
X138738154Y-112284795D01*
X138654179Y-112368623D01*
X132265699Y-113107685D01*
X132260207Y-113109453D01*
X132254452Y-113109082D01*
X132223552Y-113113182D01*
X132218289Y-113114974D01*
X132212737Y-113114706D01*
X126711458Y-113935169D01*
X126692103Y-113938018D01*
X126677849Y-113943100D01*
X126662719Y-113943007D01*
X126625318Y-113950207D01*
X126612569Y-113955396D01*
X126598814Y-113955862D01*
X126579614Y-113960362D01*
X126579613Y-113960362D01*
X125105427Y-114305108D01*
X124962222Y-114245644D01*
X124633221Y-114245357D01*
X124329154Y-114370995D01*
X124191178Y-114508730D01*
X123753801Y-112809029D01*
X123806456Y-112682222D01*
X123806743Y-112353221D01*
X123770498Y-112265500D01*
X123923620Y-111785679D01*
X127034657Y-111785679D01*
X127160295Y-112089746D01*
X127392730Y-112322588D01*
X127696578Y-112448756D01*
X128025579Y-112449043D01*
X128329646Y-112323405D01*
X128562488Y-112090970D01*
X128688656Y-111787122D01*
X128688943Y-111458121D01*
X128629101Y-111313293D01*
X128678316Y-111102579D01*
X136472757Y-111102579D01*
X136598395Y-111406646D01*
X136830830Y-111639488D01*
X137134678Y-111765656D01*
X137463679Y-111765943D01*
X137767746Y-111640305D01*
X138000588Y-111407870D01*
X138126756Y-111104022D01*
X138126829Y-111020622D01*
X141868041Y-106730747D01*
X142151546Y-106613605D01*
X142384388Y-106381170D01*
X142510556Y-106077322D01*
X142510843Y-105748321D01*
X142385205Y-105444254D01*
X142152770Y-105211412D01*
X141848922Y-105085244D01*
X141519921Y-105084957D01*
X141215854Y-105210595D01*
X140983012Y-105443030D01*
X140856844Y-105746878D01*
X140856771Y-105830278D01*
X137115559Y-110120153D01*
X136832054Y-110237295D01*
X136599212Y-110469730D01*
X136473044Y-110773578D01*
X136472757Y-111102579D01*
X128678316Y-111102579D01*
X128882588Y-110228008D01*
X129032588Y-110078270D01*
X129158756Y-109774422D01*
X129159043Y-109445421D01*
X129033405Y-109141354D01*
X128800970Y-108908512D01*
X128497122Y-108782344D01*
X128168121Y-108782057D01*
X127864054Y-108907695D01*
X127631212Y-109140130D01*
X127505044Y-109443978D01*
X127504757Y-109772979D01*
X127564599Y-109917807D01*
X127311112Y-111003092D01*
X127161112Y-111152830D01*
X127034944Y-111456678D01*
X127034657Y-111785679D01*
X123923620Y-111785679D01*
X124351917Y-110443582D01*
X124556988Y-110238870D01*
X124683156Y-109935022D01*
X124683443Y-109606021D01*
X124557805Y-109301954D01*
X124325370Y-109069112D01*
X124021522Y-108942944D01*
X123692521Y-108942657D01*
X123388454Y-109068295D01*
X123155612Y-109300730D01*
X123029444Y-109604578D01*
X123029157Y-109933579D01*
X123065403Y-110021300D01*
X122483983Y-111843217D01*
X122278912Y-112047930D01*
X122152744Y-112351778D01*
X122152457Y-112680779D01*
X114499304Y-112680779D01*
X119924306Y-108004679D01*
X133258057Y-108004679D01*
X133383695Y-108308746D01*
X133616130Y-108541588D01*
X133919978Y-108667756D01*
X134248979Y-108668043D01*
X134553046Y-108542405D01*
X134785888Y-108309970D01*
X134912056Y-108006122D01*
X134912343Y-107677121D01*
X134786705Y-107373054D01*
X134554270Y-107140212D01*
X134250422Y-107014044D01*
X133921421Y-107013757D01*
X133617354Y-107139395D01*
X133384512Y-107371830D01*
X133258344Y-107675678D01*
X133258057Y-108004679D01*
X119924306Y-108004679D01*
X124843948Y-103764177D01*
X124853945Y-103755579D01*
X124875960Y-103740006D01*
X124886899Y-103733735D01*
X124886937Y-103733702D01*
X124886982Y-103733687D01*
X125562290Y-103346429D01*
X125807179Y-103346643D01*
X126111246Y-103221005D01*
X126150749Y-103181571D01*
X128837618Y-103100895D01*
X128837753Y-103100864D01*
X128837892Y-103100887D01*
X128956193Y-103097287D01*
X129037786Y-103078460D01*
X129121246Y-103071649D01*
X129348846Y-103006749D01*
X129423441Y-102968469D01*
X129502786Y-102941371D01*
X129604814Y-102882213D01*
X129604816Y-102882212D01*
X132279252Y-101331938D01*
X132290231Y-101325588D01*
X132312439Y-101315251D01*
X132323180Y-101311368D01*
X132323435Y-101311214D01*
X132323730Y-101311169D01*
X135251943Y-100249644D01*
X135312178Y-100274656D01*
X135641179Y-100274943D01*
X135945246Y-100149305D01*
X136178088Y-99916870D01*
X136304256Y-99613022D01*
X136304543Y-99284021D01*
X136194027Y-99016552D01*
X136689237Y-93263803D01*
X136756588Y-93196570D01*
X136882756Y-92892722D01*
X136882784Y-92860587D01*
X142917366Y-96092954D01*
X142917435Y-96092975D01*
X142917492Y-96093022D01*
X142977643Y-96125220D01*
X143053947Y-96240137D01*
X143060262Y-96308077D01*
X143060299Y-96308202D01*
X143060286Y-96308331D01*
X143673190Y-102867456D01*
X143556512Y-102983930D01*
X143430344Y-103287778D01*
X143430057Y-103616779D01*
X143555695Y-103920846D01*
X143788130Y-104153688D01*
X144091978Y-104279856D01*
X144420979Y-104280143D01*
X144725046Y-104154505D01*
X144957888Y-103922070D01*
X145084056Y-103618222D01*
X145084343Y-103289221D01*
X144958705Y-102985154D01*
X144726270Y-102752312D01*
X144720809Y-102750045D01*
X144563666Y-101068342D01*
X144720478Y-101133456D01*
X145049479Y-101133743D01*
X145353546Y-101008105D01*
X145586388Y-100775670D01*
X145712556Y-100471822D01*
X145712843Y-100142821D01*
X145672884Y-100046112D01*
X147604012Y-96982736D01*
X147605778Y-96978129D01*
X147609105Y-96974489D01*
X147626105Y-96946389D01*
X147628170Y-96940691D01*
X147632155Y-96936128D01*
X147682740Y-96848079D01*
X148697757Y-96848079D01*
X148823395Y-97152146D01*
X149055830Y-97384988D01*
X149359678Y-97511156D01*
X149688679Y-97511443D01*
X149992746Y-97385805D01*
X150225588Y-97153370D01*
X150351756Y-96849522D01*
X150352043Y-96520521D01*
X150226405Y-96216454D01*
X149993970Y-95983612D01*
X149690122Y-95857444D01*
X149361121Y-95857157D01*
X149057054Y-95982795D01*
X148824212Y-96215230D01*
X148698044Y-96519078D01*
X148697757Y-96848079D01*
X147682740Y-96848079D01*
X148801436Y-94900879D01*
X158231857Y-94900879D01*
X158357495Y-95204946D01*
X158589930Y-95437788D01*
X158893778Y-95563956D01*
X159222779Y-95564243D01*
X159526846Y-95438605D01*
X159759688Y-95206170D01*
X159885856Y-94902322D01*
X159886143Y-94573321D01*
X159760505Y-94269254D01*
X159528070Y-94036412D01*
X159224222Y-93910244D01*
X158895221Y-93909957D01*
X158591154Y-94035595D01*
X158358312Y-94268030D01*
X158232144Y-94571878D01*
X158231857Y-94900879D01*
X148801436Y-94900879D01*
X149650054Y-93423779D01*
X150577757Y-93423779D01*
X150703395Y-93727846D01*
X150935830Y-93960688D01*
X151239678Y-94086856D01*
X151568679Y-94087143D01*
X151872746Y-93961505D01*
X152105588Y-93729070D01*
X152231756Y-93425222D01*
X152232043Y-93096221D01*
X152131597Y-92853123D01*
X160621989Y-92853123D01*
X160815934Y-93322508D01*
X161174743Y-93681943D01*
X161643788Y-93876708D01*
X162151663Y-93877151D01*
X162621048Y-93683206D01*
X162980483Y-93324397D01*
X163175248Y-92855352D01*
X163175691Y-92347477D01*
X162981746Y-91878092D01*
X162622937Y-91518657D01*
X162153892Y-91323892D01*
X161646017Y-91323449D01*
X161176632Y-91517394D01*
X160817197Y-91876203D01*
X160622432Y-92345248D01*
X160621989Y-92853123D01*
X152131597Y-92853123D01*
X152106405Y-92792154D01*
X151873970Y-92559312D01*
X151570122Y-92433144D01*
X151241121Y-92432857D01*
X150937054Y-92558495D01*
X150704212Y-92790930D01*
X150578044Y-93094778D01*
X150577757Y-93423779D01*
X149650054Y-93423779D01*
X151385896Y-90402379D01*
X152860557Y-90402379D01*
X152986195Y-90706446D01*
X153218630Y-90939288D01*
X153522478Y-91065456D01*
X153851479Y-91065743D01*
X154155546Y-90940105D01*
X154388388Y-90707670D01*
X154494209Y-90452823D01*
X156624029Y-90452823D01*
X156817974Y-90922208D01*
X157176783Y-91281643D01*
X157645828Y-91476408D01*
X158153703Y-91476851D01*
X158623088Y-91282906D01*
X158982523Y-90924097D01*
X159177288Y-90455052D01*
X159177320Y-90418498D01*
X163131496Y-88836498D01*
X163176263Y-88881343D01*
X163409905Y-88978360D01*
X163453428Y-89240383D01*
X163217497Y-89475903D01*
X163022732Y-89944948D01*
X163022289Y-90452823D01*
X163216234Y-90922208D01*
X163575043Y-91281643D01*
X164044088Y-91476408D01*
X164551963Y-91476851D01*
X165021348Y-91282906D01*
X165380783Y-90924097D01*
X165575548Y-90455052D01*
X165575991Y-89947177D01*
X165382046Y-89477792D01*
X165023237Y-89118357D01*
X164789596Y-89021340D01*
X164746072Y-88759317D01*
X164982003Y-88523797D01*
X165176768Y-88054752D01*
X165177211Y-87546877D01*
X164983266Y-87077492D01*
X164624457Y-86718057D01*
X164155412Y-86523292D01*
X163647537Y-86522849D01*
X163178152Y-86716794D01*
X162818717Y-87075603D01*
X162623952Y-87544648D01*
X162623920Y-87581226D01*
X158669761Y-89163219D01*
X158624977Y-89118357D01*
X158155932Y-88923592D01*
X157648057Y-88923149D01*
X157178672Y-89117094D01*
X156819237Y-89475903D01*
X156624472Y-89944948D01*
X156624029Y-90452823D01*
X154494209Y-90452823D01*
X154514556Y-90403822D01*
X154514843Y-90074821D01*
X154389205Y-89770754D01*
X154156770Y-89537912D01*
X153852922Y-89411744D01*
X153523921Y-89411457D01*
X153219854Y-89537095D01*
X152987012Y-89769530D01*
X152860844Y-90073378D01*
X152860557Y-90402379D01*
X151385896Y-90402379D01*
X152735925Y-88052523D01*
X155623269Y-88052523D01*
X155817214Y-88521908D01*
X156176023Y-88881343D01*
X156645068Y-89076108D01*
X157152943Y-89076551D01*
X157622328Y-88882606D01*
X157981763Y-88523797D01*
X158176528Y-88054752D01*
X158176971Y-87546877D01*
X157983026Y-87077492D01*
X157624217Y-86718057D01*
X157155172Y-86523292D01*
X156647297Y-86522849D01*
X156177912Y-86716794D01*
X155818477Y-87075603D01*
X155623712Y-87544648D01*
X155623269Y-88052523D01*
X152735925Y-88052523D01*
X152898690Y-87769216D01*
X152929879Y-87769243D01*
X153233946Y-87643605D01*
X153466788Y-87411170D01*
X153592956Y-87107322D01*
X153593243Y-86778321D01*
X153467605Y-86474254D01*
X153235170Y-86241412D01*
X152931322Y-86115244D01*
X152602321Y-86114957D01*
X152298254Y-86240595D01*
X152065412Y-86473030D01*
X151939244Y-86776878D01*
X151938957Y-87105879D01*
X151991361Y-87232706D01*
X147198968Y-95574327D01*
X149015907Y-88277703D01*
X149126746Y-88231905D01*
X149359588Y-87999470D01*
X149485756Y-87695622D01*
X149486043Y-87366621D01*
X149360405Y-87062554D01*
X149127970Y-86829712D01*
X148824122Y-86703544D01*
X148495121Y-86703257D01*
X148191054Y-86828895D01*
X147958212Y-87061330D01*
X147832044Y-87365178D01*
X147831757Y-87694179D01*
X147957395Y-87998246D01*
X147990940Y-88031850D01*
X146124393Y-95527697D01*
X146013554Y-95573495D01*
X145780712Y-95805930D01*
X145654544Y-96109778D01*
X145654257Y-96438779D01*
X145779895Y-96742846D01*
X146012330Y-96975688D01*
X146289860Y-97090928D01*
X144784116Y-99479511D01*
X144721921Y-99479457D01*
X144426599Y-99601482D01*
X144109714Y-96210269D01*
X144091138Y-96010424D01*
X144083492Y-95984712D01*
X144083570Y-95957888D01*
X144054406Y-95886898D01*
X144032529Y-95813328D01*
X144015625Y-95792499D01*
X144005432Y-95767687D01*
X143782333Y-95431688D01*
X143763474Y-95412719D01*
X143750879Y-95389121D01*
X143691523Y-95340348D01*
X143637357Y-95285867D01*
X143612674Y-95275559D01*
X143592008Y-95258578D01*
X143414908Y-95163778D01*
X143414906Y-95163777D01*
X136682534Y-91557646D01*
X136507010Y-91463494D01*
X136482204Y-91455929D01*
X136460668Y-91441469D01*
X136384566Y-91426154D01*
X136310327Y-91403514D01*
X136284512Y-91406018D01*
X136259084Y-91400901D01*
X135970034Y-91400251D01*
X140220000Y-87909093D01*
X140227378Y-87912156D01*
X140556379Y-87912443D01*
X140860446Y-87786805D01*
X141051853Y-87595733D01*
X141057395Y-87609146D01*
X141289830Y-87841988D01*
X141593678Y-87968156D01*
X141922679Y-87968443D01*
X142226746Y-87842805D01*
X142459588Y-87610370D01*
X142585756Y-87306522D01*
X142586043Y-86977521D01*
X142460405Y-86673454D01*
X142227970Y-86440612D01*
X141924122Y-86314444D01*
X141595121Y-86314157D01*
X141571539Y-86323901D01*
X141212479Y-86041800D01*
X141212402Y-86041761D01*
X141212347Y-86041697D01*
X141060148Y-85922197D01*
X141040905Y-85912440D01*
X141025580Y-85897247D01*
X140949787Y-85866238D01*
X140876751Y-85829205D01*
X140855235Y-85827554D01*
X140835267Y-85819385D01*
X140456666Y-85745784D01*
X140435325Y-85745877D01*
X140414993Y-85739401D01*
X140333171Y-85746320D01*
X140251043Y-85746677D01*
X140231361Y-85754930D01*
X140210099Y-85756728D01*
X140024199Y-85810328D01*
X140023967Y-85810448D01*
X140023708Y-85810470D01*
X132742517Y-87917481D01*
X132729870Y-87904812D01*
X132426022Y-87778644D01*
X132097021Y-87778357D01*
X131792954Y-87903995D01*
X131560112Y-88136430D01*
X131433944Y-88440278D01*
X131433657Y-88769279D01*
X131559295Y-89073346D01*
X131791730Y-89306188D01*
X132095578Y-89432356D01*
X132424579Y-89432643D01*
X132728646Y-89307005D01*
X132961488Y-89074570D01*
X133019637Y-88934531D01*
X139565639Y-87040268D01*
X139565602Y-87082633D01*
X135306000Y-90581707D01*
X135298622Y-90578644D01*
X134969621Y-90578357D01*
X134665554Y-90703995D01*
X134432712Y-90936430D01*
X134306544Y-91240278D01*
X134306257Y-91569279D01*
X134431895Y-91873346D01*
X134442655Y-91884125D01*
X130188145Y-93084515D01*
X130171970Y-93068312D01*
X129868122Y-92942144D01*
X129578904Y-92941892D01*
X129472905Y-92685354D01*
X129240470Y-92452512D01*
X128936622Y-92326344D01*
X128607621Y-92326057D01*
X128303554Y-92451695D01*
X128070712Y-92684130D01*
X127944544Y-92987978D01*
X127944512Y-93024349D01*
X117399436Y-99155142D01*
X117277822Y-99104644D01*
X116948821Y-99104357D01*
X116644754Y-99229995D01*
X116411912Y-99462430D01*
X116285744Y-99766278D01*
X116285457Y-100095279D01*
X116411095Y-100399346D01*
X116643530Y-100632188D01*
X116947378Y-100758356D01*
X117276379Y-100758643D01*
X117580446Y-100633005D01*
X117813288Y-100400570D01*
X117845257Y-100323579D01*
X125514957Y-100323579D01*
X125640595Y-100627646D01*
X125873030Y-100860488D01*
X126176878Y-100986656D01*
X126505879Y-100986943D01*
X126809946Y-100861305D01*
X127042788Y-100628870D01*
X127168956Y-100325022D01*
X127169242Y-99997053D01*
X130227665Y-96374793D01*
X130399979Y-96374943D01*
X130704046Y-96249305D01*
X130936888Y-96016870D01*
X131063056Y-95713022D01*
X131063343Y-95384021D01*
X130937705Y-95079954D01*
X130705270Y-94847112D01*
X130401422Y-94720944D01*
X130072421Y-94720657D01*
X129768354Y-94846295D01*
X129535512Y-95078730D01*
X129409344Y-95382578D01*
X129409058Y-95710547D01*
X126350636Y-99332807D01*
X126178321Y-99332657D01*
X125874254Y-99458295D01*
X125641412Y-99690730D01*
X125515244Y-99994578D01*
X125514957Y-100323579D01*
X117845257Y-100323579D01*
X117939456Y-100096722D01*
X117939488Y-100060351D01*
X128484563Y-93929558D01*
X128606178Y-93980056D01*
X128895396Y-93980308D01*
X129001395Y-94236846D01*
X129233830Y-94469688D01*
X129537678Y-94595856D01*
X129866679Y-94596143D01*
X130170746Y-94470505D01*
X130403588Y-94238070D01*
X130459648Y-94103062D01*
X135228874Y-92757448D01*
X135228757Y-92891279D01*
X135339273Y-93158748D01*
X134844062Y-98911498D01*
X134776712Y-98978730D01*
X134775261Y-98982224D01*
X131862427Y-100038174D01*
X131823820Y-100052132D01*
X131797824Y-100067831D01*
X131768320Y-100075028D01*
X131691620Y-100110728D01*
X131667108Y-100128675D01*
X131638348Y-100138462D01*
X131601348Y-100159862D01*
X131601099Y-100160081D01*
X131600785Y-100160188D01*
X129615943Y-101310728D01*
X129615943Y-101310721D01*
X129490305Y-101006654D01*
X129257870Y-100773812D01*
X128954022Y-100647644D01*
X128625021Y-100647357D01*
X128320954Y-100772995D01*
X128094041Y-100999512D01*
X125541381Y-101196360D01*
X125541254Y-101196396D01*
X125541122Y-101196380D01*
X125429023Y-101205080D01*
X125358457Y-101224899D01*
X125286094Y-101236556D01*
X125075294Y-101314956D01*
X125012767Y-101353499D01*
X124946272Y-101384718D01*
X124856207Y-101451119D01*
X124856206Y-101451119D01*
X123761007Y-102258019D01*
X123756133Y-102263363D01*
X123749670Y-102266610D01*
X123682170Y-102319210D01*
X123677524Y-102324589D01*
X123671258Y-102327948D01*
X122048408Y-103663235D01*
X122024201Y-103682010D01*
X110079924Y-112416673D01*
X109797904Y-112299568D01*
X109883248Y-112295230D01*
X110261723Y-112138460D01*
X110329712Y-111897517D01*
X109537800Y-111105605D01*
X108745888Y-111897517D01*
X108813877Y-112138460D01*
X109273051Y-112301876D01*
X108871954Y-112467606D01*
X108540570Y-112798412D01*
X108361005Y-113230853D01*
X108360596Y-113699093D01*
X108539406Y-114131846D01*
X108870212Y-114463230D01*
X109302653Y-114642795D01*
X109770893Y-114643204D01*
X110203646Y-114464394D01*
X110535030Y-114133588D01*
X110714595Y-113701147D01*
X110714982Y-113258025D01*
X117580378Y-108237468D01*
X113528494Y-111730004D01*
X113525671Y-111733618D01*
X113521709Y-111735931D01*
X113502510Y-111752931D01*
X113499657Y-111756686D01*
X113495615Y-111759120D01*
X110131809Y-114820635D01*
X108787800Y-114820635D01*
X108629563Y-114850409D01*
X108484233Y-114943927D01*
X108386736Y-115086619D01*
X108352435Y-115256000D01*
X105552000Y-115256000D01*
X105552000Y-110721171D01*
X108140599Y-110721171D01*
X108168570Y-111271448D01*
X108325340Y-111649923D01*
X108566283Y-111717912D01*
X109358195Y-110926000D01*
X109717405Y-110926000D01*
X110509317Y-111717912D01*
X110750260Y-111649923D01*
X110935001Y-111130829D01*
X110907030Y-110580552D01*
X110750260Y-110202077D01*
X110509317Y-110134088D01*
X109717405Y-110926000D01*
X109358195Y-110926000D01*
X108566283Y-110134088D01*
X108325340Y-110202077D01*
X108140599Y-110721171D01*
X105552000Y-110721171D01*
X105552000Y-108619093D01*
X108360596Y-108619093D01*
X108539406Y-109051846D01*
X108870212Y-109383230D01*
X109277696Y-109552432D01*
X109192352Y-109556770D01*
X108813877Y-109713540D01*
X108745888Y-109954483D01*
X109537800Y-110746395D01*
X110329712Y-109954483D01*
X110261723Y-109713540D01*
X109802549Y-109550124D01*
X110203646Y-109384394D01*
X110535030Y-109053588D01*
X110714595Y-108621147D01*
X110715004Y-108152907D01*
X110536194Y-107720154D01*
X110205388Y-107388770D01*
X109772947Y-107209205D01*
X109304707Y-107208796D01*
X108871954Y-107387606D01*
X108540570Y-107718412D01*
X108361005Y-108150853D01*
X108360596Y-108619093D01*
X105552000Y-108619093D01*
X105552000Y-102504913D01*
X107705992Y-102504913D01*
X107784817Y-102754990D01*
X108335897Y-102954477D01*
X108921369Y-102927889D01*
X109338783Y-102754990D01*
X109417608Y-102504913D01*
X108561800Y-101649105D01*
X107705992Y-102504913D01*
X105552000Y-102504913D01*
X105552000Y-101243597D01*
X107076823Y-101243597D01*
X107103411Y-101829069D01*
X107276310Y-102246483D01*
X107526387Y-102325308D01*
X108382195Y-101469500D01*
X108741405Y-101469500D01*
X109597213Y-102325308D01*
X109828235Y-102252489D01*
X109828235Y-102307700D01*
X109858009Y-102465937D01*
X109951527Y-102611267D01*
X110094219Y-102708764D01*
X110263600Y-102743065D01*
X111940000Y-102743065D01*
X112098237Y-102713291D01*
X112243567Y-102619773D01*
X112341064Y-102477081D01*
X112375365Y-102307700D01*
X112375365Y-100631300D01*
X112345591Y-100473063D01*
X112252073Y-100327733D01*
X112109381Y-100230236D01*
X111940000Y-100195935D01*
X110263600Y-100195935D01*
X110105363Y-100225709D01*
X109960033Y-100319227D01*
X109862536Y-100461919D01*
X109828235Y-100631300D01*
X109828235Y-100686511D01*
X109597213Y-100613692D01*
X108741405Y-101469500D01*
X108382195Y-101469500D01*
X107526387Y-100613692D01*
X107276310Y-100692517D01*
X107076823Y-101243597D01*
X105552000Y-101243597D01*
X105552000Y-100434087D01*
X107705992Y-100434087D01*
X108561800Y-101289895D01*
X109417608Y-100434087D01*
X109338783Y-100184010D01*
X108787703Y-99984523D01*
X108202231Y-100011111D01*
X107784817Y-100184010D01*
X107705992Y-100434087D01*
X105552000Y-100434087D01*
X105552000Y-95452000D01*
X110650000Y-95452000D01*
X110842107Y-95413788D01*
X111004968Y-95304968D01*
X111113788Y-95142107D01*
X111152000Y-94950000D01*
X111152000Y-89013679D01*
X111233557Y-89013679D01*
X111359195Y-89317746D01*
X111383700Y-89342294D01*
X111383700Y-92757383D01*
X111360012Y-92781030D01*
X111233844Y-93084878D01*
X111233557Y-93413879D01*
X111359195Y-93717946D01*
X111591630Y-93950788D01*
X111595779Y-93952511D01*
X112258769Y-95775434D01*
X112234044Y-95834978D01*
X112233757Y-96163979D01*
X112359395Y-96468046D01*
X112591830Y-96700888D01*
X112895678Y-96827056D01*
X113224679Y-96827343D01*
X113528746Y-96701705D01*
X113761588Y-96469270D01*
X113887756Y-96165422D01*
X113888043Y-95836421D01*
X113762405Y-95532354D01*
X113529970Y-95299512D01*
X113525821Y-95297789D01*
X112862831Y-93474866D01*
X112887556Y-93415322D01*
X112887843Y-93086321D01*
X112762205Y-92782254D01*
X112737700Y-92757706D01*
X112737700Y-89342617D01*
X112761388Y-89318970D01*
X112887556Y-89015122D01*
X112887843Y-88686121D01*
X112867520Y-88636937D01*
X113522042Y-86930933D01*
X113536146Y-86925105D01*
X113768988Y-86692670D01*
X113895156Y-86388822D01*
X113895443Y-86059821D01*
X113769805Y-85755754D01*
X113537370Y-85522912D01*
X113233522Y-85396744D01*
X112904521Y-85396457D01*
X112600454Y-85522095D01*
X112367612Y-85754530D01*
X112241444Y-86058378D01*
X112241157Y-86387379D01*
X112261479Y-86436563D01*
X111606958Y-88142567D01*
X111592854Y-88148395D01*
X111360012Y-88380830D01*
X111233844Y-88684678D01*
X111233557Y-89013679D01*
X111152000Y-89013679D01*
X111152000Y-87150000D01*
X111113788Y-86957893D01*
X111004968Y-86795032D01*
X110842107Y-86686212D01*
X110650000Y-86648000D01*
X105552000Y-86648000D01*
X105552000Y-80954593D01*
X108358696Y-80954593D01*
X108537506Y-81387346D01*
X108868312Y-81718730D01*
X109300753Y-81898295D01*
X109768993Y-81898704D01*
X109918585Y-81836894D01*
X112521404Y-84396268D01*
X112523644Y-84397738D01*
X112525175Y-84399940D01*
X112533475Y-84407940D01*
X112534486Y-84408589D01*
X112535175Y-84409571D01*
X117924753Y-89558056D01*
X117924557Y-89782979D01*
X118050195Y-90087046D01*
X118282630Y-90319888D01*
X118586478Y-90446056D01*
X118915479Y-90446343D01*
X119219546Y-90320705D01*
X119452388Y-90088270D01*
X119483369Y-90013659D01*
X119693530Y-90224188D01*
X119997378Y-90350356D01*
X120326379Y-90350643D01*
X120630446Y-90225005D01*
X120686004Y-90169544D01*
X120529356Y-93337871D01*
X120480912Y-93386230D01*
X120354744Y-93690078D01*
X120354457Y-94019079D01*
X120480095Y-94323146D01*
X120712530Y-94555988D01*
X121016378Y-94682156D01*
X121345379Y-94682443D01*
X121649446Y-94556805D01*
X121882288Y-94324370D01*
X122008456Y-94020522D01*
X122008743Y-93691521D01*
X121883105Y-93387454D01*
X121882584Y-93386932D01*
X122322687Y-84485503D01*
X122520703Y-84500314D01*
X122520809Y-84500301D01*
X122520914Y-84500330D01*
X122665915Y-84511130D01*
X122767558Y-84498667D01*
X122869909Y-84495320D01*
X123153010Y-84429320D01*
X123246170Y-84387113D01*
X123342736Y-84353422D01*
X123467936Y-84279721D01*
X123468041Y-84279628D01*
X123468177Y-84279580D01*
X124170977Y-83865479D01*
X124171228Y-83865255D01*
X124171550Y-83865142D01*
X124188680Y-83855026D01*
X124227307Y-83839500D01*
X124246673Y-83834965D01*
X124246919Y-83834853D01*
X124247186Y-83834844D01*
X130562100Y-82350736D01*
X130704478Y-82409856D01*
X131033479Y-82410143D01*
X131223083Y-82331800D01*
X140526435Y-82331800D01*
X140526435Y-84008200D01*
X140556209Y-84166437D01*
X140649727Y-84311767D01*
X140792419Y-84409264D01*
X140961800Y-84443565D01*
X142638200Y-84443565D01*
X142796437Y-84413791D01*
X142941767Y-84320273D01*
X143039264Y-84177581D01*
X143073565Y-84008200D01*
X143073565Y-82331800D01*
X144426435Y-82331800D01*
X144426435Y-84008200D01*
X144456209Y-84166437D01*
X144549727Y-84311767D01*
X144692419Y-84409264D01*
X144861800Y-84443565D01*
X146538200Y-84443565D01*
X146696437Y-84413791D01*
X146841767Y-84320273D01*
X146939264Y-84177581D01*
X146973565Y-84008200D01*
X146973565Y-82331800D01*
X146954749Y-82231800D01*
X148526435Y-82231800D01*
X148526435Y-83908200D01*
X148556209Y-84066437D01*
X148649727Y-84211767D01*
X148792419Y-84309264D01*
X148961800Y-84343565D01*
X150638200Y-84343565D01*
X150796437Y-84313791D01*
X150941767Y-84220273D01*
X151039264Y-84077581D01*
X151073565Y-83908200D01*
X151073565Y-82231800D01*
X151043791Y-82073563D01*
X150950273Y-81928233D01*
X150807581Y-81830736D01*
X150638200Y-81796435D01*
X150582989Y-81796435D01*
X150655808Y-81565413D01*
X149800000Y-80709605D01*
X148944192Y-81565413D01*
X149017011Y-81796435D01*
X148961800Y-81796435D01*
X148803563Y-81826209D01*
X148658233Y-81919727D01*
X148560736Y-82062419D01*
X148526435Y-82231800D01*
X146954749Y-82231800D01*
X146943791Y-82173563D01*
X146850273Y-82028233D01*
X146707581Y-81930736D01*
X146538200Y-81896435D01*
X146482989Y-81896435D01*
X146555808Y-81665413D01*
X145700000Y-80809605D01*
X144844192Y-81665413D01*
X144917011Y-81896435D01*
X144861800Y-81896435D01*
X144703563Y-81926209D01*
X144558233Y-82019727D01*
X144460736Y-82162419D01*
X144426435Y-82331800D01*
X143073565Y-82331800D01*
X143043791Y-82173563D01*
X142950273Y-82028233D01*
X142807581Y-81930736D01*
X142638200Y-81896435D01*
X142582989Y-81896435D01*
X142655808Y-81665413D01*
X141800000Y-80809605D01*
X140944192Y-81665413D01*
X141017011Y-81896435D01*
X140961800Y-81896435D01*
X140803563Y-81926209D01*
X140658233Y-82019727D01*
X140560736Y-82162419D01*
X140526435Y-82331800D01*
X131223083Y-82331800D01*
X131337546Y-82284505D01*
X131570388Y-82052070D01*
X131696556Y-81748222D01*
X131696843Y-81419221D01*
X131571205Y-81115154D01*
X131338770Y-80882312D01*
X131034922Y-80756144D01*
X130705921Y-80755857D01*
X130401854Y-80881495D01*
X130249854Y-81033229D01*
X123937531Y-82516728D01*
X123868327Y-82532935D01*
X123821146Y-82554368D01*
X123770219Y-82563942D01*
X123636119Y-82617842D01*
X123592977Y-82646016D01*
X123544351Y-82663058D01*
X123483339Y-82699087D01*
X122781064Y-83112878D01*
X122744933Y-83134147D01*
X122663279Y-83153183D01*
X122621486Y-83150070D01*
X122621485Y-83150070D01*
X122211235Y-83119384D01*
X122149870Y-83057912D01*
X121846022Y-82931744D01*
X121517021Y-82931457D01*
X121212954Y-83057095D01*
X120980112Y-83289530D01*
X120853944Y-83593378D01*
X120853657Y-83922379D01*
X120979295Y-84226446D01*
X120979816Y-84226968D01*
X120746883Y-88938226D01*
X120631670Y-88822812D01*
X120327822Y-88696644D01*
X120118420Y-88696461D01*
X114063995Y-82106500D01*
X114330150Y-82106500D01*
X114488900Y-81947750D01*
X114488900Y-80848500D01*
X114742900Y-80848500D01*
X114742900Y-81947750D01*
X114901650Y-82106500D01*
X115492209Y-82106500D01*
X115725598Y-82009827D01*
X115904227Y-81831199D01*
X116000900Y-81597810D01*
X116000900Y-81007250D01*
X115842150Y-80848500D01*
X114742900Y-80848500D01*
X114488900Y-80848500D01*
X114468900Y-80848500D01*
X114468900Y-80594500D01*
X114488900Y-80594500D01*
X114488900Y-79495250D01*
X114742900Y-79495250D01*
X114742900Y-80594500D01*
X115842150Y-80594500D01*
X116000900Y-80435750D01*
X116000900Y-80404097D01*
X140315023Y-80404097D01*
X140341611Y-80989569D01*
X140514510Y-81406983D01*
X140764587Y-81485808D01*
X141620395Y-80630000D01*
X141979605Y-80630000D01*
X142835413Y-81485808D01*
X143085490Y-81406983D01*
X143284977Y-80855903D01*
X143264460Y-80404097D01*
X144215023Y-80404097D01*
X144241611Y-80989569D01*
X144414510Y-81406983D01*
X144664587Y-81485808D01*
X145520395Y-80630000D01*
X145879605Y-80630000D01*
X146735413Y-81485808D01*
X146985490Y-81406983D01*
X147184977Y-80855903D01*
X147159918Y-80304097D01*
X148315023Y-80304097D01*
X148341611Y-80889569D01*
X148514510Y-81306983D01*
X148764587Y-81385808D01*
X149620395Y-80530000D01*
X149979605Y-80530000D01*
X150835413Y-81385808D01*
X151085490Y-81306983D01*
X151284977Y-80755903D01*
X151258389Y-80170431D01*
X151085490Y-79753017D01*
X150835413Y-79674192D01*
X149979605Y-80530000D01*
X149620395Y-80530000D01*
X148764587Y-79674192D01*
X148514510Y-79753017D01*
X148315023Y-80304097D01*
X147159918Y-80304097D01*
X147158389Y-80270431D01*
X146985490Y-79853017D01*
X146735413Y-79774192D01*
X145879605Y-80630000D01*
X145520395Y-80630000D01*
X144664587Y-79774192D01*
X144414510Y-79853017D01*
X144215023Y-80404097D01*
X143264460Y-80404097D01*
X143258389Y-80270431D01*
X143085490Y-79853017D01*
X142835413Y-79774192D01*
X141979605Y-80630000D01*
X141620395Y-80630000D01*
X140764587Y-79774192D01*
X140514510Y-79853017D01*
X140315023Y-80404097D01*
X116000900Y-80404097D01*
X116000900Y-79845190D01*
X115904227Y-79611801D01*
X115887013Y-79594587D01*
X140944192Y-79594587D01*
X141800000Y-80450395D01*
X142655808Y-79594587D01*
X144844192Y-79594587D01*
X145700000Y-80450395D01*
X146555808Y-79594587D01*
X146524288Y-79494587D01*
X148944192Y-79494587D01*
X149800000Y-80350395D01*
X150655808Y-79494587D01*
X150576983Y-79244510D01*
X150025903Y-79045023D01*
X149440431Y-79071611D01*
X149023017Y-79244510D01*
X148944192Y-79494587D01*
X146524288Y-79494587D01*
X146476983Y-79344510D01*
X145925903Y-79145023D01*
X145340431Y-79171611D01*
X144923017Y-79344510D01*
X144844192Y-79594587D01*
X142655808Y-79594587D01*
X142576983Y-79344510D01*
X142025903Y-79145023D01*
X141440431Y-79171611D01*
X141023017Y-79344510D01*
X140944192Y-79594587D01*
X115887013Y-79594587D01*
X115725598Y-79433173D01*
X115492209Y-79336500D01*
X114901650Y-79336500D01*
X114742900Y-79495250D01*
X114488900Y-79495250D01*
X114330150Y-79336500D01*
X113739591Y-79336500D01*
X113506202Y-79433173D01*
X113327573Y-79611801D01*
X113230900Y-79845190D01*
X113230900Y-80434669D01*
X113074294Y-80055654D01*
X112743488Y-79724270D01*
X112311047Y-79544705D01*
X111842807Y-79544296D01*
X111410054Y-79723106D01*
X111078670Y-80053912D01*
X110899105Y-80486353D01*
X110898696Y-80954593D01*
X111077506Y-81387346D01*
X111408312Y-81718730D01*
X111840753Y-81898295D01*
X112308993Y-81898704D01*
X112405249Y-81858932D01*
X118775100Y-88792220D01*
X118648820Y-88792110D01*
X113264001Y-83648170D01*
X113258490Y-83642858D01*
X110658765Y-81086526D01*
X110712695Y-80956647D01*
X110713104Y-80488407D01*
X110534294Y-80055654D01*
X110203488Y-79724270D01*
X109771047Y-79544705D01*
X109302807Y-79544296D01*
X108870054Y-79723106D01*
X108538670Y-80053912D01*
X108359105Y-80486353D01*
X108358696Y-80954593D01*
X105552000Y-80954593D01*
X105552000Y-78952000D01*
X165598000Y-78952000D01*
X165598000Y-98786740D01*
X165598000Y-98786740D01*
G37*
X165598000Y-98786740D02*
X165534705Y-98633554D01*
X165421462Y-98520113D01*
X164841788Y-95094425D01*
X164921556Y-94902322D01*
X164921843Y-94573321D01*
X164796205Y-94269254D01*
X164563770Y-94036412D01*
X164259922Y-93910244D01*
X163930921Y-93909957D01*
X163626854Y-94035595D01*
X163394012Y-94268030D01*
X163267844Y-94571878D01*
X163267557Y-94900879D01*
X163393195Y-95204946D01*
X163506438Y-95318387D01*
X164086112Y-98744075D01*
X164006344Y-98936178D01*
X164006057Y-99265179D01*
X164131695Y-99569246D01*
X164364130Y-99802088D01*
X164667978Y-99928256D01*
X164996979Y-99928543D01*
X165301046Y-99802905D01*
X165533888Y-99570470D01*
X165598000Y-99416070D01*
X165598000Y-115037846D01*
X165289060Y-114290154D01*
X164663142Y-113663142D01*
X163844921Y-113323387D01*
X162958966Y-113322614D01*
X162240605Y-113619434D01*
X162363034Y-113469800D01*
X162615446Y-113365505D01*
X162848288Y-113133070D01*
X162974456Y-112829222D01*
X162974743Y-112500221D01*
X162849105Y-112196154D01*
X162616670Y-111963312D01*
X162312822Y-111837144D01*
X161983821Y-111836857D01*
X161679754Y-111962495D01*
X161446912Y-112194930D01*
X161320744Y-112498778D01*
X161320651Y-112605606D01*
X158306465Y-116289601D01*
X158054054Y-116393895D01*
X157821212Y-116626330D01*
X157695044Y-116930178D01*
X157694757Y-117259179D01*
X157820395Y-117563246D01*
X158052830Y-117796088D01*
X158356678Y-117922256D01*
X158685679Y-117922543D01*
X158989746Y-117796905D01*
X159222588Y-117564470D01*
X159348756Y-117260622D01*
X159348849Y-117153795D01*
X161326222Y-114737011D01*
X161173387Y-115105079D01*
X161172614Y-115991034D01*
X161510940Y-116809846D01*
X162136858Y-117436858D01*
X162955079Y-117776613D01*
X163841034Y-117777386D01*
X164659846Y-117439060D01*
X165286858Y-116813142D01*
X165598000Y-116063829D01*
X165598000Y-121898000D01*
X105552000Y-121898000D01*
X105552000Y-115256000D01*
X108352435Y-115256000D01*
X108352435Y-116756000D01*
X108382209Y-116914237D01*
X108475727Y-117059567D01*
X108618419Y-117157064D01*
X108787800Y-117191365D01*
X110287800Y-117191365D01*
X110446037Y-117161591D01*
X110591367Y-117068073D01*
X110688864Y-116925381D01*
X110723165Y-116756000D01*
X110723165Y-116067323D01*
X110770300Y-116037398D01*
X110876440Y-115973666D01*
X110911140Y-115942166D01*
X110911405Y-115941808D01*
X110911785Y-115941579D01*
X114403581Y-112763578D01*
X114415901Y-112752669D01*
X114499304Y-112680779D01*
X122152457Y-112680779D01*
X122278095Y-112984846D01*
X122443595Y-113150636D01*
X123604399Y-117661671D01*
X123551744Y-117788478D01*
X123551457Y-118117479D01*
X123677095Y-118421546D01*
X123909530Y-118654388D01*
X124001933Y-118692757D01*
X124256903Y-119178509D01*
X124256657Y-119460979D01*
X124382295Y-119765046D01*
X124614730Y-119997888D01*
X124918578Y-120124056D01*
X125247579Y-120124343D01*
X125551646Y-119998705D01*
X125784488Y-119766270D01*
X125910656Y-119462422D01*
X125910943Y-119133421D01*
X125785305Y-118829354D01*
X125552870Y-118596512D01*
X125460467Y-118558143D01*
X125217591Y-118095432D01*
X127057814Y-116371694D01*
X127114279Y-116371743D01*
X127418346Y-116246105D01*
X127520561Y-116144068D01*
X132078881Y-115464239D01*
X132287478Y-115550856D01*
X132616479Y-115551143D01*
X132892056Y-115437277D01*
X136307747Y-115703360D01*
X134154571Y-118377556D01*
X133909554Y-118478795D01*
X133676712Y-118711230D01*
X133550544Y-119015078D01*
X133550257Y-119344079D01*
X133675895Y-119648146D01*
X133908330Y-119880988D01*
X134212178Y-120007156D01*
X134541179Y-120007443D01*
X134845246Y-119881805D01*
X135078088Y-119649370D01*
X135204256Y-119345522D01*
X135204354Y-119232734D01*
X137862929Y-115930844D01*
X138107946Y-115829605D01*
X138177650Y-115760023D01*
X146057274Y-115060190D01*
X146151623Y-115099366D01*
X143355268Y-117177746D01*
X143314322Y-117160744D01*
X142985321Y-117160457D01*
X142681254Y-117286095D01*
X142471858Y-117495125D01*
X142587544Y-116991056D01*
X142735088Y-116843770D01*
X142861256Y-116539922D01*
X142861543Y-116210921D01*
X142735905Y-115906854D01*
X142503470Y-115674012D01*
X142199622Y-115547844D01*
X141870621Y-115547557D01*
X141566554Y-115673195D01*
X141333712Y-115905630D01*
X141207544Y-116209478D01*
X141207257Y-116538479D01*
X141268303Y-116686222D01*
X140662956Y-119323844D01*
X140515412Y-119471130D01*
X140389244Y-119774978D01*
X140388957Y-120103979D01*
X140514595Y-120408046D01*
X140747030Y-120640888D01*
X141050878Y-120767056D01*
X141379879Y-120767343D01*
X141683946Y-120641705D01*
X141916788Y-120409270D01*
X142042956Y-120105422D01*
X142043243Y-119776421D01*
X141982197Y-119628678D01*
X142321960Y-118148261D01*
X142321957Y-118151379D01*
X142447595Y-118455446D01*
X142680030Y-118688288D01*
X142983878Y-118814456D01*
X143312879Y-118814743D01*
X143616946Y-118689105D01*
X143849788Y-118456670D01*
X143975956Y-118152822D01*
X143976064Y-118029583D01*
X147381032Y-115498854D01*
X147421978Y-115515856D01*
X147750979Y-115516143D01*
X148055046Y-115390505D01*
X148287888Y-115158070D01*
X148403532Y-114879568D01*
X149141863Y-115343679D01*
X149161782Y-115391887D01*
X148526144Y-119475882D01*
X148421312Y-119580530D01*
X148295144Y-119884378D01*
X148294857Y-120213379D01*
X148420495Y-120517446D01*
X148652930Y-120750288D01*
X148956778Y-120876456D01*
X149285779Y-120876743D01*
X149589846Y-120751105D01*
X149654700Y-120686364D01*
X154593289Y-120293517D01*
X154865278Y-120406456D01*
X155194279Y-120406743D01*
X155498346Y-120281105D01*
X155731188Y-120048670D01*
X155857356Y-119744822D01*
X155857643Y-119415821D01*
X155732005Y-119111754D01*
X155499570Y-118878912D01*
X155195722Y-118752744D01*
X154866721Y-118752457D01*
X154562654Y-118878095D01*
X154497800Y-118942836D01*
X149922767Y-119306764D01*
X150438830Y-115991034D01*
X151172614Y-115991034D01*
X151510940Y-116809846D01*
X152136858Y-117436858D01*
X152955079Y-117776613D01*
X153841034Y-117777386D01*
X154659846Y-117439060D01*
X155286858Y-116813142D01*
X155626613Y-115994921D01*
X155627386Y-115108966D01*
X155289060Y-114290154D01*
X154663142Y-113663142D01*
X153844921Y-113323387D01*
X152958966Y-113322614D01*
X152140154Y-113660940D01*
X151513142Y-114286858D01*
X151173387Y-115105079D01*
X151172614Y-115991034D01*
X150438830Y-115991034D01*
X150500156Y-115597018D01*
X150604988Y-115492370D01*
X150731156Y-115188522D01*
X150731443Y-114859521D01*
X150605805Y-114555454D01*
X150373370Y-114322612D01*
X150069522Y-114196444D01*
X149860719Y-114196262D01*
X148453090Y-113311433D01*
X148305822Y-113218742D01*
X148191236Y-113174902D01*
X148077934Y-113127840D01*
X147734333Y-113059139D01*
X147660578Y-113059066D01*
X147441502Y-112134438D01*
X147500056Y-111993422D01*
X147500169Y-111863715D01*
X147533292Y-111820679D01*
X153666257Y-111820679D01*
X153791895Y-112124746D01*
X154024330Y-112357588D01*
X154328178Y-112483756D01*
X154657179Y-112484043D01*
X154961246Y-112358405D01*
X155194088Y-112125970D01*
X155320256Y-111822122D01*
X155320543Y-111493121D01*
X155194905Y-111189054D01*
X154962470Y-110956212D01*
X154658622Y-110830044D01*
X154329621Y-110829757D01*
X154025554Y-110955395D01*
X153792712Y-111187830D01*
X153666544Y-111491678D01*
X153666257Y-111820679D01*
X147533292Y-111820679D01*
X149341669Y-109471113D01*
X149464330Y-109593988D01*
X149768178Y-109720156D01*
X150097179Y-109720443D01*
X150401246Y-109594805D01*
X150634088Y-109362370D01*
X150663868Y-109290652D01*
X152931589Y-108186668D01*
X153247179Y-108186943D01*
X153274667Y-108175585D01*
X154672811Y-108766393D01*
X154672788Y-108792995D01*
X154859194Y-109244131D01*
X155204053Y-109589593D01*
X155654864Y-109776786D01*
X156142995Y-109777212D01*
X156594131Y-109590806D01*
X156939593Y-109245947D01*
X157126786Y-108795136D01*
X157126787Y-108792995D01*
X157172788Y-108792995D01*
X157359194Y-109244131D01*
X157704053Y-109589593D01*
X158154864Y-109776786D01*
X158642995Y-109777212D01*
X159094131Y-109590806D01*
X159439593Y-109245947D01*
X159626786Y-108795136D01*
X159626787Y-108792995D01*
X159672788Y-108792995D01*
X159859194Y-109244131D01*
X160204053Y-109589593D01*
X160654864Y-109776786D01*
X161142995Y-109777212D01*
X161594131Y-109590806D01*
X161939593Y-109245947D01*
X162126786Y-108795136D01*
X162127212Y-108307005D01*
X161940806Y-107855869D01*
X161595947Y-107510407D01*
X161145136Y-107323214D01*
X160657005Y-107322788D01*
X160205869Y-107509194D01*
X159860407Y-107854053D01*
X159673214Y-108304864D01*
X159672788Y-108792995D01*
X159626787Y-108792995D01*
X159627212Y-108307005D01*
X159440806Y-107855869D01*
X159095947Y-107510407D01*
X158645136Y-107323214D01*
X158157005Y-107322788D01*
X157705869Y-107509194D01*
X157360407Y-107854053D01*
X157173214Y-108304864D01*
X157172788Y-108792995D01*
X157126787Y-108792995D01*
X157127212Y-108307005D01*
X156940806Y-107855869D01*
X156595947Y-107510407D01*
X156145136Y-107323214D01*
X155657005Y-107322788D01*
X155205869Y-107509194D01*
X155197052Y-107517996D01*
X154722515Y-107317473D01*
X157361155Y-106038166D01*
X157678579Y-106038443D01*
X157982646Y-105912805D01*
X158215488Y-105680370D01*
X158314392Y-105442179D01*
X161656157Y-105442179D01*
X161781795Y-105746246D01*
X162014230Y-105979088D01*
X162058412Y-105997434D01*
X163275700Y-108787058D01*
X163267844Y-108805978D01*
X163267557Y-109134979D01*
X163393195Y-109439046D01*
X163625630Y-109671888D01*
X163929478Y-109798056D01*
X164258479Y-109798343D01*
X164562546Y-109672705D01*
X164795388Y-109440270D01*
X164921556Y-109136422D01*
X164921843Y-108807421D01*
X164796205Y-108503354D01*
X164563770Y-108270512D01*
X164519588Y-108252166D01*
X163302300Y-105462542D01*
X163310156Y-105443622D01*
X163310443Y-105114621D01*
X163184805Y-104810554D01*
X162952370Y-104577712D01*
X162648522Y-104451544D01*
X162319521Y-104451257D01*
X162015454Y-104576895D01*
X161782612Y-104809330D01*
X161656444Y-105113178D01*
X161656157Y-105442179D01*
X158314392Y-105442179D01*
X158341656Y-105376522D01*
X158341943Y-105047521D01*
X158216305Y-104743454D01*
X157983870Y-104510612D01*
X157680022Y-104384444D01*
X157351021Y-104384157D01*
X157046954Y-104509795D01*
X156814112Y-104742230D01*
X156784782Y-104812865D01*
X153237045Y-106532934D01*
X152919621Y-106532657D01*
X152615554Y-106658295D01*
X152382712Y-106890730D01*
X152352932Y-106962448D01*
X150085211Y-108066432D01*
X149769621Y-108066157D01*
X149754772Y-108072292D01*
X149690491Y-107197990D01*
X149739778Y-107218456D01*
X150068779Y-107218743D01*
X150372846Y-107093105D01*
X150605688Y-106860670D01*
X150731856Y-106556822D01*
X150731872Y-106538633D01*
X158053032Y-102516629D01*
X158192778Y-102574656D01*
X158521779Y-102574943D01*
X158825846Y-102449305D01*
X159058688Y-102216870D01*
X159184856Y-101913022D01*
X159185143Y-101584021D01*
X159059505Y-101279954D01*
X158827070Y-101047112D01*
X158523222Y-100920944D01*
X158194221Y-100920657D01*
X157890154Y-101046295D01*
X157657312Y-101278730D01*
X157531144Y-101582578D01*
X157531128Y-101600767D01*
X156735365Y-102037933D01*
X156735365Y-99950000D01*
X156705591Y-99791763D01*
X156612073Y-99646433D01*
X156469381Y-99548936D01*
X156300000Y-99514635D01*
X154700000Y-99514635D01*
X154541763Y-99544409D01*
X154396433Y-99637927D01*
X154298936Y-99780619D01*
X154264635Y-99950000D01*
X154264635Y-102265520D01*
X154162822Y-102223244D01*
X153833821Y-102222957D01*
X153529754Y-102348595D01*
X153419063Y-102459093D01*
X150171489Y-102992781D01*
X149595251Y-102289632D01*
X149595343Y-102184721D01*
X149469705Y-101880654D01*
X149237270Y-101647812D01*
X148933422Y-101521644D01*
X148604421Y-101521357D01*
X148300354Y-101646995D01*
X148067512Y-101879430D01*
X147941344Y-102183278D01*
X147941057Y-102512279D01*
X147976430Y-102597888D01*
X147849354Y-102650395D01*
X147616512Y-102882830D01*
X147490344Y-103186678D01*
X147490297Y-103240992D01*
X139056424Y-112159169D01*
X139042221Y-112159157D01*
X138738154Y-112284795D01*
X138654179Y-112368623D01*
X132265699Y-113107685D01*
X132260207Y-113109453D01*
X132254452Y-113109082D01*
X132223552Y-113113182D01*
X132218289Y-113114974D01*
X132212737Y-113114706D01*
X126711458Y-113935169D01*
X126692103Y-113938018D01*
X126677849Y-113943100D01*
X126662719Y-113943007D01*
X126625318Y-113950207D01*
X126612569Y-113955396D01*
X126598814Y-113955862D01*
X126579614Y-113960362D01*
X126579613Y-113960362D01*
X125105427Y-114305108D01*
X124962222Y-114245644D01*
X124633221Y-114245357D01*
X124329154Y-114370995D01*
X124191178Y-114508730D01*
X123753801Y-112809029D01*
X123806456Y-112682222D01*
X123806743Y-112353221D01*
X123770498Y-112265500D01*
X123923620Y-111785679D01*
X127034657Y-111785679D01*
X127160295Y-112089746D01*
X127392730Y-112322588D01*
X127696578Y-112448756D01*
X128025579Y-112449043D01*
X128329646Y-112323405D01*
X128562488Y-112090970D01*
X128688656Y-111787122D01*
X128688943Y-111458121D01*
X128629101Y-111313293D01*
X128678316Y-111102579D01*
X136472757Y-111102579D01*
X136598395Y-111406646D01*
X136830830Y-111639488D01*
X137134678Y-111765656D01*
X137463679Y-111765943D01*
X137767746Y-111640305D01*
X138000588Y-111407870D01*
X138126756Y-111104022D01*
X138126829Y-111020622D01*
X141868041Y-106730747D01*
X142151546Y-106613605D01*
X142384388Y-106381170D01*
X142510556Y-106077322D01*
X142510843Y-105748321D01*
X142385205Y-105444254D01*
X142152770Y-105211412D01*
X141848922Y-105085244D01*
X141519921Y-105084957D01*
X141215854Y-105210595D01*
X140983012Y-105443030D01*
X140856844Y-105746878D01*
X140856771Y-105830278D01*
X137115559Y-110120153D01*
X136832054Y-110237295D01*
X136599212Y-110469730D01*
X136473044Y-110773578D01*
X136472757Y-111102579D01*
X128678316Y-111102579D01*
X128882588Y-110228008D01*
X129032588Y-110078270D01*
X129158756Y-109774422D01*
X129159043Y-109445421D01*
X129033405Y-109141354D01*
X128800970Y-108908512D01*
X128497122Y-108782344D01*
X128168121Y-108782057D01*
X127864054Y-108907695D01*
X127631212Y-109140130D01*
X127505044Y-109443978D01*
X127504757Y-109772979D01*
X127564599Y-109917807D01*
X127311112Y-111003092D01*
X127161112Y-111152830D01*
X127034944Y-111456678D01*
X127034657Y-111785679D01*
X123923620Y-111785679D01*
X124351917Y-110443582D01*
X124556988Y-110238870D01*
X124683156Y-109935022D01*
X124683443Y-109606021D01*
X124557805Y-109301954D01*
X124325370Y-109069112D01*
X124021522Y-108942944D01*
X123692521Y-108942657D01*
X123388454Y-109068295D01*
X123155612Y-109300730D01*
X123029444Y-109604578D01*
X123029157Y-109933579D01*
X123065403Y-110021300D01*
X122483983Y-111843217D01*
X122278912Y-112047930D01*
X122152744Y-112351778D01*
X122152457Y-112680779D01*
X114499304Y-112680779D01*
X119924306Y-108004679D01*
X133258057Y-108004679D01*
X133383695Y-108308746D01*
X133616130Y-108541588D01*
X133919978Y-108667756D01*
X134248979Y-108668043D01*
X134553046Y-108542405D01*
X134785888Y-108309970D01*
X134912056Y-108006122D01*
X134912343Y-107677121D01*
X134786705Y-107373054D01*
X134554270Y-107140212D01*
X134250422Y-107014044D01*
X133921421Y-107013757D01*
X133617354Y-107139395D01*
X133384512Y-107371830D01*
X133258344Y-107675678D01*
X133258057Y-108004679D01*
X119924306Y-108004679D01*
X124843948Y-103764177D01*
X124853945Y-103755579D01*
X124875960Y-103740006D01*
X124886899Y-103733735D01*
X124886937Y-103733702D01*
X124886982Y-103733687D01*
X125562290Y-103346429D01*
X125807179Y-103346643D01*
X126111246Y-103221005D01*
X126150749Y-103181571D01*
X128837618Y-103100895D01*
X128837753Y-103100864D01*
X128837892Y-103100887D01*
X128956193Y-103097287D01*
X129037786Y-103078460D01*
X129121246Y-103071649D01*
X129348846Y-103006749D01*
X129423441Y-102968469D01*
X129502786Y-102941371D01*
X129604814Y-102882213D01*
X129604816Y-102882212D01*
X132279252Y-101331938D01*
X132290231Y-101325588D01*
X132312439Y-101315251D01*
X132323180Y-101311368D01*
X132323435Y-101311214D01*
X132323730Y-101311169D01*
X135251943Y-100249644D01*
X135312178Y-100274656D01*
X135641179Y-100274943D01*
X135945246Y-100149305D01*
X136178088Y-99916870D01*
X136304256Y-99613022D01*
X136304543Y-99284021D01*
X136194027Y-99016552D01*
X136689237Y-93263803D01*
X136756588Y-93196570D01*
X136882756Y-92892722D01*
X136882784Y-92860587D01*
X142917366Y-96092954D01*
X142917435Y-96092975D01*
X142917492Y-96093022D01*
X142977643Y-96125220D01*
X143053947Y-96240137D01*
X143060262Y-96308077D01*
X143060299Y-96308202D01*
X143060286Y-96308331D01*
X143673190Y-102867456D01*
X143556512Y-102983930D01*
X143430344Y-103287778D01*
X143430057Y-103616779D01*
X143555695Y-103920846D01*
X143788130Y-104153688D01*
X144091978Y-104279856D01*
X144420979Y-104280143D01*
X144725046Y-104154505D01*
X144957888Y-103922070D01*
X145084056Y-103618222D01*
X145084343Y-103289221D01*
X144958705Y-102985154D01*
X144726270Y-102752312D01*
X144720809Y-102750045D01*
X144563666Y-101068342D01*
X144720478Y-101133456D01*
X145049479Y-101133743D01*
X145353546Y-101008105D01*
X145586388Y-100775670D01*
X145712556Y-100471822D01*
X145712843Y-100142821D01*
X145672884Y-100046112D01*
X147604012Y-96982736D01*
X147605778Y-96978129D01*
X147609105Y-96974489D01*
X147626105Y-96946389D01*
X147628170Y-96940691D01*
X147632155Y-96936128D01*
X147682740Y-96848079D01*
X148697757Y-96848079D01*
X148823395Y-97152146D01*
X149055830Y-97384988D01*
X149359678Y-97511156D01*
X149688679Y-97511443D01*
X149992746Y-97385805D01*
X150225588Y-97153370D01*
X150351756Y-96849522D01*
X150352043Y-96520521D01*
X150226405Y-96216454D01*
X149993970Y-95983612D01*
X149690122Y-95857444D01*
X149361121Y-95857157D01*
X149057054Y-95982795D01*
X148824212Y-96215230D01*
X148698044Y-96519078D01*
X148697757Y-96848079D01*
X147682740Y-96848079D01*
X148801436Y-94900879D01*
X158231857Y-94900879D01*
X158357495Y-95204946D01*
X158589930Y-95437788D01*
X158893778Y-95563956D01*
X159222779Y-95564243D01*
X159526846Y-95438605D01*
X159759688Y-95206170D01*
X159885856Y-94902322D01*
X159886143Y-94573321D01*
X159760505Y-94269254D01*
X159528070Y-94036412D01*
X159224222Y-93910244D01*
X158895221Y-93909957D01*
X158591154Y-94035595D01*
X158358312Y-94268030D01*
X158232144Y-94571878D01*
X158231857Y-94900879D01*
X148801436Y-94900879D01*
X149650054Y-93423779D01*
X150577757Y-93423779D01*
X150703395Y-93727846D01*
X150935830Y-93960688D01*
X151239678Y-94086856D01*
X151568679Y-94087143D01*
X151872746Y-93961505D01*
X152105588Y-93729070D01*
X152231756Y-93425222D01*
X152232043Y-93096221D01*
X152131597Y-92853123D01*
X160621989Y-92853123D01*
X160815934Y-93322508D01*
X161174743Y-93681943D01*
X161643788Y-93876708D01*
X162151663Y-93877151D01*
X162621048Y-93683206D01*
X162980483Y-93324397D01*
X163175248Y-92855352D01*
X163175691Y-92347477D01*
X162981746Y-91878092D01*
X162622937Y-91518657D01*
X162153892Y-91323892D01*
X161646017Y-91323449D01*
X161176632Y-91517394D01*
X160817197Y-91876203D01*
X160622432Y-92345248D01*
X160621989Y-92853123D01*
X152131597Y-92853123D01*
X152106405Y-92792154D01*
X151873970Y-92559312D01*
X151570122Y-92433144D01*
X151241121Y-92432857D01*
X150937054Y-92558495D01*
X150704212Y-92790930D01*
X150578044Y-93094778D01*
X150577757Y-93423779D01*
X149650054Y-93423779D01*
X151385896Y-90402379D01*
X152860557Y-90402379D01*
X152986195Y-90706446D01*
X153218630Y-90939288D01*
X153522478Y-91065456D01*
X153851479Y-91065743D01*
X154155546Y-90940105D01*
X154388388Y-90707670D01*
X154494209Y-90452823D01*
X156624029Y-90452823D01*
X156817974Y-90922208D01*
X157176783Y-91281643D01*
X157645828Y-91476408D01*
X158153703Y-91476851D01*
X158623088Y-91282906D01*
X158982523Y-90924097D01*
X159177288Y-90455052D01*
X159177320Y-90418498D01*
X163131496Y-88836498D01*
X163176263Y-88881343D01*
X163409905Y-88978360D01*
X163453428Y-89240383D01*
X163217497Y-89475903D01*
X163022732Y-89944948D01*
X163022289Y-90452823D01*
X163216234Y-90922208D01*
X163575043Y-91281643D01*
X164044088Y-91476408D01*
X164551963Y-91476851D01*
X165021348Y-91282906D01*
X165380783Y-90924097D01*
X165575548Y-90455052D01*
X165575991Y-89947177D01*
X165382046Y-89477792D01*
X165023237Y-89118357D01*
X164789596Y-89021340D01*
X164746072Y-88759317D01*
X164982003Y-88523797D01*
X165176768Y-88054752D01*
X165177211Y-87546877D01*
X164983266Y-87077492D01*
X164624457Y-86718057D01*
X164155412Y-86523292D01*
X163647537Y-86522849D01*
X163178152Y-86716794D01*
X162818717Y-87075603D01*
X162623952Y-87544648D01*
X162623920Y-87581226D01*
X158669761Y-89163219D01*
X158624977Y-89118357D01*
X158155932Y-88923592D01*
X157648057Y-88923149D01*
X157178672Y-89117094D01*
X156819237Y-89475903D01*
X156624472Y-89944948D01*
X156624029Y-90452823D01*
X154494209Y-90452823D01*
X154514556Y-90403822D01*
X154514843Y-90074821D01*
X154389205Y-89770754D01*
X154156770Y-89537912D01*
X153852922Y-89411744D01*
X153523921Y-89411457D01*
X153219854Y-89537095D01*
X152987012Y-89769530D01*
X152860844Y-90073378D01*
X152860557Y-90402379D01*
X151385896Y-90402379D01*
X152735925Y-88052523D01*
X155623269Y-88052523D01*
X155817214Y-88521908D01*
X156176023Y-88881343D01*
X156645068Y-89076108D01*
X157152943Y-89076551D01*
X157622328Y-88882606D01*
X157981763Y-88523797D01*
X158176528Y-88054752D01*
X158176971Y-87546877D01*
X157983026Y-87077492D01*
X157624217Y-86718057D01*
X157155172Y-86523292D01*
X156647297Y-86522849D01*
X156177912Y-86716794D01*
X155818477Y-87075603D01*
X155623712Y-87544648D01*
X155623269Y-88052523D01*
X152735925Y-88052523D01*
X152898690Y-87769216D01*
X152929879Y-87769243D01*
X153233946Y-87643605D01*
X153466788Y-87411170D01*
X153592956Y-87107322D01*
X153593243Y-86778321D01*
X153467605Y-86474254D01*
X153235170Y-86241412D01*
X152931322Y-86115244D01*
X152602321Y-86114957D01*
X152298254Y-86240595D01*
X152065412Y-86473030D01*
X151939244Y-86776878D01*
X151938957Y-87105879D01*
X151991361Y-87232706D01*
X147198968Y-95574327D01*
X149015907Y-88277703D01*
X149126746Y-88231905D01*
X149359588Y-87999470D01*
X149485756Y-87695622D01*
X149486043Y-87366621D01*
X149360405Y-87062554D01*
X149127970Y-86829712D01*
X148824122Y-86703544D01*
X148495121Y-86703257D01*
X148191054Y-86828895D01*
X147958212Y-87061330D01*
X147832044Y-87365178D01*
X147831757Y-87694179D01*
X147957395Y-87998246D01*
X147990940Y-88031850D01*
X146124393Y-95527697D01*
X146013554Y-95573495D01*
X145780712Y-95805930D01*
X145654544Y-96109778D01*
X145654257Y-96438779D01*
X145779895Y-96742846D01*
X146012330Y-96975688D01*
X146289860Y-97090928D01*
X144784116Y-99479511D01*
X144721921Y-99479457D01*
X144426599Y-99601482D01*
X144109714Y-96210269D01*
X144091138Y-96010424D01*
X144083492Y-95984712D01*
X144083570Y-95957888D01*
X144054406Y-95886898D01*
X144032529Y-95813328D01*
X144015625Y-95792499D01*
X144005432Y-95767687D01*
X143782333Y-95431688D01*
X143763474Y-95412719D01*
X143750879Y-95389121D01*
X143691523Y-95340348D01*
X143637357Y-95285867D01*
X143612674Y-95275559D01*
X143592008Y-95258578D01*
X143414908Y-95163778D01*
X143414906Y-95163777D01*
X136682534Y-91557646D01*
X136507010Y-91463494D01*
X136482204Y-91455929D01*
X136460668Y-91441469D01*
X136384566Y-91426154D01*
X136310327Y-91403514D01*
X136284512Y-91406018D01*
X136259084Y-91400901D01*
X135970034Y-91400251D01*
X140220000Y-87909093D01*
X140227378Y-87912156D01*
X140556379Y-87912443D01*
X140860446Y-87786805D01*
X141051853Y-87595733D01*
X141057395Y-87609146D01*
X141289830Y-87841988D01*
X141593678Y-87968156D01*
X141922679Y-87968443D01*
X142226746Y-87842805D01*
X142459588Y-87610370D01*
X142585756Y-87306522D01*
X142586043Y-86977521D01*
X142460405Y-86673454D01*
X142227970Y-86440612D01*
X141924122Y-86314444D01*
X141595121Y-86314157D01*
X141571539Y-86323901D01*
X141212479Y-86041800D01*
X141212402Y-86041761D01*
X141212347Y-86041697D01*
X141060148Y-85922197D01*
X141040905Y-85912440D01*
X141025580Y-85897247D01*
X140949787Y-85866238D01*
X140876751Y-85829205D01*
X140855235Y-85827554D01*
X140835267Y-85819385D01*
X140456666Y-85745784D01*
X140435325Y-85745877D01*
X140414993Y-85739401D01*
X140333171Y-85746320D01*
X140251043Y-85746677D01*
X140231361Y-85754930D01*
X140210099Y-85756728D01*
X140024199Y-85810328D01*
X140023967Y-85810448D01*
X140023708Y-85810470D01*
X132742517Y-87917481D01*
X132729870Y-87904812D01*
X132426022Y-87778644D01*
X132097021Y-87778357D01*
X131792954Y-87903995D01*
X131560112Y-88136430D01*
X131433944Y-88440278D01*
X131433657Y-88769279D01*
X131559295Y-89073346D01*
X131791730Y-89306188D01*
X132095578Y-89432356D01*
X132424579Y-89432643D01*
X132728646Y-89307005D01*
X132961488Y-89074570D01*
X133019637Y-88934531D01*
X139565639Y-87040268D01*
X139565602Y-87082633D01*
X135306000Y-90581707D01*
X135298622Y-90578644D01*
X134969621Y-90578357D01*
X134665554Y-90703995D01*
X134432712Y-90936430D01*
X134306544Y-91240278D01*
X134306257Y-91569279D01*
X134431895Y-91873346D01*
X134442655Y-91884125D01*
X130188145Y-93084515D01*
X130171970Y-93068312D01*
X129868122Y-92942144D01*
X129578904Y-92941892D01*
X129472905Y-92685354D01*
X129240470Y-92452512D01*
X128936622Y-92326344D01*
X128607621Y-92326057D01*
X128303554Y-92451695D01*
X128070712Y-92684130D01*
X127944544Y-92987978D01*
X127944512Y-93024349D01*
X117399436Y-99155142D01*
X117277822Y-99104644D01*
X116948821Y-99104357D01*
X116644754Y-99229995D01*
X116411912Y-99462430D01*
X116285744Y-99766278D01*
X116285457Y-100095279D01*
X116411095Y-100399346D01*
X116643530Y-100632188D01*
X116947378Y-100758356D01*
X117276379Y-100758643D01*
X117580446Y-100633005D01*
X117813288Y-100400570D01*
X117845257Y-100323579D01*
X125514957Y-100323579D01*
X125640595Y-100627646D01*
X125873030Y-100860488D01*
X126176878Y-100986656D01*
X126505879Y-100986943D01*
X126809946Y-100861305D01*
X127042788Y-100628870D01*
X127168956Y-100325022D01*
X127169242Y-99997053D01*
X130227665Y-96374793D01*
X130399979Y-96374943D01*
X130704046Y-96249305D01*
X130936888Y-96016870D01*
X131063056Y-95713022D01*
X131063343Y-95384021D01*
X130937705Y-95079954D01*
X130705270Y-94847112D01*
X130401422Y-94720944D01*
X130072421Y-94720657D01*
X129768354Y-94846295D01*
X129535512Y-95078730D01*
X129409344Y-95382578D01*
X129409058Y-95710547D01*
X126350636Y-99332807D01*
X126178321Y-99332657D01*
X125874254Y-99458295D01*
X125641412Y-99690730D01*
X125515244Y-99994578D01*
X125514957Y-100323579D01*
X117845257Y-100323579D01*
X117939456Y-100096722D01*
X117939488Y-100060351D01*
X128484563Y-93929558D01*
X128606178Y-93980056D01*
X128895396Y-93980308D01*
X129001395Y-94236846D01*
X129233830Y-94469688D01*
X129537678Y-94595856D01*
X129866679Y-94596143D01*
X130170746Y-94470505D01*
X130403588Y-94238070D01*
X130459648Y-94103062D01*
X135228874Y-92757448D01*
X135228757Y-92891279D01*
X135339273Y-93158748D01*
X134844062Y-98911498D01*
X134776712Y-98978730D01*
X134775261Y-98982224D01*
X131862427Y-100038174D01*
X131823820Y-100052132D01*
X131797824Y-100067831D01*
X131768320Y-100075028D01*
X131691620Y-100110728D01*
X131667108Y-100128675D01*
X131638348Y-100138462D01*
X131601348Y-100159862D01*
X131601099Y-100160081D01*
X131600785Y-100160188D01*
X129615943Y-101310728D01*
X129615943Y-101310721D01*
X129490305Y-101006654D01*
X129257870Y-100773812D01*
X128954022Y-100647644D01*
X128625021Y-100647357D01*
X128320954Y-100772995D01*
X128094041Y-100999512D01*
X125541381Y-101196360D01*
X125541254Y-101196396D01*
X125541122Y-101196380D01*
X125429023Y-101205080D01*
X125358457Y-101224899D01*
X125286094Y-101236556D01*
X125075294Y-101314956D01*
X125012767Y-101353499D01*
X124946272Y-101384718D01*
X124856207Y-101451119D01*
X124856206Y-101451119D01*
X123761007Y-102258019D01*
X123756133Y-102263363D01*
X123749670Y-102266610D01*
X123682170Y-102319210D01*
X123677524Y-102324589D01*
X123671258Y-102327948D01*
X122048408Y-103663235D01*
X122024201Y-103682010D01*
X110079924Y-112416673D01*
X109797904Y-112299568D01*
X109883248Y-112295230D01*
X110261723Y-112138460D01*
X110329712Y-111897517D01*
X109537800Y-111105605D01*
X108745888Y-111897517D01*
X108813877Y-112138460D01*
X109273051Y-112301876D01*
X108871954Y-112467606D01*
X108540570Y-112798412D01*
X108361005Y-113230853D01*
X108360596Y-113699093D01*
X108539406Y-114131846D01*
X108870212Y-114463230D01*
X109302653Y-114642795D01*
X109770893Y-114643204D01*
X110203646Y-114464394D01*
X110535030Y-114133588D01*
X110714595Y-113701147D01*
X110714982Y-113258025D01*
X117580378Y-108237468D01*
X113528494Y-111730004D01*
X113525671Y-111733618D01*
X113521709Y-111735931D01*
X113502510Y-111752931D01*
X113499657Y-111756686D01*
X113495615Y-111759120D01*
X110131809Y-114820635D01*
X108787800Y-114820635D01*
X108629563Y-114850409D01*
X108484233Y-114943927D01*
X108386736Y-115086619D01*
X108352435Y-115256000D01*
X105552000Y-115256000D01*
X105552000Y-110721171D01*
X108140599Y-110721171D01*
X108168570Y-111271448D01*
X108325340Y-111649923D01*
X108566283Y-111717912D01*
X109358195Y-110926000D01*
X109717405Y-110926000D01*
X110509317Y-111717912D01*
X110750260Y-111649923D01*
X110935001Y-111130829D01*
X110907030Y-110580552D01*
X110750260Y-110202077D01*
X110509317Y-110134088D01*
X109717405Y-110926000D01*
X109358195Y-110926000D01*
X108566283Y-110134088D01*
X108325340Y-110202077D01*
X108140599Y-110721171D01*
X105552000Y-110721171D01*
X105552000Y-108619093D01*
X108360596Y-108619093D01*
X108539406Y-109051846D01*
X108870212Y-109383230D01*
X109277696Y-109552432D01*
X109192352Y-109556770D01*
X108813877Y-109713540D01*
X108745888Y-109954483D01*
X109537800Y-110746395D01*
X110329712Y-109954483D01*
X110261723Y-109713540D01*
X109802549Y-109550124D01*
X110203646Y-109384394D01*
X110535030Y-109053588D01*
X110714595Y-108621147D01*
X110715004Y-108152907D01*
X110536194Y-107720154D01*
X110205388Y-107388770D01*
X109772947Y-107209205D01*
X109304707Y-107208796D01*
X108871954Y-107387606D01*
X108540570Y-107718412D01*
X108361005Y-108150853D01*
X108360596Y-108619093D01*
X105552000Y-108619093D01*
X105552000Y-102504913D01*
X107705992Y-102504913D01*
X107784817Y-102754990D01*
X108335897Y-102954477D01*
X108921369Y-102927889D01*
X109338783Y-102754990D01*
X109417608Y-102504913D01*
X108561800Y-101649105D01*
X107705992Y-102504913D01*
X105552000Y-102504913D01*
X105552000Y-101243597D01*
X107076823Y-101243597D01*
X107103411Y-101829069D01*
X107276310Y-102246483D01*
X107526387Y-102325308D01*
X108382195Y-101469500D01*
X108741405Y-101469500D01*
X109597213Y-102325308D01*
X109828235Y-102252489D01*
X109828235Y-102307700D01*
X109858009Y-102465937D01*
X109951527Y-102611267D01*
X110094219Y-102708764D01*
X110263600Y-102743065D01*
X111940000Y-102743065D01*
X112098237Y-102713291D01*
X112243567Y-102619773D01*
X112341064Y-102477081D01*
X112375365Y-102307700D01*
X112375365Y-100631300D01*
X112345591Y-100473063D01*
X112252073Y-100327733D01*
X112109381Y-100230236D01*
X111940000Y-100195935D01*
X110263600Y-100195935D01*
X110105363Y-100225709D01*
X109960033Y-100319227D01*
X109862536Y-100461919D01*
X109828235Y-100631300D01*
X109828235Y-100686511D01*
X109597213Y-100613692D01*
X108741405Y-101469500D01*
X108382195Y-101469500D01*
X107526387Y-100613692D01*
X107276310Y-100692517D01*
X107076823Y-101243597D01*
X105552000Y-101243597D01*
X105552000Y-100434087D01*
X107705992Y-100434087D01*
X108561800Y-101289895D01*
X109417608Y-100434087D01*
X109338783Y-100184010D01*
X108787703Y-99984523D01*
X108202231Y-100011111D01*
X107784817Y-100184010D01*
X107705992Y-100434087D01*
X105552000Y-100434087D01*
X105552000Y-95452000D01*
X110650000Y-95452000D01*
X110842107Y-95413788D01*
X111004968Y-95304968D01*
X111113788Y-95142107D01*
X111152000Y-94950000D01*
X111152000Y-89013679D01*
X111233557Y-89013679D01*
X111359195Y-89317746D01*
X111383700Y-89342294D01*
X111383700Y-92757383D01*
X111360012Y-92781030D01*
X111233844Y-93084878D01*
X111233557Y-93413879D01*
X111359195Y-93717946D01*
X111591630Y-93950788D01*
X111595779Y-93952511D01*
X112258769Y-95775434D01*
X112234044Y-95834978D01*
X112233757Y-96163979D01*
X112359395Y-96468046D01*
X112591830Y-96700888D01*
X112895678Y-96827056D01*
X113224679Y-96827343D01*
X113528746Y-96701705D01*
X113761588Y-96469270D01*
X113887756Y-96165422D01*
X113888043Y-95836421D01*
X113762405Y-95532354D01*
X113529970Y-95299512D01*
X113525821Y-95297789D01*
X112862831Y-93474866D01*
X112887556Y-93415322D01*
X112887843Y-93086321D01*
X112762205Y-92782254D01*
X112737700Y-92757706D01*
X112737700Y-89342617D01*
X112761388Y-89318970D01*
X112887556Y-89015122D01*
X112887843Y-88686121D01*
X112867520Y-88636937D01*
X113522042Y-86930933D01*
X113536146Y-86925105D01*
X113768988Y-86692670D01*
X113895156Y-86388822D01*
X113895443Y-86059821D01*
X113769805Y-85755754D01*
X113537370Y-85522912D01*
X113233522Y-85396744D01*
X112904521Y-85396457D01*
X112600454Y-85522095D01*
X112367612Y-85754530D01*
X112241444Y-86058378D01*
X112241157Y-86387379D01*
X112261479Y-86436563D01*
X111606958Y-88142567D01*
X111592854Y-88148395D01*
X111360012Y-88380830D01*
X111233844Y-88684678D01*
X111233557Y-89013679D01*
X111152000Y-89013679D01*
X111152000Y-87150000D01*
X111113788Y-86957893D01*
X111004968Y-86795032D01*
X110842107Y-86686212D01*
X110650000Y-86648000D01*
X105552000Y-86648000D01*
X105552000Y-80954593D01*
X108358696Y-80954593D01*
X108537506Y-81387346D01*
X108868312Y-81718730D01*
X109300753Y-81898295D01*
X109768993Y-81898704D01*
X109918585Y-81836894D01*
X112521404Y-84396268D01*
X112523644Y-84397738D01*
X112525175Y-84399940D01*
X112533475Y-84407940D01*
X112534486Y-84408589D01*
X112535175Y-84409571D01*
X117924753Y-89558056D01*
X117924557Y-89782979D01*
X118050195Y-90087046D01*
X118282630Y-90319888D01*
X118586478Y-90446056D01*
X118915479Y-90446343D01*
X119219546Y-90320705D01*
X119452388Y-90088270D01*
X119483369Y-90013659D01*
X119693530Y-90224188D01*
X119997378Y-90350356D01*
X120326379Y-90350643D01*
X120630446Y-90225005D01*
X120686004Y-90169544D01*
X120529356Y-93337871D01*
X120480912Y-93386230D01*
X120354744Y-93690078D01*
X120354457Y-94019079D01*
X120480095Y-94323146D01*
X120712530Y-94555988D01*
X121016378Y-94682156D01*
X121345379Y-94682443D01*
X121649446Y-94556805D01*
X121882288Y-94324370D01*
X122008456Y-94020522D01*
X122008743Y-93691521D01*
X121883105Y-93387454D01*
X121882584Y-93386932D01*
X122322687Y-84485503D01*
X122520703Y-84500314D01*
X122520809Y-84500301D01*
X122520914Y-84500330D01*
X122665915Y-84511130D01*
X122767558Y-84498667D01*
X122869909Y-84495320D01*
X123153010Y-84429320D01*
X123246170Y-84387113D01*
X123342736Y-84353422D01*
X123467936Y-84279721D01*
X123468041Y-84279628D01*
X123468177Y-84279580D01*
X124170977Y-83865479D01*
X124171228Y-83865255D01*
X124171550Y-83865142D01*
X124188680Y-83855026D01*
X124227307Y-83839500D01*
X124246673Y-83834965D01*
X124246919Y-83834853D01*
X124247186Y-83834844D01*
X130562100Y-82350736D01*
X130704478Y-82409856D01*
X131033479Y-82410143D01*
X131223083Y-82331800D01*
X140526435Y-82331800D01*
X140526435Y-84008200D01*
X140556209Y-84166437D01*
X140649727Y-84311767D01*
X140792419Y-84409264D01*
X140961800Y-84443565D01*
X142638200Y-84443565D01*
X142796437Y-84413791D01*
X142941767Y-84320273D01*
X143039264Y-84177581D01*
X143073565Y-84008200D01*
X143073565Y-82331800D01*
X144426435Y-82331800D01*
X144426435Y-84008200D01*
X144456209Y-84166437D01*
X144549727Y-84311767D01*
X144692419Y-84409264D01*
X144861800Y-84443565D01*
X146538200Y-84443565D01*
X146696437Y-84413791D01*
X146841767Y-84320273D01*
X146939264Y-84177581D01*
X146973565Y-84008200D01*
X146973565Y-82331800D01*
X146954749Y-82231800D01*
X148526435Y-82231800D01*
X148526435Y-83908200D01*
X148556209Y-84066437D01*
X148649727Y-84211767D01*
X148792419Y-84309264D01*
X148961800Y-84343565D01*
X150638200Y-84343565D01*
X150796437Y-84313791D01*
X150941767Y-84220273D01*
X151039264Y-84077581D01*
X151073565Y-83908200D01*
X151073565Y-82231800D01*
X151043791Y-82073563D01*
X150950273Y-81928233D01*
X150807581Y-81830736D01*
X150638200Y-81796435D01*
X150582989Y-81796435D01*
X150655808Y-81565413D01*
X149800000Y-80709605D01*
X148944192Y-81565413D01*
X149017011Y-81796435D01*
X148961800Y-81796435D01*
X148803563Y-81826209D01*
X148658233Y-81919727D01*
X148560736Y-82062419D01*
X148526435Y-82231800D01*
X146954749Y-82231800D01*
X146943791Y-82173563D01*
X146850273Y-82028233D01*
X146707581Y-81930736D01*
X146538200Y-81896435D01*
X146482989Y-81896435D01*
X146555808Y-81665413D01*
X145700000Y-80809605D01*
X144844192Y-81665413D01*
X144917011Y-81896435D01*
X144861800Y-81896435D01*
X144703563Y-81926209D01*
X144558233Y-82019727D01*
X144460736Y-82162419D01*
X144426435Y-82331800D01*
X143073565Y-82331800D01*
X143043791Y-82173563D01*
X142950273Y-82028233D01*
X142807581Y-81930736D01*
X142638200Y-81896435D01*
X142582989Y-81896435D01*
X142655808Y-81665413D01*
X141800000Y-80809605D01*
X140944192Y-81665413D01*
X141017011Y-81896435D01*
X140961800Y-81896435D01*
X140803563Y-81926209D01*
X140658233Y-82019727D01*
X140560736Y-82162419D01*
X140526435Y-82331800D01*
X131223083Y-82331800D01*
X131337546Y-82284505D01*
X131570388Y-82052070D01*
X131696556Y-81748222D01*
X131696843Y-81419221D01*
X131571205Y-81115154D01*
X131338770Y-80882312D01*
X131034922Y-80756144D01*
X130705921Y-80755857D01*
X130401854Y-80881495D01*
X130249854Y-81033229D01*
X123937531Y-82516728D01*
X123868327Y-82532935D01*
X123821146Y-82554368D01*
X123770219Y-82563942D01*
X123636119Y-82617842D01*
X123592977Y-82646016D01*
X123544351Y-82663058D01*
X123483339Y-82699087D01*
X122781064Y-83112878D01*
X122744933Y-83134147D01*
X122663279Y-83153183D01*
X122621486Y-83150070D01*
X122621485Y-83150070D01*
X122211235Y-83119384D01*
X122149870Y-83057912D01*
X121846022Y-82931744D01*
X121517021Y-82931457D01*
X121212954Y-83057095D01*
X120980112Y-83289530D01*
X120853944Y-83593378D01*
X120853657Y-83922379D01*
X120979295Y-84226446D01*
X120979816Y-84226968D01*
X120746883Y-88938226D01*
X120631670Y-88822812D01*
X120327822Y-88696644D01*
X120118420Y-88696461D01*
X114063995Y-82106500D01*
X114330150Y-82106500D01*
X114488900Y-81947750D01*
X114488900Y-80848500D01*
X114742900Y-80848500D01*
X114742900Y-81947750D01*
X114901650Y-82106500D01*
X115492209Y-82106500D01*
X115725598Y-82009827D01*
X115904227Y-81831199D01*
X116000900Y-81597810D01*
X116000900Y-81007250D01*
X115842150Y-80848500D01*
X114742900Y-80848500D01*
X114488900Y-80848500D01*
X114468900Y-80848500D01*
X114468900Y-80594500D01*
X114488900Y-80594500D01*
X114488900Y-79495250D01*
X114742900Y-79495250D01*
X114742900Y-80594500D01*
X115842150Y-80594500D01*
X116000900Y-80435750D01*
X116000900Y-80404097D01*
X140315023Y-80404097D01*
X140341611Y-80989569D01*
X140514510Y-81406983D01*
X140764587Y-81485808D01*
X141620395Y-80630000D01*
X141979605Y-80630000D01*
X142835413Y-81485808D01*
X143085490Y-81406983D01*
X143284977Y-80855903D01*
X143264460Y-80404097D01*
X144215023Y-80404097D01*
X144241611Y-80989569D01*
X144414510Y-81406983D01*
X144664587Y-81485808D01*
X145520395Y-80630000D01*
X145879605Y-80630000D01*
X146735413Y-81485808D01*
X146985490Y-81406983D01*
X147184977Y-80855903D01*
X147159918Y-80304097D01*
X148315023Y-80304097D01*
X148341611Y-80889569D01*
X148514510Y-81306983D01*
X148764587Y-81385808D01*
X149620395Y-80530000D01*
X149979605Y-80530000D01*
X150835413Y-81385808D01*
X151085490Y-81306983D01*
X151284977Y-80755903D01*
X151258389Y-80170431D01*
X151085490Y-79753017D01*
X150835413Y-79674192D01*
X149979605Y-80530000D01*
X149620395Y-80530000D01*
X148764587Y-79674192D01*
X148514510Y-79753017D01*
X148315023Y-80304097D01*
X147159918Y-80304097D01*
X147158389Y-80270431D01*
X146985490Y-79853017D01*
X146735413Y-79774192D01*
X145879605Y-80630000D01*
X145520395Y-80630000D01*
X144664587Y-79774192D01*
X144414510Y-79853017D01*
X144215023Y-80404097D01*
X143264460Y-80404097D01*
X143258389Y-80270431D01*
X143085490Y-79853017D01*
X142835413Y-79774192D01*
X141979605Y-80630000D01*
X141620395Y-80630000D01*
X140764587Y-79774192D01*
X140514510Y-79853017D01*
X140315023Y-80404097D01*
X116000900Y-80404097D01*
X116000900Y-79845190D01*
X115904227Y-79611801D01*
X115887013Y-79594587D01*
X140944192Y-79594587D01*
X141800000Y-80450395D01*
X142655808Y-79594587D01*
X144844192Y-79594587D01*
X145700000Y-80450395D01*
X146555808Y-79594587D01*
X146524288Y-79494587D01*
X148944192Y-79494587D01*
X149800000Y-80350395D01*
X150655808Y-79494587D01*
X150576983Y-79244510D01*
X150025903Y-79045023D01*
X149440431Y-79071611D01*
X149023017Y-79244510D01*
X148944192Y-79494587D01*
X146524288Y-79494587D01*
X146476983Y-79344510D01*
X145925903Y-79145023D01*
X145340431Y-79171611D01*
X144923017Y-79344510D01*
X144844192Y-79594587D01*
X142655808Y-79594587D01*
X142576983Y-79344510D01*
X142025903Y-79145023D01*
X141440431Y-79171611D01*
X141023017Y-79344510D01*
X140944192Y-79594587D01*
X115887013Y-79594587D01*
X115725598Y-79433173D01*
X115492209Y-79336500D01*
X114901650Y-79336500D01*
X114742900Y-79495250D01*
X114488900Y-79495250D01*
X114330150Y-79336500D01*
X113739591Y-79336500D01*
X113506202Y-79433173D01*
X113327573Y-79611801D01*
X113230900Y-79845190D01*
X113230900Y-80434669D01*
X113074294Y-80055654D01*
X112743488Y-79724270D01*
X112311047Y-79544705D01*
X111842807Y-79544296D01*
X111410054Y-79723106D01*
X111078670Y-80053912D01*
X110899105Y-80486353D01*
X110898696Y-80954593D01*
X111077506Y-81387346D01*
X111408312Y-81718730D01*
X111840753Y-81898295D01*
X112308993Y-81898704D01*
X112405249Y-81858932D01*
X118775100Y-88792220D01*
X118648820Y-88792110D01*
X113264001Y-83648170D01*
X113258490Y-83642858D01*
X110658765Y-81086526D01*
X110712695Y-80956647D01*
X110713104Y-80488407D01*
X110534294Y-80055654D01*
X110203488Y-79724270D01*
X109771047Y-79544705D01*
X109302807Y-79544296D01*
X108870054Y-79723106D01*
X108538670Y-80053912D01*
X108359105Y-80486353D01*
X108358696Y-80954593D01*
X105552000Y-80954593D01*
X105552000Y-78952000D01*
X165598000Y-78952000D01*
X165598000Y-98786740D01*
M02*
