G04 #@! TF.FileFunction,Copper,L2,Bot,Signal*
%FSLAX46Y46*%
G04 Gerber Fmt 4.6, Leading zero omitted, Abs format (unit mm)*
G04 Created by KiCad (PCBNEW 4.0.0-rc1-stable) date 26.11.2015 18:28:28*
%MOMM*%
G01*
G04 APERTURE LIST*
%ADD10C,0.100000*%
%ADD11R,0.800000X0.800000*%
%ADD12C,3.600000*%
%ADD13C,1.600000*%
%ADD14C,1.699260*%
%ADD15R,1.500000X1.500000*%
%ADD16C,1.500000*%
%ADD17R,1.676400X1.676400*%
%ADD18C,1.676400*%
%ADD19C,0.800000*%
%ADD20C,0.500000*%
%ADD21C,0.200000*%
%ADD22C,0.254000*%
G04 APERTURE END LIST*
D10*
D11*
X155900000Y-101150000D03*
X155100000Y-101150000D03*
X155900000Y-101950000D03*
X155100000Y-101950000D03*
X155900000Y-100350000D03*
X155100000Y-100350000D03*
D12*
X163400000Y-115550000D03*
X153400000Y-115550000D03*
D13*
X160900000Y-108550000D03*
X158400000Y-108550000D03*
X155900000Y-108550000D03*
D14*
X164299140Y-90200000D03*
X163900360Y-87799700D03*
X161898840Y-92600300D03*
X156900120Y-87799700D03*
X157900880Y-90200000D03*
D15*
X109537800Y-116006000D03*
D16*
X109537800Y-113466000D03*
X109537800Y-110926000D03*
X109537800Y-108386000D03*
D15*
X114615900Y-80721500D03*
D16*
X112075900Y-80721500D03*
X109535900Y-80721500D03*
D17*
X111101800Y-101469500D03*
D18*
X108561800Y-101469500D03*
D17*
X145700000Y-83170000D03*
D18*
X145700000Y-80630000D03*
D17*
X149800000Y-83070000D03*
D18*
X149800000Y-80530000D03*
D17*
X141800000Y-83170000D03*
D18*
X141800000Y-80630000D03*
D19*
X113068300Y-86223600D03*
X113060900Y-96000200D03*
X112060700Y-93250100D03*
X112060700Y-88849900D03*
X142788400Y-96333700D03*
X140697600Y-99272900D03*
X127736100Y-84186000D03*
X124309700Y-84100700D03*
X129278500Y-86175200D03*
X128631700Y-90518500D03*
X118698000Y-93614400D03*
X120444000Y-95971700D03*
X123630800Y-92119800D03*
X117921500Y-83007600D03*
X122642100Y-82877800D03*
X143012000Y-91299600D03*
X132416800Y-101567900D03*
X125022800Y-103970600D03*
X116491600Y-83934700D03*
X122979600Y-86565000D03*
X117076100Y-90305800D03*
X133266900Y-86798800D03*
X138293600Y-81830500D03*
X153549100Y-82648800D03*
X160387800Y-83642500D03*
X164187100Y-82298100D03*
X145190700Y-88727700D03*
X150743500Y-88377000D03*
X140339300Y-90831900D03*
X136306300Y-88610800D03*
X132799200Y-96969200D03*
X122395100Y-98664200D03*
X121869000Y-103457200D03*
X130110500Y-104509300D03*
X112224700Y-98956500D03*
X106204300Y-99190300D03*
X118056800Y-105566300D03*
X107590400Y-83527200D03*
X113451900Y-83450000D03*
X113654600Y-107988500D03*
X114590800Y-112962500D03*
X117185900Y-118050900D03*
X110113000Y-118966800D03*
X121680800Y-83758600D03*
X130869700Y-81583000D03*
X121181600Y-93855300D03*
X124378600Y-117953700D03*
X126950500Y-115544600D03*
X132452700Y-114724000D03*
X146485400Y-114342500D03*
X146673200Y-111828200D03*
X149933400Y-108893300D03*
X148768200Y-102348500D03*
X153997600Y-103050100D03*
X128331900Y-109609200D03*
X127861800Y-111621900D03*
X153687700Y-90238600D03*
X151404900Y-93260000D03*
X149524900Y-96684300D03*
X159059000Y-94737100D03*
X164094700Y-94737100D03*
X164833200Y-99101400D03*
X162483300Y-105278400D03*
X157514800Y-105211300D03*
X153083400Y-107359800D03*
X164094700Y-108971200D03*
X162147600Y-112664000D03*
X158521900Y-117095400D03*
X154493400Y-111656900D03*
X155030500Y-119579600D03*
X149122000Y-120049600D03*
X149904300Y-115023300D03*
X141216100Y-119940200D03*
X142034400Y-116374700D03*
X137299900Y-110938800D03*
X134085200Y-107840900D03*
X141683700Y-105912100D03*
X123856300Y-109769800D03*
X122979600Y-112517000D03*
X125083800Y-119297200D03*
X134377400Y-119180300D03*
X137640100Y-115128100D03*
X139206000Y-112986300D03*
X124797000Y-115072500D03*
X148317200Y-103351900D03*
X136055900Y-92727500D03*
X135477400Y-99447800D03*
X125643400Y-102519500D03*
X143149100Y-117987600D03*
X147587200Y-114689000D03*
X158358000Y-101747800D03*
X149905000Y-106391600D03*
X126342100Y-100159800D03*
X130236200Y-95547800D03*
X132260800Y-88605500D03*
X141758900Y-87141300D03*
X128771400Y-93153200D03*
X117112600Y-99931500D03*
X129702900Y-93769000D03*
X144257200Y-103453000D03*
X120162600Y-89523500D03*
X118751700Y-89619200D03*
X128788800Y-101474500D03*
X146481400Y-96275000D03*
X148658900Y-87530400D03*
X135133400Y-91405500D03*
X140392600Y-87085300D03*
X144885700Y-100306600D03*
X152766100Y-86942100D03*
D20*
X112060700Y-88849900D02*
X112060700Y-93250100D01*
X112060700Y-93250100D02*
X113060900Y-96000200D01*
X113068300Y-86223600D02*
X112060700Y-88849900D01*
X122395100Y-98664200D02*
X121869000Y-103457200D01*
X113654600Y-107988500D02*
X108561800Y-101469500D01*
X145190700Y-88727700D02*
X143012000Y-91299600D01*
X125022800Y-103970600D02*
X130110500Y-104509300D01*
X138293600Y-81830500D02*
X141800000Y-80630000D01*
X164187100Y-82298100D02*
X160387800Y-83642500D01*
X117076100Y-90305800D02*
X118698000Y-93614400D01*
X110003800Y-100146400D02*
X112224700Y-98956500D01*
X109913800Y-100205200D02*
X109887900Y-100229500D01*
X109972400Y-100163200D02*
X109913800Y-100205200D01*
X110003800Y-100146400D02*
X109972400Y-100163200D01*
X108561800Y-101469500D02*
X109887900Y-100229500D01*
X116491600Y-83934700D02*
X117921500Y-83007600D01*
X132416800Y-101567900D02*
X130110500Y-104509300D01*
X143163800Y-82169400D02*
X145190700Y-88727700D01*
X143082900Y-82001900D02*
X143040000Y-81956100D01*
X143145300Y-82109500D02*
X143082900Y-82001900D01*
X143163800Y-82169400D02*
X143145300Y-82109500D01*
X141800000Y-80630000D02*
X143040000Y-81956100D01*
X121751700Y-82811200D02*
X122642100Y-82877800D01*
X121660600Y-82808300D02*
X121630200Y-82809800D01*
X121721900Y-82809000D02*
X121660600Y-82808300D01*
X121751700Y-82811200D02*
X121721900Y-82809000D01*
X117921500Y-83007600D02*
X121630200Y-82809800D01*
X121948000Y-94416800D02*
X123630800Y-92119800D01*
X121928700Y-94443100D02*
X121948000Y-94416800D01*
X121884800Y-94495100D02*
X121928700Y-94443100D01*
X121861600Y-94518800D02*
X121884800Y-94495100D01*
X120444000Y-95971700D02*
X121861600Y-94518800D01*
X118698000Y-93614400D02*
X120444000Y-95971700D01*
X129278500Y-86175200D02*
X128631700Y-90518500D01*
X127736100Y-84186000D02*
X124309700Y-84100700D01*
X142788400Y-96333700D02*
X140697600Y-99272900D01*
X121181600Y-93855300D02*
X121680800Y-83758600D01*
X124092300Y-83175800D02*
X130869700Y-81583000D01*
X123888600Y-83246000D02*
X123827300Y-83282200D01*
X124022700Y-83192100D02*
X123888600Y-83246000D01*
X124092300Y-83175800D02*
X124022700Y-83192100D01*
X123124500Y-83696300D02*
X123827300Y-83282200D01*
X122999300Y-83770000D02*
X123124500Y-83696300D01*
X122716200Y-83836000D02*
X122999300Y-83770000D01*
X122571200Y-83825200D02*
X122716200Y-83836000D01*
X121680800Y-83758600D02*
X122571200Y-83825200D01*
X148768200Y-102348500D02*
X149895600Y-103724200D01*
X153083400Y-107359800D02*
X155900000Y-108550000D01*
X122979600Y-112517000D02*
X124378600Y-117953700D01*
X123856300Y-109769800D02*
X122979600Y-112517000D01*
X124378600Y-117953700D02*
X125083800Y-119297200D01*
X149933400Y-108893300D02*
X149118500Y-108651100D01*
X137640100Y-115128100D02*
X146485400Y-114342500D01*
X134377400Y-119180300D02*
X137640100Y-115128100D01*
X141683700Y-105912100D02*
X137299900Y-110938800D01*
X141216100Y-119940200D02*
X142034400Y-116374700D01*
X147428900Y-113752200D02*
X147140600Y-113800900D01*
X147601600Y-113723000D02*
X147428900Y-113752200D01*
X147945200Y-113791700D02*
X147601600Y-113723000D01*
X148092800Y-113884600D02*
X147945200Y-113791700D01*
X149904300Y-115023300D02*
X148092800Y-113884600D01*
X149122000Y-120049600D02*
X149904300Y-115023300D01*
X155030500Y-119579600D02*
X149122000Y-120049600D01*
X162147600Y-112664000D02*
X158521900Y-117095400D01*
X162483300Y-105278400D02*
X164094700Y-108971200D01*
X157514800Y-105211300D02*
X153083400Y-107359800D01*
X164094700Y-94737100D02*
X164833200Y-99101400D01*
X128331900Y-109609200D02*
X127861800Y-111621900D01*
X157900900Y-90200000D02*
X163900400Y-87799700D01*
X153997600Y-103050100D02*
X149895600Y-103724200D01*
X163900400Y-87799700D02*
X164299100Y-90200000D01*
X149016000Y-106056300D02*
X149895600Y-103724200D01*
X148949800Y-106358800D02*
X148957500Y-106461300D01*
X148979500Y-106152900D02*
X148949800Y-106358800D01*
X149016000Y-106056300D02*
X148979500Y-106152900D01*
X149118500Y-108651100D02*
X148957500Y-106461300D01*
X149933400Y-108893300D02*
X153083400Y-107359800D01*
X149118500Y-108651100D02*
X146673200Y-111828200D01*
X146673200Y-111828200D02*
X147140600Y-113800900D01*
X132452700Y-114724000D02*
X137640100Y-115128100D01*
X126950500Y-115544600D02*
X132452700Y-114724000D01*
X124378600Y-117953700D02*
X126950500Y-115544600D01*
X146485400Y-114342500D02*
X147140600Y-113800900D01*
X139206000Y-112986300D02*
X148317200Y-103351900D01*
X126734100Y-114619500D02*
X124797000Y-115072500D01*
X126753300Y-114615000D02*
X126734100Y-114619500D01*
X126790700Y-114607800D02*
X126753300Y-114615000D01*
X126810400Y-114604900D02*
X126790700Y-114607800D01*
X132312600Y-113784300D02*
X126810400Y-114604900D01*
X132343500Y-113780200D02*
X132312600Y-113784300D01*
X139206000Y-112986300D02*
X132343500Y-113780200D01*
X110037800Y-115506000D02*
X109537800Y-116006000D01*
X110287800Y-115506000D02*
X110037800Y-115506000D01*
X110421400Y-115472400D02*
X110456100Y-115440900D01*
X110334600Y-115506000D02*
X110421400Y-115472400D01*
X110287800Y-115506000D02*
X110334600Y-115506000D01*
X113951300Y-112259800D02*
X110456100Y-115440900D01*
X113970500Y-112242800D02*
X113951300Y-112259800D01*
X124402500Y-103250900D02*
X113970500Y-112242800D01*
X124436800Y-103221400D02*
X124402500Y-103250900D01*
X124511300Y-103168700D02*
X124436800Y-103221400D01*
X124550200Y-103146400D02*
X124511300Y-103168700D01*
X125643400Y-102519500D02*
X124550200Y-103146400D01*
X128817300Y-102424200D02*
X125643400Y-102519500D01*
X129163200Y-102355700D02*
X129265300Y-102296500D01*
X128935600Y-102420600D02*
X129163200Y-102355700D01*
X128817300Y-102424200D02*
X128935600Y-102420600D01*
X131940300Y-100745900D02*
X129265300Y-102296500D01*
X131977300Y-100724500D02*
X131940300Y-100745900D01*
X132054000Y-100688800D02*
X131977300Y-100724500D01*
X132093000Y-100674700D02*
X132054000Y-100688800D01*
X135477400Y-99447800D02*
X132093000Y-100674700D01*
X136055900Y-92727500D02*
X135477400Y-99447800D01*
D21*
X143149100Y-117987600D02*
X147587200Y-114689000D01*
X158358000Y-101747800D02*
X149905000Y-106391600D01*
X126342100Y-100159800D02*
X130236200Y-95547800D01*
X140886900Y-86456200D02*
X141758900Y-87141300D01*
X140356100Y-86263100D02*
X140170200Y-86316700D01*
X140734700Y-86336700D02*
X140356100Y-86263100D01*
X140886900Y-86456200D02*
X140734700Y-86336700D01*
X132260800Y-88605500D02*
X140170200Y-86316700D01*
X128771400Y-93153200D02*
X117112600Y-99931500D01*
X143585000Y-96259300D02*
X144257200Y-103453000D01*
X143343300Y-95723200D02*
X143166200Y-95628400D01*
X143566400Y-96059200D02*
X143343300Y-95723200D01*
X143585000Y-96259300D02*
X143566400Y-96059200D01*
X136433700Y-92022200D02*
X143166200Y-95628400D01*
X135857400Y-91927000D02*
X135680800Y-92020800D01*
X136257900Y-91927900D02*
X135857400Y-91927000D01*
X136433700Y-92022200D02*
X136257900Y-91927900D01*
X135508500Y-92112200D02*
X135680800Y-92020800D01*
X135470200Y-92132500D02*
X135508500Y-92112200D01*
X135391100Y-92164100D02*
X135470200Y-92132500D01*
X135350700Y-92175500D02*
X135391100Y-92164100D01*
X129702900Y-93769000D02*
X135350700Y-92175500D01*
X120162600Y-89523500D02*
X112075900Y-80721500D01*
X112890900Y-84020500D02*
X109535900Y-80721500D01*
X112890900Y-84020500D02*
X112899200Y-84028500D01*
X118751700Y-89619200D02*
X112899200Y-84028500D01*
X122341300Y-104103000D02*
X109537800Y-113466000D01*
X122341300Y-104103000D02*
X122377400Y-104075000D01*
X124006100Y-102734900D02*
X122377400Y-104075000D01*
X124073600Y-102682300D02*
X124006100Y-102734900D01*
X125168800Y-101875400D02*
X124073600Y-102682300D01*
X125259000Y-101808900D02*
X125168800Y-101875400D01*
X125469800Y-101730500D02*
X125259000Y-101808900D01*
X125581900Y-101721800D02*
X125469800Y-101730500D01*
X128788800Y-101474500D02*
X125581900Y-101721800D01*
X146481400Y-96275000D02*
X148658900Y-87530400D01*
X135133400Y-91405500D02*
X140392600Y-87085300D01*
X147175200Y-96673600D02*
X152766100Y-86942100D01*
X147158200Y-96701700D02*
X147175200Y-96673600D01*
X144885700Y-100306600D02*
X147158200Y-96701700D01*
D22*
G36*
X165598000Y-85873000D02*
X152000000Y-85873000D01*
X151964619Y-85878028D01*
X151932039Y-85892714D01*
X151897044Y-85925643D01*
X148393695Y-90776434D01*
X149015550Y-88279133D01*
X149033580Y-88272140D01*
X149170515Y-88185238D01*
X149287964Y-88073393D01*
X149381451Y-87940866D01*
X149447417Y-87792705D01*
X149483348Y-87634552D01*
X149485935Y-87449309D01*
X149454433Y-87290214D01*
X149392630Y-87140269D01*
X149302880Y-87005183D01*
X149188600Y-86890103D01*
X149054144Y-86799411D01*
X148904634Y-86736563D01*
X148745763Y-86703951D01*
X148583584Y-86702819D01*
X148424274Y-86733209D01*
X148273901Y-86793964D01*
X148138192Y-86882769D01*
X148022316Y-86996243D01*
X147930688Y-87130062D01*
X147866798Y-87279130D01*
X147833078Y-87437769D01*
X147830813Y-87599936D01*
X147860091Y-87759455D01*
X147919794Y-87910249D01*
X147992953Y-88023769D01*
X146735943Y-93071783D01*
X145397044Y-94925643D01*
X145380404Y-94957269D01*
X145373000Y-95000000D01*
X145373000Y-98545356D01*
X144780878Y-99484647D01*
X144651074Y-99509409D01*
X144500701Y-99570164D01*
X144428111Y-99617665D01*
X144109714Y-96210269D01*
X144091138Y-96010424D01*
X144086717Y-95987489D01*
X144084769Y-95964214D01*
X144077006Y-95937113D01*
X144071670Y-95909430D01*
X144062877Y-95887786D01*
X144056447Y-95865337D01*
X144043567Y-95840257D01*
X144032957Y-95814142D01*
X144020133Y-95794627D01*
X144009460Y-95773845D01*
X144005432Y-95767687D01*
X143782333Y-95431688D01*
X143767624Y-95413642D01*
X143754930Y-95394126D01*
X143735208Y-95373874D01*
X143717349Y-95351964D01*
X143699417Y-95337121D01*
X143683173Y-95320440D01*
X143659892Y-95304404D01*
X143638119Y-95286381D01*
X143617645Y-95275304D01*
X143598471Y-95262096D01*
X143592008Y-95258578D01*
X143414908Y-95163778D01*
X143414904Y-95163776D01*
X136682534Y-91557646D01*
X136507010Y-91463494D01*
X136486263Y-91454854D01*
X136466595Y-91443984D01*
X136438901Y-91435130D01*
X136412061Y-91423953D01*
X136390033Y-91419507D01*
X136368627Y-91412664D01*
X136339746Y-91409359D01*
X136311242Y-91403606D01*
X136288767Y-91403524D01*
X136266442Y-91400969D01*
X136259084Y-91400901D01*
X135970034Y-91400251D01*
X140234360Y-87897297D01*
X140294206Y-87910455D01*
X140456354Y-87913852D01*
X140616073Y-87885689D01*
X140767280Y-87827040D01*
X140904215Y-87740138D01*
X141021664Y-87628293D01*
X141056771Y-87578526D01*
X141107650Y-87657474D01*
X141220312Y-87774139D01*
X141353488Y-87866699D01*
X141502107Y-87931629D01*
X141660506Y-87966455D01*
X141822654Y-87969852D01*
X141982373Y-87941689D01*
X142133580Y-87883040D01*
X142270515Y-87796138D01*
X142387964Y-87684293D01*
X142481451Y-87551766D01*
X142547417Y-87403605D01*
X142583348Y-87245452D01*
X142585935Y-87060209D01*
X142554433Y-86901114D01*
X142492630Y-86751169D01*
X142402880Y-86616083D01*
X142288600Y-86501003D01*
X142154144Y-86410311D01*
X142004634Y-86347463D01*
X141845763Y-86314851D01*
X141683584Y-86313719D01*
X141583001Y-86332906D01*
X141212479Y-86041800D01*
X141212466Y-86041791D01*
X141212347Y-86041697D01*
X141060148Y-85922197D01*
X141044855Y-85912441D01*
X141030926Y-85900835D01*
X141001602Y-85884846D01*
X140973438Y-85866878D01*
X140956548Y-85860280D01*
X140940625Y-85851598D01*
X140908752Y-85841609D01*
X140877637Y-85829454D01*
X140859783Y-85826262D01*
X140842480Y-85820839D01*
X140835267Y-85819385D01*
X140456666Y-85745784D01*
X140438842Y-85744099D01*
X140421387Y-85740160D01*
X140387767Y-85739270D01*
X140354270Y-85736103D01*
X140336461Y-85737912D01*
X140318570Y-85737438D01*
X140285408Y-85743097D01*
X140251945Y-85746495D01*
X140234834Y-85751726D01*
X140217183Y-85754738D01*
X140210099Y-85756728D01*
X140024199Y-85810328D01*
X140024168Y-85810340D01*
X140023708Y-85810470D01*
X132726584Y-87922091D01*
X132656044Y-87874511D01*
X132506534Y-87811663D01*
X132347663Y-87779051D01*
X132185484Y-87777919D01*
X132026174Y-87808309D01*
X131875801Y-87869064D01*
X131740092Y-87957869D01*
X131624216Y-88071343D01*
X131532588Y-88205162D01*
X131468698Y-88354230D01*
X131434978Y-88512869D01*
X131432713Y-88675036D01*
X131461991Y-88834555D01*
X131521694Y-88985349D01*
X131609550Y-89121674D01*
X131722212Y-89238339D01*
X131855388Y-89330899D01*
X132004007Y-89395829D01*
X132162406Y-89430655D01*
X132324554Y-89434052D01*
X132484273Y-89405889D01*
X132635480Y-89347240D01*
X132772415Y-89260338D01*
X132889864Y-89148493D01*
X132983351Y-89015966D01*
X133019604Y-88934541D01*
X139566115Y-87040130D01*
X139565521Y-87082700D01*
X135291446Y-90593663D01*
X135220263Y-90579051D01*
X135058084Y-90577919D01*
X134898774Y-90608309D01*
X134748401Y-90669064D01*
X134612692Y-90757869D01*
X134496816Y-90871343D01*
X134405188Y-91005162D01*
X134341298Y-91154230D01*
X134307578Y-91312869D01*
X134305313Y-91475036D01*
X134334591Y-91634555D01*
X134394294Y-91785349D01*
X134455598Y-91880474D01*
X130173299Y-93088704D01*
X130098144Y-93038011D01*
X129948634Y-92975163D01*
X129789763Y-92942551D01*
X129627584Y-92941419D01*
X129574560Y-92951534D01*
X129566933Y-92913014D01*
X129505130Y-92763069D01*
X129415380Y-92627983D01*
X129301100Y-92512903D01*
X129166644Y-92422211D01*
X129017134Y-92359363D01*
X128858263Y-92326751D01*
X128696084Y-92325619D01*
X128536774Y-92356009D01*
X128386401Y-92416764D01*
X128250692Y-92505569D01*
X128134816Y-92619043D01*
X128043188Y-92752862D01*
X127979298Y-92901930D01*
X127954513Y-93018535D01*
X117399637Y-99155025D01*
X117358334Y-99137663D01*
X117199463Y-99105051D01*
X117037284Y-99103919D01*
X116877974Y-99134309D01*
X116727601Y-99195064D01*
X116591892Y-99283869D01*
X116476016Y-99397343D01*
X116384388Y-99531162D01*
X116320498Y-99680230D01*
X116286778Y-99838869D01*
X116284513Y-100001036D01*
X116313791Y-100160555D01*
X116373494Y-100311349D01*
X116461350Y-100447674D01*
X116574012Y-100564339D01*
X116707188Y-100656899D01*
X116855807Y-100721829D01*
X117014206Y-100756655D01*
X117176354Y-100760052D01*
X117336073Y-100731889D01*
X117487280Y-100673240D01*
X117624215Y-100586338D01*
X117741664Y-100474493D01*
X117835151Y-100341966D01*
X117885297Y-100229336D01*
X125514013Y-100229336D01*
X125543291Y-100388855D01*
X125602994Y-100539649D01*
X125690850Y-100675974D01*
X125803512Y-100792639D01*
X125936688Y-100885199D01*
X126085307Y-100950129D01*
X126243706Y-100984955D01*
X126405854Y-100988352D01*
X126565573Y-100960189D01*
X126716780Y-100901540D01*
X126853715Y-100814638D01*
X126971164Y-100702793D01*
X127064651Y-100570266D01*
X127130617Y-100422105D01*
X127166548Y-100263952D01*
X127169135Y-100078709D01*
X127156058Y-100012667D01*
X130227628Y-96374837D01*
X130299954Y-96376352D01*
X130459673Y-96348189D01*
X130610880Y-96289540D01*
X130747815Y-96202638D01*
X130865264Y-96090793D01*
X130958751Y-95958266D01*
X131024717Y-95810105D01*
X131060648Y-95651952D01*
X131063235Y-95466709D01*
X131031733Y-95307614D01*
X130969930Y-95157669D01*
X130880180Y-95022583D01*
X130765900Y-94907503D01*
X130631444Y-94816811D01*
X130481934Y-94753963D01*
X130323063Y-94721351D01*
X130160884Y-94720219D01*
X130001574Y-94750609D01*
X129851201Y-94811364D01*
X129715492Y-94900169D01*
X129599616Y-95013643D01*
X129507988Y-95147462D01*
X129444098Y-95296530D01*
X129410378Y-95455169D01*
X129408113Y-95617336D01*
X129422335Y-95694823D01*
X126350638Y-99332804D01*
X126266784Y-99332219D01*
X126107474Y-99362609D01*
X125957101Y-99423364D01*
X125821392Y-99512169D01*
X125705516Y-99625643D01*
X125613888Y-99759462D01*
X125549998Y-99908530D01*
X125516278Y-100067169D01*
X125514013Y-100229336D01*
X117885297Y-100229336D01*
X117901117Y-100193805D01*
X117930211Y-100065744D01*
X128483733Y-93930040D01*
X128514607Y-93943529D01*
X128673006Y-93978355D01*
X128835154Y-93981752D01*
X128899031Y-93970489D01*
X128904091Y-93998055D01*
X128963794Y-94148849D01*
X129051650Y-94285174D01*
X129164312Y-94401839D01*
X129297488Y-94494399D01*
X129446107Y-94559329D01*
X129604506Y-94594155D01*
X129766654Y-94597552D01*
X129926373Y-94569389D01*
X130077580Y-94510740D01*
X130214515Y-94423838D01*
X130331964Y-94311993D01*
X130425451Y-94179466D01*
X130459443Y-94103120D01*
X135228364Y-92757592D01*
X135227813Y-92797036D01*
X135257091Y-92956555D01*
X135316794Y-93107349D01*
X135340527Y-93144176D01*
X134844159Y-98910369D01*
X134840816Y-98913643D01*
X134799997Y-98973257D01*
X131862427Y-100038174D01*
X131823820Y-100052132D01*
X131800939Y-100063034D01*
X131776917Y-100071100D01*
X131768320Y-100075028D01*
X131691620Y-100110728D01*
X131669787Y-100123619D01*
X131646563Y-100133787D01*
X131638348Y-100138462D01*
X131601348Y-100159862D01*
X131601315Y-100159886D01*
X131600785Y-100160188D01*
X129601160Y-101319297D01*
X129584333Y-101234314D01*
X129522530Y-101084369D01*
X129432780Y-100949283D01*
X129318500Y-100834203D01*
X129184044Y-100743511D01*
X129034534Y-100680663D01*
X128875663Y-100648051D01*
X128713484Y-100646919D01*
X128554174Y-100677309D01*
X128403801Y-100738064D01*
X128268092Y-100826869D01*
X128152216Y-100940343D01*
X128112687Y-100998074D01*
X125541381Y-101196360D01*
X125541365Y-101196363D01*
X125541122Y-101196380D01*
X125429023Y-101205080D01*
X125411042Y-101208263D01*
X125392805Y-101209155D01*
X125360516Y-101217206D01*
X125327744Y-101223007D01*
X125310724Y-101229622D01*
X125293008Y-101234039D01*
X125286094Y-101236556D01*
X125075294Y-101314956D01*
X125058739Y-101323031D01*
X125041298Y-101328968D01*
X125012616Y-101345527D01*
X124982851Y-101360045D01*
X124968178Y-101371183D01*
X124952225Y-101380393D01*
X124946272Y-101384718D01*
X124856225Y-101451105D01*
X124856206Y-101451119D01*
X123761007Y-102258019D01*
X123758448Y-102260322D01*
X123755505Y-102262127D01*
X123749670Y-102266610D01*
X123682170Y-102319210D01*
X123679763Y-102321496D01*
X123676972Y-102323312D01*
X123671258Y-102327948D01*
X122048408Y-103663235D01*
X122024201Y-103682010D01*
X120395573Y-104873000D01*
X118000000Y-104873000D01*
X117964619Y-104878028D01*
X117932039Y-104892714D01*
X117904840Y-104915895D01*
X117885177Y-104945736D01*
X117874605Y-104979873D01*
X117873000Y-105000000D01*
X117873000Y-106717718D01*
X110079578Y-112416926D01*
X109887532Y-112336197D01*
X109661425Y-112289784D01*
X109430609Y-112288173D01*
X109203876Y-112331424D01*
X108989862Y-112417891D01*
X108796719Y-112544281D01*
X108631803Y-112705778D01*
X108501396Y-112896232D01*
X108410466Y-113108389D01*
X108362476Y-113334166D01*
X108359253Y-113564965D01*
X108400921Y-113791995D01*
X108485892Y-114006607D01*
X108610930Y-114200628D01*
X108771272Y-114366668D01*
X108960811Y-114498401D01*
X109172327Y-114590810D01*
X109397764Y-114640375D01*
X109628535Y-114645209D01*
X109855850Y-114605128D01*
X110071051Y-114521657D01*
X110265940Y-114397976D01*
X110433094Y-114238797D01*
X110566147Y-114050183D01*
X110660031Y-113839317D01*
X110711169Y-113614231D01*
X110714850Y-113350589D01*
X110698857Y-113269818D01*
X117580378Y-108237468D01*
X113528494Y-111730004D01*
X113528470Y-111730030D01*
X113521709Y-111735931D01*
X113502510Y-111752931D01*
X113502501Y-111752941D01*
X113495615Y-111759120D01*
X110124888Y-114826934D01*
X108787800Y-114826934D01*
X108719802Y-114832356D01*
X108604470Y-114868073D01*
X108503654Y-114934506D01*
X108425337Y-115026395D01*
X108375721Y-115136465D01*
X108358734Y-115256000D01*
X108358734Y-116756000D01*
X108364156Y-116823998D01*
X108399873Y-116939330D01*
X108466306Y-117040146D01*
X108558195Y-117118463D01*
X108668265Y-117168079D01*
X108787800Y-117185066D01*
X110287800Y-117185066D01*
X110355798Y-117179644D01*
X110471130Y-117143927D01*
X110571946Y-117077494D01*
X110650263Y-116985605D01*
X110699879Y-116875535D01*
X110716866Y-116756000D01*
X110716866Y-116078142D01*
X110762277Y-116057320D01*
X110772503Y-116049936D01*
X110783768Y-116044255D01*
X110825991Y-116011313D01*
X110869397Y-115979970D01*
X110876440Y-115973666D01*
X110911140Y-115942166D01*
X110911179Y-115942123D01*
X110911785Y-115941579D01*
X114403581Y-112763578D01*
X114415901Y-112752669D01*
X117873000Y-109772810D01*
X117873000Y-121898000D01*
X105552000Y-121898000D01*
X105552000Y-111771292D01*
X108872113Y-111771292D01*
X108949395Y-111951936D01*
X109160851Y-112047015D01*
X109386792Y-112099014D01*
X109618538Y-112105936D01*
X109847180Y-112067512D01*
X110063933Y-111985221D01*
X110126205Y-111951936D01*
X110203487Y-111771292D01*
X109537800Y-111105605D01*
X108872113Y-111771292D01*
X105552000Y-111771292D01*
X105552000Y-111006738D01*
X108357864Y-111006738D01*
X108396288Y-111235380D01*
X108478579Y-111452133D01*
X108511864Y-111514405D01*
X108692508Y-111591687D01*
X109358195Y-110926000D01*
X109717405Y-110926000D01*
X110383092Y-111591687D01*
X110563736Y-111514405D01*
X110658815Y-111302949D01*
X110710814Y-111077008D01*
X110717736Y-110845262D01*
X110679312Y-110616620D01*
X110597021Y-110399867D01*
X110563736Y-110337595D01*
X110383092Y-110260313D01*
X109717405Y-110926000D01*
X109358195Y-110926000D01*
X108692508Y-110260313D01*
X108511864Y-110337595D01*
X108416785Y-110549051D01*
X108364786Y-110774992D01*
X108357864Y-111006738D01*
X105552000Y-111006738D01*
X105552000Y-110080708D01*
X108872113Y-110080708D01*
X109537800Y-110746395D01*
X110203487Y-110080708D01*
X110126205Y-109900064D01*
X109914749Y-109804985D01*
X109688808Y-109752986D01*
X109457062Y-109746064D01*
X109228420Y-109784488D01*
X109011667Y-109866779D01*
X108949395Y-109900064D01*
X108872113Y-110080708D01*
X105552000Y-110080708D01*
X105552000Y-108484965D01*
X108359253Y-108484965D01*
X108400921Y-108711995D01*
X108485892Y-108926607D01*
X108610930Y-109120628D01*
X108771272Y-109286668D01*
X108960811Y-109418401D01*
X109172327Y-109510810D01*
X109397764Y-109560375D01*
X109628535Y-109565209D01*
X109855850Y-109525128D01*
X110071051Y-109441657D01*
X110265940Y-109317976D01*
X110433094Y-109158797D01*
X110566147Y-108970183D01*
X110660031Y-108759317D01*
X110711169Y-108534231D01*
X110714850Y-108270589D01*
X110670017Y-108044164D01*
X110582058Y-107830758D01*
X110454323Y-107638502D01*
X110291678Y-107474718D01*
X110100318Y-107345644D01*
X109887532Y-107256197D01*
X109661425Y-107209784D01*
X109430609Y-107208173D01*
X109203876Y-107251424D01*
X108989862Y-107337891D01*
X108796719Y-107464281D01*
X108631803Y-107625778D01*
X108501396Y-107816232D01*
X108410466Y-108028389D01*
X108362476Y-108254166D01*
X108359253Y-108484965D01*
X105552000Y-108484965D01*
X105552000Y-102377868D01*
X107833037Y-102377868D01*
X107921018Y-102567525D01*
X108147545Y-102671437D01*
X108389991Y-102729159D01*
X108639039Y-102738473D01*
X108885120Y-102699021D01*
X109118775Y-102612320D01*
X109202582Y-102567525D01*
X109290563Y-102377868D01*
X108561800Y-101649105D01*
X107833037Y-102377868D01*
X105552000Y-102377868D01*
X105552000Y-101546739D01*
X107292827Y-101546739D01*
X107332279Y-101792820D01*
X107418980Y-102026475D01*
X107463775Y-102110282D01*
X107653432Y-102198263D01*
X108382195Y-101469500D01*
X108741405Y-101469500D01*
X109470168Y-102198263D01*
X109659825Y-102110282D01*
X109763737Y-101883755D01*
X109821459Y-101641309D01*
X109830773Y-101392261D01*
X109791321Y-101146180D01*
X109704620Y-100912525D01*
X109659825Y-100828718D01*
X109470168Y-100740737D01*
X108741405Y-101469500D01*
X108382195Y-101469500D01*
X107653432Y-100740737D01*
X107463775Y-100828718D01*
X107359863Y-101055245D01*
X107302141Y-101297691D01*
X107292827Y-101546739D01*
X105552000Y-101546739D01*
X105552000Y-100561132D01*
X107833037Y-100561132D01*
X108561800Y-101289895D01*
X109220395Y-100631300D01*
X109834534Y-100631300D01*
X109834534Y-102307700D01*
X109839956Y-102375698D01*
X109875673Y-102491030D01*
X109942106Y-102591846D01*
X110033995Y-102670163D01*
X110144065Y-102719779D01*
X110263600Y-102736766D01*
X111940000Y-102736766D01*
X112007998Y-102731344D01*
X112123330Y-102695627D01*
X112224146Y-102629194D01*
X112302463Y-102537305D01*
X112352079Y-102427235D01*
X112369066Y-102307700D01*
X112369066Y-100631300D01*
X112363644Y-100563302D01*
X112327927Y-100447970D01*
X112261494Y-100347154D01*
X112169605Y-100268837D01*
X112059535Y-100219221D01*
X111940000Y-100202234D01*
X110263600Y-100202234D01*
X110195602Y-100207656D01*
X110080270Y-100243373D01*
X109979454Y-100309806D01*
X109901137Y-100401695D01*
X109851521Y-100511765D01*
X109834534Y-100631300D01*
X109220395Y-100631300D01*
X109290563Y-100561132D01*
X109202582Y-100371475D01*
X108976055Y-100267563D01*
X108733609Y-100209841D01*
X108484561Y-100200527D01*
X108238480Y-100239979D01*
X108004825Y-100326680D01*
X107921018Y-100371475D01*
X107833037Y-100561132D01*
X105552000Y-100561132D01*
X105552000Y-95452000D01*
X110650000Y-95452000D01*
X110696990Y-95447392D01*
X110744065Y-95443108D01*
X110745755Y-95442611D01*
X110747506Y-95442439D01*
X110792724Y-95428787D01*
X110838053Y-95415446D01*
X110839613Y-95414630D01*
X110841297Y-95414122D01*
X110882957Y-95391971D01*
X110924877Y-95370056D01*
X110926251Y-95368951D01*
X110927803Y-95368126D01*
X110964407Y-95338273D01*
X111001231Y-95308665D01*
X111002361Y-95307318D01*
X111003726Y-95306205D01*
X111033871Y-95269766D01*
X111064207Y-95233613D01*
X111065054Y-95232073D01*
X111066177Y-95230715D01*
X111088649Y-95189153D01*
X111111406Y-95147759D01*
X111111939Y-95146080D01*
X111112775Y-95144533D01*
X111126741Y-95099415D01*
X111141030Y-95054372D01*
X111141226Y-95052624D01*
X111141747Y-95050941D01*
X111146690Y-95003914D01*
X111151951Y-94957009D01*
X111151975Y-94953632D01*
X111151988Y-94953505D01*
X111151976Y-94953377D01*
X111152000Y-94950000D01*
X111152000Y-88919436D01*
X111232613Y-88919436D01*
X111261891Y-89078955D01*
X111321594Y-89229749D01*
X111383700Y-89326118D01*
X111383700Y-92774969D01*
X111332488Y-92849762D01*
X111268598Y-92998830D01*
X111234878Y-93157469D01*
X111232613Y-93319636D01*
X111261891Y-93479155D01*
X111321594Y-93629949D01*
X111409450Y-93766274D01*
X111522112Y-93882939D01*
X111586837Y-93927924D01*
X112261543Y-95783062D01*
X112235078Y-95907569D01*
X112232813Y-96069736D01*
X112262091Y-96229255D01*
X112321794Y-96380049D01*
X112409650Y-96516374D01*
X112522312Y-96633039D01*
X112655488Y-96725599D01*
X112804107Y-96790529D01*
X112962506Y-96825355D01*
X113124654Y-96828752D01*
X113284373Y-96800589D01*
X113435580Y-96741940D01*
X113572515Y-96655038D01*
X113689964Y-96543193D01*
X113783451Y-96410666D01*
X113849417Y-96262505D01*
X113885348Y-96104352D01*
X113887935Y-95919109D01*
X113856433Y-95760014D01*
X113794630Y-95610069D01*
X113704880Y-95474983D01*
X113590600Y-95359903D01*
X113534698Y-95322196D01*
X112859701Y-93466259D01*
X112885148Y-93354252D01*
X112887735Y-93169009D01*
X112856233Y-93009914D01*
X112794430Y-92859969D01*
X112737700Y-92774583D01*
X112737700Y-89324939D01*
X112783251Y-89260366D01*
X112849217Y-89112205D01*
X112885148Y-88954052D01*
X112887735Y-88768809D01*
X112863631Y-88647075D01*
X113530038Y-86910091D01*
X113579915Y-86878438D01*
X113697364Y-86766593D01*
X113790851Y-86634066D01*
X113856817Y-86485905D01*
X113892748Y-86327752D01*
X113895335Y-86142509D01*
X113863833Y-85983414D01*
X113802030Y-85833469D01*
X113712280Y-85698383D01*
X113598000Y-85583303D01*
X113463544Y-85492611D01*
X113314034Y-85429763D01*
X113155163Y-85397151D01*
X112992984Y-85396019D01*
X112833674Y-85426409D01*
X112683301Y-85487164D01*
X112547592Y-85575969D01*
X112431716Y-85689443D01*
X112340088Y-85823262D01*
X112276198Y-85972330D01*
X112242478Y-86130969D01*
X112240213Y-86293136D01*
X112264901Y-86427645D01*
X111598823Y-88163771D01*
X111539992Y-88202269D01*
X111424116Y-88315743D01*
X111332488Y-88449562D01*
X111268598Y-88598630D01*
X111234878Y-88757269D01*
X111232613Y-88919436D01*
X111152000Y-88919436D01*
X111152000Y-87150000D01*
X111147392Y-87103010D01*
X111143108Y-87055935D01*
X111142611Y-87054245D01*
X111142439Y-87052494D01*
X111128787Y-87007276D01*
X111115446Y-86961947D01*
X111114630Y-86960387D01*
X111114122Y-86958703D01*
X111091971Y-86917043D01*
X111070056Y-86875123D01*
X111068951Y-86873749D01*
X111068126Y-86872197D01*
X111038273Y-86835593D01*
X111008665Y-86798769D01*
X111007318Y-86797639D01*
X111006205Y-86796274D01*
X110969766Y-86766129D01*
X110933613Y-86735793D01*
X110932073Y-86734946D01*
X110930715Y-86733823D01*
X110889153Y-86711351D01*
X110847759Y-86688594D01*
X110846080Y-86688061D01*
X110844533Y-86687225D01*
X110799415Y-86673259D01*
X110754372Y-86658970D01*
X110752624Y-86658774D01*
X110750941Y-86658253D01*
X110703914Y-86653310D01*
X110657009Y-86648049D01*
X110653632Y-86648025D01*
X110653505Y-86648012D01*
X110653377Y-86648024D01*
X110650000Y-86648000D01*
X105552000Y-86648000D01*
X105552000Y-80820465D01*
X108357353Y-80820465D01*
X108399021Y-81047495D01*
X108483992Y-81262107D01*
X108609030Y-81456128D01*
X108769372Y-81622168D01*
X108958911Y-81753901D01*
X109170427Y-81846310D01*
X109395864Y-81895875D01*
X109626635Y-81900709D01*
X109853950Y-81860628D01*
X109917610Y-81835936D01*
X112521404Y-84396268D01*
X112521485Y-84396333D01*
X112525175Y-84399940D01*
X112533475Y-84407940D01*
X112533563Y-84408010D01*
X112535175Y-84409571D01*
X117925429Y-89558702D01*
X117923613Y-89688736D01*
X117952891Y-89848255D01*
X118012594Y-89999049D01*
X118100450Y-90135374D01*
X118213112Y-90252039D01*
X118346288Y-90344599D01*
X118494907Y-90409529D01*
X118653306Y-90444355D01*
X118815454Y-90447752D01*
X118975173Y-90419589D01*
X119126380Y-90360940D01*
X119263315Y-90274038D01*
X119380764Y-90162193D01*
X119474251Y-90029666D01*
X119486774Y-90001539D01*
X119511350Y-90039674D01*
X119624012Y-90156339D01*
X119757188Y-90248899D01*
X119905807Y-90313829D01*
X120064206Y-90348655D01*
X120226354Y-90352052D01*
X120386073Y-90323889D01*
X120537280Y-90265240D01*
X120674215Y-90178338D01*
X120686130Y-90166991D01*
X120529028Y-93344492D01*
X120453388Y-93454962D01*
X120389498Y-93604030D01*
X120355778Y-93762669D01*
X120353513Y-93924836D01*
X120382791Y-94084355D01*
X120442494Y-94235149D01*
X120530350Y-94371474D01*
X120643012Y-94488139D01*
X120776188Y-94580699D01*
X120924807Y-94645629D01*
X121083206Y-94680455D01*
X121245354Y-94683852D01*
X121405073Y-94655689D01*
X121556280Y-94597040D01*
X121693215Y-94510138D01*
X121810664Y-94398293D01*
X121904151Y-94265766D01*
X121970117Y-94117605D01*
X122006048Y-93959452D01*
X122008635Y-93774209D01*
X121977133Y-93615114D01*
X121915330Y-93465169D01*
X121881252Y-93413877D01*
X122322687Y-84485503D01*
X122520703Y-84500314D01*
X122520714Y-84500314D01*
X122520914Y-84500330D01*
X122665915Y-84511130D01*
X122697737Y-84510386D01*
X122729470Y-84512870D01*
X122763618Y-84508844D01*
X122798006Y-84508040D01*
X122829086Y-84501127D01*
X122860689Y-84497401D01*
X122869909Y-84495320D01*
X123153010Y-84429320D01*
X123183032Y-84419145D01*
X123213931Y-84412077D01*
X123245445Y-84397991D01*
X123278145Y-84386908D01*
X123305622Y-84371093D01*
X123334557Y-84358160D01*
X123342736Y-84353422D01*
X123467936Y-84279721D01*
X123467945Y-84279715D01*
X123468177Y-84279580D01*
X124170977Y-83865479D01*
X124171004Y-83865459D01*
X124171550Y-83865142D01*
X124188680Y-83855026D01*
X124227307Y-83839500D01*
X124246673Y-83834965D01*
X124246711Y-83834952D01*
X124247186Y-83834844D01*
X130561511Y-82350875D01*
X130612907Y-82373329D01*
X130771306Y-82408155D01*
X130933454Y-82411552D01*
X131093173Y-82383389D01*
X131226178Y-82331800D01*
X140532734Y-82331800D01*
X140532734Y-84008200D01*
X140538156Y-84076198D01*
X140573873Y-84191530D01*
X140640306Y-84292346D01*
X140732195Y-84370663D01*
X140842265Y-84420279D01*
X140961800Y-84437266D01*
X142638200Y-84437266D01*
X142706198Y-84431844D01*
X142821530Y-84396127D01*
X142922346Y-84329694D01*
X143000663Y-84237805D01*
X143050279Y-84127735D01*
X143067266Y-84008200D01*
X143067266Y-82331800D01*
X144432734Y-82331800D01*
X144432734Y-84008200D01*
X144438156Y-84076198D01*
X144473873Y-84191530D01*
X144540306Y-84292346D01*
X144632195Y-84370663D01*
X144742265Y-84420279D01*
X144861800Y-84437266D01*
X146538200Y-84437266D01*
X146606198Y-84431844D01*
X146721530Y-84396127D01*
X146822346Y-84329694D01*
X146900663Y-84237805D01*
X146950279Y-84127735D01*
X146967266Y-84008200D01*
X146967266Y-82331800D01*
X146961844Y-82263802D01*
X146951934Y-82231800D01*
X148532734Y-82231800D01*
X148532734Y-83908200D01*
X148538156Y-83976198D01*
X148573873Y-84091530D01*
X148640306Y-84192346D01*
X148732195Y-84270663D01*
X148842265Y-84320279D01*
X148961800Y-84337266D01*
X150638200Y-84337266D01*
X150706198Y-84331844D01*
X150821530Y-84296127D01*
X150922346Y-84229694D01*
X151000663Y-84137805D01*
X151050279Y-84027735D01*
X151067266Y-83908200D01*
X151067266Y-82231800D01*
X151061844Y-82163802D01*
X151026127Y-82048470D01*
X150959694Y-81947654D01*
X150867805Y-81869337D01*
X150757735Y-81819721D01*
X150638200Y-81802734D01*
X148961800Y-81802734D01*
X148893802Y-81808156D01*
X148778470Y-81843873D01*
X148677654Y-81910306D01*
X148599337Y-82002195D01*
X148549721Y-82112265D01*
X148532734Y-82231800D01*
X146951934Y-82231800D01*
X146926127Y-82148470D01*
X146859694Y-82047654D01*
X146767805Y-81969337D01*
X146657735Y-81919721D01*
X146538200Y-81902734D01*
X144861800Y-81902734D01*
X144793802Y-81908156D01*
X144678470Y-81943873D01*
X144577654Y-82010306D01*
X144499337Y-82102195D01*
X144449721Y-82212265D01*
X144432734Y-82331800D01*
X143067266Y-82331800D01*
X143061844Y-82263802D01*
X143026127Y-82148470D01*
X142959694Y-82047654D01*
X142867805Y-81969337D01*
X142757735Y-81919721D01*
X142638200Y-81902734D01*
X140961800Y-81902734D01*
X140893802Y-81908156D01*
X140778470Y-81943873D01*
X140677654Y-82010306D01*
X140599337Y-82102195D01*
X140549721Y-82212265D01*
X140532734Y-82331800D01*
X131226178Y-82331800D01*
X131244380Y-82324740D01*
X131381315Y-82237838D01*
X131498764Y-82125993D01*
X131592251Y-81993466D01*
X131658217Y-81845305D01*
X131694148Y-81687152D01*
X131696225Y-81538368D01*
X141071237Y-81538368D01*
X141159218Y-81728025D01*
X141385745Y-81831937D01*
X141628191Y-81889659D01*
X141877239Y-81898973D01*
X142123320Y-81859521D01*
X142356975Y-81772820D01*
X142440782Y-81728025D01*
X142528763Y-81538368D01*
X144971237Y-81538368D01*
X145059218Y-81728025D01*
X145285745Y-81831937D01*
X145528191Y-81889659D01*
X145777239Y-81898973D01*
X146023320Y-81859521D01*
X146256975Y-81772820D01*
X146340782Y-81728025D01*
X146428763Y-81538368D01*
X146328763Y-81438368D01*
X149071237Y-81438368D01*
X149159218Y-81628025D01*
X149385745Y-81731937D01*
X149628191Y-81789659D01*
X149877239Y-81798973D01*
X150123320Y-81759521D01*
X150356975Y-81672820D01*
X150440782Y-81628025D01*
X150528763Y-81438368D01*
X149800000Y-80709605D01*
X149071237Y-81438368D01*
X146328763Y-81438368D01*
X145700000Y-80809605D01*
X144971237Y-81538368D01*
X142528763Y-81538368D01*
X141800000Y-80809605D01*
X141071237Y-81538368D01*
X131696225Y-81538368D01*
X131696735Y-81501909D01*
X131665233Y-81342814D01*
X131603430Y-81192869D01*
X131513680Y-81057783D01*
X131399400Y-80942703D01*
X131264944Y-80852011D01*
X131115434Y-80789163D01*
X130956563Y-80756551D01*
X130794384Y-80755419D01*
X130635074Y-80785809D01*
X130484701Y-80846564D01*
X130348992Y-80935369D01*
X130248810Y-81033475D01*
X123937531Y-82516728D01*
X123868327Y-82532935D01*
X123824058Y-82547989D01*
X123779014Y-82560478D01*
X123770219Y-82563942D01*
X123636119Y-82617842D01*
X123594905Y-82639294D01*
X123552523Y-82658309D01*
X123544351Y-82663058D01*
X123483339Y-82699087D01*
X122781064Y-83112878D01*
X122744933Y-83134147D01*
X122663279Y-83153183D01*
X122621486Y-83150070D01*
X122621484Y-83150070D01*
X122211601Y-83119412D01*
X122210500Y-83118303D01*
X122076044Y-83027611D01*
X121926534Y-82964763D01*
X121767663Y-82932151D01*
X121605484Y-82931019D01*
X121446174Y-82961409D01*
X121295801Y-83022164D01*
X121160092Y-83110969D01*
X121044216Y-83224443D01*
X120952588Y-83358262D01*
X120888698Y-83507330D01*
X120854978Y-83665969D01*
X120852713Y-83828136D01*
X120881991Y-83987655D01*
X120941694Y-84138449D01*
X120981165Y-84199695D01*
X120746885Y-88938170D01*
X120692300Y-88883203D01*
X120557844Y-88792511D01*
X120408334Y-88729663D01*
X120249463Y-88697051D01*
X120118119Y-88696134D01*
X113872899Y-81898500D01*
X114382150Y-81898500D01*
X114488900Y-81791750D01*
X114488900Y-80848500D01*
X114742900Y-80848500D01*
X114742900Y-81791750D01*
X114849650Y-81898500D01*
X115407956Y-81898500D01*
X115490451Y-81882091D01*
X115568161Y-81849902D01*
X115638097Y-81803172D01*
X115697573Y-81743697D01*
X115744303Y-81673760D01*
X115776491Y-81596051D01*
X115792900Y-81513556D01*
X115792900Y-80955250D01*
X115686150Y-80848500D01*
X114742900Y-80848500D01*
X114488900Y-80848500D01*
X113545650Y-80848500D01*
X113438900Y-80955250D01*
X113438900Y-81426112D01*
X113177369Y-81141448D01*
X113198131Y-81094817D01*
X113249269Y-80869731D01*
X113251537Y-80707239D01*
X140531027Y-80707239D01*
X140570479Y-80953320D01*
X140657180Y-81186975D01*
X140701975Y-81270782D01*
X140891632Y-81358763D01*
X141620395Y-80630000D01*
X141979605Y-80630000D01*
X142708368Y-81358763D01*
X142898025Y-81270782D01*
X143001937Y-81044255D01*
X143059659Y-80801809D01*
X143063195Y-80707239D01*
X144431027Y-80707239D01*
X144470479Y-80953320D01*
X144557180Y-81186975D01*
X144601975Y-81270782D01*
X144791632Y-81358763D01*
X145520395Y-80630000D01*
X145879605Y-80630000D01*
X146608368Y-81358763D01*
X146798025Y-81270782D01*
X146901937Y-81044255D01*
X146959659Y-80801809D01*
X146966935Y-80607239D01*
X148531027Y-80607239D01*
X148570479Y-80853320D01*
X148657180Y-81086975D01*
X148701975Y-81170782D01*
X148891632Y-81258763D01*
X149620395Y-80530000D01*
X149979605Y-80530000D01*
X150708368Y-81258763D01*
X150898025Y-81170782D01*
X151001937Y-80944255D01*
X151059659Y-80701809D01*
X151068973Y-80452761D01*
X151029521Y-80206680D01*
X150942820Y-79973025D01*
X150898025Y-79889218D01*
X150708368Y-79801237D01*
X149979605Y-80530000D01*
X149620395Y-80530000D01*
X148891632Y-79801237D01*
X148701975Y-79889218D01*
X148598063Y-80115745D01*
X148540341Y-80358191D01*
X148531027Y-80607239D01*
X146966935Y-80607239D01*
X146968973Y-80552761D01*
X146929521Y-80306680D01*
X146842820Y-80073025D01*
X146798025Y-79989218D01*
X146608368Y-79901237D01*
X145879605Y-80630000D01*
X145520395Y-80630000D01*
X144791632Y-79901237D01*
X144601975Y-79989218D01*
X144498063Y-80215745D01*
X144440341Y-80458191D01*
X144431027Y-80707239D01*
X143063195Y-80707239D01*
X143068973Y-80552761D01*
X143029521Y-80306680D01*
X142942820Y-80073025D01*
X142898025Y-79989218D01*
X142708368Y-79901237D01*
X141979605Y-80630000D01*
X141620395Y-80630000D01*
X140891632Y-79901237D01*
X140701975Y-79989218D01*
X140598063Y-80215745D01*
X140540341Y-80458191D01*
X140531027Y-80707239D01*
X113251537Y-80707239D01*
X113252950Y-80606089D01*
X113208117Y-80379664D01*
X113120158Y-80166258D01*
X112992423Y-79974002D01*
X112948175Y-79929444D01*
X113438900Y-79929444D01*
X113438900Y-80487750D01*
X113545650Y-80594500D01*
X114488900Y-80594500D01*
X114488900Y-79651250D01*
X114742900Y-79651250D01*
X114742900Y-80594500D01*
X115686150Y-80594500D01*
X115792900Y-80487750D01*
X115792900Y-79929444D01*
X115776491Y-79846949D01*
X115744303Y-79769240D01*
X115712493Y-79721632D01*
X141071237Y-79721632D01*
X141800000Y-80450395D01*
X142528763Y-79721632D01*
X144971237Y-79721632D01*
X145700000Y-80450395D01*
X146428763Y-79721632D01*
X146382374Y-79621632D01*
X149071237Y-79621632D01*
X149800000Y-80350395D01*
X150528763Y-79621632D01*
X150440782Y-79431975D01*
X150214255Y-79328063D01*
X149971809Y-79270341D01*
X149722761Y-79261027D01*
X149476680Y-79300479D01*
X149243025Y-79387180D01*
X149159218Y-79431975D01*
X149071237Y-79621632D01*
X146382374Y-79621632D01*
X146340782Y-79531975D01*
X146114255Y-79428063D01*
X145871809Y-79370341D01*
X145622761Y-79361027D01*
X145376680Y-79400479D01*
X145143025Y-79487180D01*
X145059218Y-79531975D01*
X144971237Y-79721632D01*
X142528763Y-79721632D01*
X142440782Y-79531975D01*
X142214255Y-79428063D01*
X141971809Y-79370341D01*
X141722761Y-79361027D01*
X141476680Y-79400479D01*
X141243025Y-79487180D01*
X141159218Y-79531975D01*
X141071237Y-79721632D01*
X115712493Y-79721632D01*
X115697573Y-79699303D01*
X115638097Y-79639828D01*
X115568161Y-79593098D01*
X115490451Y-79560909D01*
X115407956Y-79544500D01*
X114849650Y-79544500D01*
X114742900Y-79651250D01*
X114488900Y-79651250D01*
X114382150Y-79544500D01*
X113823844Y-79544500D01*
X113741349Y-79560909D01*
X113663639Y-79593098D01*
X113593703Y-79639828D01*
X113534227Y-79699303D01*
X113487497Y-79769240D01*
X113455309Y-79846949D01*
X113438900Y-79929444D01*
X112948175Y-79929444D01*
X112829778Y-79810218D01*
X112638418Y-79681144D01*
X112425632Y-79591697D01*
X112199525Y-79545284D01*
X111968709Y-79543673D01*
X111741976Y-79586924D01*
X111527962Y-79673391D01*
X111334819Y-79799781D01*
X111169903Y-79961278D01*
X111039496Y-80151732D01*
X110948566Y-80363889D01*
X110900576Y-80589666D01*
X110897353Y-80820465D01*
X110939021Y-81047495D01*
X111023992Y-81262107D01*
X111149030Y-81456128D01*
X111309372Y-81622168D01*
X111498911Y-81753901D01*
X111710427Y-81846310D01*
X111935864Y-81895875D01*
X112166635Y-81900709D01*
X112393950Y-81860628D01*
X112403430Y-81856951D01*
X118775181Y-88792309D01*
X118676384Y-88791619D01*
X118652980Y-88796084D01*
X113264001Y-83648170D01*
X113258490Y-83642858D01*
X110659786Y-81087531D01*
X110709269Y-80869731D01*
X110712950Y-80606089D01*
X110668117Y-80379664D01*
X110580158Y-80166258D01*
X110452423Y-79974002D01*
X110289778Y-79810218D01*
X110098418Y-79681144D01*
X109885632Y-79591697D01*
X109659525Y-79545284D01*
X109428709Y-79543673D01*
X109201976Y-79586924D01*
X108987962Y-79673391D01*
X108794819Y-79799781D01*
X108629903Y-79961278D01*
X108499496Y-80151732D01*
X108408566Y-80363889D01*
X108360576Y-80589666D01*
X108357353Y-80820465D01*
X105552000Y-80820465D01*
X105552000Y-78952000D01*
X165598000Y-78952000D01*
X165598000Y-85873000D01*
X165598000Y-85873000D01*
G37*
X165598000Y-85873000D02*
X152000000Y-85873000D01*
X151964619Y-85878028D01*
X151932039Y-85892714D01*
X151897044Y-85925643D01*
X148393695Y-90776434D01*
X149015550Y-88279133D01*
X149033580Y-88272140D01*
X149170515Y-88185238D01*
X149287964Y-88073393D01*
X149381451Y-87940866D01*
X149447417Y-87792705D01*
X149483348Y-87634552D01*
X149485935Y-87449309D01*
X149454433Y-87290214D01*
X149392630Y-87140269D01*
X149302880Y-87005183D01*
X149188600Y-86890103D01*
X149054144Y-86799411D01*
X148904634Y-86736563D01*
X148745763Y-86703951D01*
X148583584Y-86702819D01*
X148424274Y-86733209D01*
X148273901Y-86793964D01*
X148138192Y-86882769D01*
X148022316Y-86996243D01*
X147930688Y-87130062D01*
X147866798Y-87279130D01*
X147833078Y-87437769D01*
X147830813Y-87599936D01*
X147860091Y-87759455D01*
X147919794Y-87910249D01*
X147992953Y-88023769D01*
X146735943Y-93071783D01*
X145397044Y-94925643D01*
X145380404Y-94957269D01*
X145373000Y-95000000D01*
X145373000Y-98545356D01*
X144780878Y-99484647D01*
X144651074Y-99509409D01*
X144500701Y-99570164D01*
X144428111Y-99617665D01*
X144109714Y-96210269D01*
X144091138Y-96010424D01*
X144086717Y-95987489D01*
X144084769Y-95964214D01*
X144077006Y-95937113D01*
X144071670Y-95909430D01*
X144062877Y-95887786D01*
X144056447Y-95865337D01*
X144043567Y-95840257D01*
X144032957Y-95814142D01*
X144020133Y-95794627D01*
X144009460Y-95773845D01*
X144005432Y-95767687D01*
X143782333Y-95431688D01*
X143767624Y-95413642D01*
X143754930Y-95394126D01*
X143735208Y-95373874D01*
X143717349Y-95351964D01*
X143699417Y-95337121D01*
X143683173Y-95320440D01*
X143659892Y-95304404D01*
X143638119Y-95286381D01*
X143617645Y-95275304D01*
X143598471Y-95262096D01*
X143592008Y-95258578D01*
X143414908Y-95163778D01*
X143414904Y-95163776D01*
X136682534Y-91557646D01*
X136507010Y-91463494D01*
X136486263Y-91454854D01*
X136466595Y-91443984D01*
X136438901Y-91435130D01*
X136412061Y-91423953D01*
X136390033Y-91419507D01*
X136368627Y-91412664D01*
X136339746Y-91409359D01*
X136311242Y-91403606D01*
X136288767Y-91403524D01*
X136266442Y-91400969D01*
X136259084Y-91400901D01*
X135970034Y-91400251D01*
X140234360Y-87897297D01*
X140294206Y-87910455D01*
X140456354Y-87913852D01*
X140616073Y-87885689D01*
X140767280Y-87827040D01*
X140904215Y-87740138D01*
X141021664Y-87628293D01*
X141056771Y-87578526D01*
X141107650Y-87657474D01*
X141220312Y-87774139D01*
X141353488Y-87866699D01*
X141502107Y-87931629D01*
X141660506Y-87966455D01*
X141822654Y-87969852D01*
X141982373Y-87941689D01*
X142133580Y-87883040D01*
X142270515Y-87796138D01*
X142387964Y-87684293D01*
X142481451Y-87551766D01*
X142547417Y-87403605D01*
X142583348Y-87245452D01*
X142585935Y-87060209D01*
X142554433Y-86901114D01*
X142492630Y-86751169D01*
X142402880Y-86616083D01*
X142288600Y-86501003D01*
X142154144Y-86410311D01*
X142004634Y-86347463D01*
X141845763Y-86314851D01*
X141683584Y-86313719D01*
X141583001Y-86332906D01*
X141212479Y-86041800D01*
X141212466Y-86041791D01*
X141212347Y-86041697D01*
X141060148Y-85922197D01*
X141044855Y-85912441D01*
X141030926Y-85900835D01*
X141001602Y-85884846D01*
X140973438Y-85866878D01*
X140956548Y-85860280D01*
X140940625Y-85851598D01*
X140908752Y-85841609D01*
X140877637Y-85829454D01*
X140859783Y-85826262D01*
X140842480Y-85820839D01*
X140835267Y-85819385D01*
X140456666Y-85745784D01*
X140438842Y-85744099D01*
X140421387Y-85740160D01*
X140387767Y-85739270D01*
X140354270Y-85736103D01*
X140336461Y-85737912D01*
X140318570Y-85737438D01*
X140285408Y-85743097D01*
X140251945Y-85746495D01*
X140234834Y-85751726D01*
X140217183Y-85754738D01*
X140210099Y-85756728D01*
X140024199Y-85810328D01*
X140024168Y-85810340D01*
X140023708Y-85810470D01*
X132726584Y-87922091D01*
X132656044Y-87874511D01*
X132506534Y-87811663D01*
X132347663Y-87779051D01*
X132185484Y-87777919D01*
X132026174Y-87808309D01*
X131875801Y-87869064D01*
X131740092Y-87957869D01*
X131624216Y-88071343D01*
X131532588Y-88205162D01*
X131468698Y-88354230D01*
X131434978Y-88512869D01*
X131432713Y-88675036D01*
X131461991Y-88834555D01*
X131521694Y-88985349D01*
X131609550Y-89121674D01*
X131722212Y-89238339D01*
X131855388Y-89330899D01*
X132004007Y-89395829D01*
X132162406Y-89430655D01*
X132324554Y-89434052D01*
X132484273Y-89405889D01*
X132635480Y-89347240D01*
X132772415Y-89260338D01*
X132889864Y-89148493D01*
X132983351Y-89015966D01*
X133019604Y-88934541D01*
X139566115Y-87040130D01*
X139565521Y-87082700D01*
X135291446Y-90593663D01*
X135220263Y-90579051D01*
X135058084Y-90577919D01*
X134898774Y-90608309D01*
X134748401Y-90669064D01*
X134612692Y-90757869D01*
X134496816Y-90871343D01*
X134405188Y-91005162D01*
X134341298Y-91154230D01*
X134307578Y-91312869D01*
X134305313Y-91475036D01*
X134334591Y-91634555D01*
X134394294Y-91785349D01*
X134455598Y-91880474D01*
X130173299Y-93088704D01*
X130098144Y-93038011D01*
X129948634Y-92975163D01*
X129789763Y-92942551D01*
X129627584Y-92941419D01*
X129574560Y-92951534D01*
X129566933Y-92913014D01*
X129505130Y-92763069D01*
X129415380Y-92627983D01*
X129301100Y-92512903D01*
X129166644Y-92422211D01*
X129017134Y-92359363D01*
X128858263Y-92326751D01*
X128696084Y-92325619D01*
X128536774Y-92356009D01*
X128386401Y-92416764D01*
X128250692Y-92505569D01*
X128134816Y-92619043D01*
X128043188Y-92752862D01*
X127979298Y-92901930D01*
X127954513Y-93018535D01*
X117399637Y-99155025D01*
X117358334Y-99137663D01*
X117199463Y-99105051D01*
X117037284Y-99103919D01*
X116877974Y-99134309D01*
X116727601Y-99195064D01*
X116591892Y-99283869D01*
X116476016Y-99397343D01*
X116384388Y-99531162D01*
X116320498Y-99680230D01*
X116286778Y-99838869D01*
X116284513Y-100001036D01*
X116313791Y-100160555D01*
X116373494Y-100311349D01*
X116461350Y-100447674D01*
X116574012Y-100564339D01*
X116707188Y-100656899D01*
X116855807Y-100721829D01*
X117014206Y-100756655D01*
X117176354Y-100760052D01*
X117336073Y-100731889D01*
X117487280Y-100673240D01*
X117624215Y-100586338D01*
X117741664Y-100474493D01*
X117835151Y-100341966D01*
X117885297Y-100229336D01*
X125514013Y-100229336D01*
X125543291Y-100388855D01*
X125602994Y-100539649D01*
X125690850Y-100675974D01*
X125803512Y-100792639D01*
X125936688Y-100885199D01*
X126085307Y-100950129D01*
X126243706Y-100984955D01*
X126405854Y-100988352D01*
X126565573Y-100960189D01*
X126716780Y-100901540D01*
X126853715Y-100814638D01*
X126971164Y-100702793D01*
X127064651Y-100570266D01*
X127130617Y-100422105D01*
X127166548Y-100263952D01*
X127169135Y-100078709D01*
X127156058Y-100012667D01*
X130227628Y-96374837D01*
X130299954Y-96376352D01*
X130459673Y-96348189D01*
X130610880Y-96289540D01*
X130747815Y-96202638D01*
X130865264Y-96090793D01*
X130958751Y-95958266D01*
X131024717Y-95810105D01*
X131060648Y-95651952D01*
X131063235Y-95466709D01*
X131031733Y-95307614D01*
X130969930Y-95157669D01*
X130880180Y-95022583D01*
X130765900Y-94907503D01*
X130631444Y-94816811D01*
X130481934Y-94753963D01*
X130323063Y-94721351D01*
X130160884Y-94720219D01*
X130001574Y-94750609D01*
X129851201Y-94811364D01*
X129715492Y-94900169D01*
X129599616Y-95013643D01*
X129507988Y-95147462D01*
X129444098Y-95296530D01*
X129410378Y-95455169D01*
X129408113Y-95617336D01*
X129422335Y-95694823D01*
X126350638Y-99332804D01*
X126266784Y-99332219D01*
X126107474Y-99362609D01*
X125957101Y-99423364D01*
X125821392Y-99512169D01*
X125705516Y-99625643D01*
X125613888Y-99759462D01*
X125549998Y-99908530D01*
X125516278Y-100067169D01*
X125514013Y-100229336D01*
X117885297Y-100229336D01*
X117901117Y-100193805D01*
X117930211Y-100065744D01*
X128483733Y-93930040D01*
X128514607Y-93943529D01*
X128673006Y-93978355D01*
X128835154Y-93981752D01*
X128899031Y-93970489D01*
X128904091Y-93998055D01*
X128963794Y-94148849D01*
X129051650Y-94285174D01*
X129164312Y-94401839D01*
X129297488Y-94494399D01*
X129446107Y-94559329D01*
X129604506Y-94594155D01*
X129766654Y-94597552D01*
X129926373Y-94569389D01*
X130077580Y-94510740D01*
X130214515Y-94423838D01*
X130331964Y-94311993D01*
X130425451Y-94179466D01*
X130459443Y-94103120D01*
X135228364Y-92757592D01*
X135227813Y-92797036D01*
X135257091Y-92956555D01*
X135316794Y-93107349D01*
X135340527Y-93144176D01*
X134844159Y-98910369D01*
X134840816Y-98913643D01*
X134799997Y-98973257D01*
X131862427Y-100038174D01*
X131823820Y-100052132D01*
X131800939Y-100063034D01*
X131776917Y-100071100D01*
X131768320Y-100075028D01*
X131691620Y-100110728D01*
X131669787Y-100123619D01*
X131646563Y-100133787D01*
X131638348Y-100138462D01*
X131601348Y-100159862D01*
X131601315Y-100159886D01*
X131600785Y-100160188D01*
X129601160Y-101319297D01*
X129584333Y-101234314D01*
X129522530Y-101084369D01*
X129432780Y-100949283D01*
X129318500Y-100834203D01*
X129184044Y-100743511D01*
X129034534Y-100680663D01*
X128875663Y-100648051D01*
X128713484Y-100646919D01*
X128554174Y-100677309D01*
X128403801Y-100738064D01*
X128268092Y-100826869D01*
X128152216Y-100940343D01*
X128112687Y-100998074D01*
X125541381Y-101196360D01*
X125541365Y-101196363D01*
X125541122Y-101196380D01*
X125429023Y-101205080D01*
X125411042Y-101208263D01*
X125392805Y-101209155D01*
X125360516Y-101217206D01*
X125327744Y-101223007D01*
X125310724Y-101229622D01*
X125293008Y-101234039D01*
X125286094Y-101236556D01*
X125075294Y-101314956D01*
X125058739Y-101323031D01*
X125041298Y-101328968D01*
X125012616Y-101345527D01*
X124982851Y-101360045D01*
X124968178Y-101371183D01*
X124952225Y-101380393D01*
X124946272Y-101384718D01*
X124856225Y-101451105D01*
X124856206Y-101451119D01*
X123761007Y-102258019D01*
X123758448Y-102260322D01*
X123755505Y-102262127D01*
X123749670Y-102266610D01*
X123682170Y-102319210D01*
X123679763Y-102321496D01*
X123676972Y-102323312D01*
X123671258Y-102327948D01*
X122048408Y-103663235D01*
X122024201Y-103682010D01*
X120395573Y-104873000D01*
X118000000Y-104873000D01*
X117964619Y-104878028D01*
X117932039Y-104892714D01*
X117904840Y-104915895D01*
X117885177Y-104945736D01*
X117874605Y-104979873D01*
X117873000Y-105000000D01*
X117873000Y-106717718D01*
X110079578Y-112416926D01*
X109887532Y-112336197D01*
X109661425Y-112289784D01*
X109430609Y-112288173D01*
X109203876Y-112331424D01*
X108989862Y-112417891D01*
X108796719Y-112544281D01*
X108631803Y-112705778D01*
X108501396Y-112896232D01*
X108410466Y-113108389D01*
X108362476Y-113334166D01*
X108359253Y-113564965D01*
X108400921Y-113791995D01*
X108485892Y-114006607D01*
X108610930Y-114200628D01*
X108771272Y-114366668D01*
X108960811Y-114498401D01*
X109172327Y-114590810D01*
X109397764Y-114640375D01*
X109628535Y-114645209D01*
X109855850Y-114605128D01*
X110071051Y-114521657D01*
X110265940Y-114397976D01*
X110433094Y-114238797D01*
X110566147Y-114050183D01*
X110660031Y-113839317D01*
X110711169Y-113614231D01*
X110714850Y-113350589D01*
X110698857Y-113269818D01*
X117580378Y-108237468D01*
X113528494Y-111730004D01*
X113528470Y-111730030D01*
X113521709Y-111735931D01*
X113502510Y-111752931D01*
X113502501Y-111752941D01*
X113495615Y-111759120D01*
X110124888Y-114826934D01*
X108787800Y-114826934D01*
X108719802Y-114832356D01*
X108604470Y-114868073D01*
X108503654Y-114934506D01*
X108425337Y-115026395D01*
X108375721Y-115136465D01*
X108358734Y-115256000D01*
X108358734Y-116756000D01*
X108364156Y-116823998D01*
X108399873Y-116939330D01*
X108466306Y-117040146D01*
X108558195Y-117118463D01*
X108668265Y-117168079D01*
X108787800Y-117185066D01*
X110287800Y-117185066D01*
X110355798Y-117179644D01*
X110471130Y-117143927D01*
X110571946Y-117077494D01*
X110650263Y-116985605D01*
X110699879Y-116875535D01*
X110716866Y-116756000D01*
X110716866Y-116078142D01*
X110762277Y-116057320D01*
X110772503Y-116049936D01*
X110783768Y-116044255D01*
X110825991Y-116011313D01*
X110869397Y-115979970D01*
X110876440Y-115973666D01*
X110911140Y-115942166D01*
X110911179Y-115942123D01*
X110911785Y-115941579D01*
X114403581Y-112763578D01*
X114415901Y-112752669D01*
X117873000Y-109772810D01*
X117873000Y-121898000D01*
X105552000Y-121898000D01*
X105552000Y-111771292D01*
X108872113Y-111771292D01*
X108949395Y-111951936D01*
X109160851Y-112047015D01*
X109386792Y-112099014D01*
X109618538Y-112105936D01*
X109847180Y-112067512D01*
X110063933Y-111985221D01*
X110126205Y-111951936D01*
X110203487Y-111771292D01*
X109537800Y-111105605D01*
X108872113Y-111771292D01*
X105552000Y-111771292D01*
X105552000Y-111006738D01*
X108357864Y-111006738D01*
X108396288Y-111235380D01*
X108478579Y-111452133D01*
X108511864Y-111514405D01*
X108692508Y-111591687D01*
X109358195Y-110926000D01*
X109717405Y-110926000D01*
X110383092Y-111591687D01*
X110563736Y-111514405D01*
X110658815Y-111302949D01*
X110710814Y-111077008D01*
X110717736Y-110845262D01*
X110679312Y-110616620D01*
X110597021Y-110399867D01*
X110563736Y-110337595D01*
X110383092Y-110260313D01*
X109717405Y-110926000D01*
X109358195Y-110926000D01*
X108692508Y-110260313D01*
X108511864Y-110337595D01*
X108416785Y-110549051D01*
X108364786Y-110774992D01*
X108357864Y-111006738D01*
X105552000Y-111006738D01*
X105552000Y-110080708D01*
X108872113Y-110080708D01*
X109537800Y-110746395D01*
X110203487Y-110080708D01*
X110126205Y-109900064D01*
X109914749Y-109804985D01*
X109688808Y-109752986D01*
X109457062Y-109746064D01*
X109228420Y-109784488D01*
X109011667Y-109866779D01*
X108949395Y-109900064D01*
X108872113Y-110080708D01*
X105552000Y-110080708D01*
X105552000Y-108484965D01*
X108359253Y-108484965D01*
X108400921Y-108711995D01*
X108485892Y-108926607D01*
X108610930Y-109120628D01*
X108771272Y-109286668D01*
X108960811Y-109418401D01*
X109172327Y-109510810D01*
X109397764Y-109560375D01*
X109628535Y-109565209D01*
X109855850Y-109525128D01*
X110071051Y-109441657D01*
X110265940Y-109317976D01*
X110433094Y-109158797D01*
X110566147Y-108970183D01*
X110660031Y-108759317D01*
X110711169Y-108534231D01*
X110714850Y-108270589D01*
X110670017Y-108044164D01*
X110582058Y-107830758D01*
X110454323Y-107638502D01*
X110291678Y-107474718D01*
X110100318Y-107345644D01*
X109887532Y-107256197D01*
X109661425Y-107209784D01*
X109430609Y-107208173D01*
X109203876Y-107251424D01*
X108989862Y-107337891D01*
X108796719Y-107464281D01*
X108631803Y-107625778D01*
X108501396Y-107816232D01*
X108410466Y-108028389D01*
X108362476Y-108254166D01*
X108359253Y-108484965D01*
X105552000Y-108484965D01*
X105552000Y-102377868D01*
X107833037Y-102377868D01*
X107921018Y-102567525D01*
X108147545Y-102671437D01*
X108389991Y-102729159D01*
X108639039Y-102738473D01*
X108885120Y-102699021D01*
X109118775Y-102612320D01*
X109202582Y-102567525D01*
X109290563Y-102377868D01*
X108561800Y-101649105D01*
X107833037Y-102377868D01*
X105552000Y-102377868D01*
X105552000Y-101546739D01*
X107292827Y-101546739D01*
X107332279Y-101792820D01*
X107418980Y-102026475D01*
X107463775Y-102110282D01*
X107653432Y-102198263D01*
X108382195Y-101469500D01*
X108741405Y-101469500D01*
X109470168Y-102198263D01*
X109659825Y-102110282D01*
X109763737Y-101883755D01*
X109821459Y-101641309D01*
X109830773Y-101392261D01*
X109791321Y-101146180D01*
X109704620Y-100912525D01*
X109659825Y-100828718D01*
X109470168Y-100740737D01*
X108741405Y-101469500D01*
X108382195Y-101469500D01*
X107653432Y-100740737D01*
X107463775Y-100828718D01*
X107359863Y-101055245D01*
X107302141Y-101297691D01*
X107292827Y-101546739D01*
X105552000Y-101546739D01*
X105552000Y-100561132D01*
X107833037Y-100561132D01*
X108561800Y-101289895D01*
X109220395Y-100631300D01*
X109834534Y-100631300D01*
X109834534Y-102307700D01*
X109839956Y-102375698D01*
X109875673Y-102491030D01*
X109942106Y-102591846D01*
X110033995Y-102670163D01*
X110144065Y-102719779D01*
X110263600Y-102736766D01*
X111940000Y-102736766D01*
X112007998Y-102731344D01*
X112123330Y-102695627D01*
X112224146Y-102629194D01*
X112302463Y-102537305D01*
X112352079Y-102427235D01*
X112369066Y-102307700D01*
X112369066Y-100631300D01*
X112363644Y-100563302D01*
X112327927Y-100447970D01*
X112261494Y-100347154D01*
X112169605Y-100268837D01*
X112059535Y-100219221D01*
X111940000Y-100202234D01*
X110263600Y-100202234D01*
X110195602Y-100207656D01*
X110080270Y-100243373D01*
X109979454Y-100309806D01*
X109901137Y-100401695D01*
X109851521Y-100511765D01*
X109834534Y-100631300D01*
X109220395Y-100631300D01*
X109290563Y-100561132D01*
X109202582Y-100371475D01*
X108976055Y-100267563D01*
X108733609Y-100209841D01*
X108484561Y-100200527D01*
X108238480Y-100239979D01*
X108004825Y-100326680D01*
X107921018Y-100371475D01*
X107833037Y-100561132D01*
X105552000Y-100561132D01*
X105552000Y-95452000D01*
X110650000Y-95452000D01*
X110696990Y-95447392D01*
X110744065Y-95443108D01*
X110745755Y-95442611D01*
X110747506Y-95442439D01*
X110792724Y-95428787D01*
X110838053Y-95415446D01*
X110839613Y-95414630D01*
X110841297Y-95414122D01*
X110882957Y-95391971D01*
X110924877Y-95370056D01*
X110926251Y-95368951D01*
X110927803Y-95368126D01*
X110964407Y-95338273D01*
X111001231Y-95308665D01*
X111002361Y-95307318D01*
X111003726Y-95306205D01*
X111033871Y-95269766D01*
X111064207Y-95233613D01*
X111065054Y-95232073D01*
X111066177Y-95230715D01*
X111088649Y-95189153D01*
X111111406Y-95147759D01*
X111111939Y-95146080D01*
X111112775Y-95144533D01*
X111126741Y-95099415D01*
X111141030Y-95054372D01*
X111141226Y-95052624D01*
X111141747Y-95050941D01*
X111146690Y-95003914D01*
X111151951Y-94957009D01*
X111151975Y-94953632D01*
X111151988Y-94953505D01*
X111151976Y-94953377D01*
X111152000Y-94950000D01*
X111152000Y-88919436D01*
X111232613Y-88919436D01*
X111261891Y-89078955D01*
X111321594Y-89229749D01*
X111383700Y-89326118D01*
X111383700Y-92774969D01*
X111332488Y-92849762D01*
X111268598Y-92998830D01*
X111234878Y-93157469D01*
X111232613Y-93319636D01*
X111261891Y-93479155D01*
X111321594Y-93629949D01*
X111409450Y-93766274D01*
X111522112Y-93882939D01*
X111586837Y-93927924D01*
X112261543Y-95783062D01*
X112235078Y-95907569D01*
X112232813Y-96069736D01*
X112262091Y-96229255D01*
X112321794Y-96380049D01*
X112409650Y-96516374D01*
X112522312Y-96633039D01*
X112655488Y-96725599D01*
X112804107Y-96790529D01*
X112962506Y-96825355D01*
X113124654Y-96828752D01*
X113284373Y-96800589D01*
X113435580Y-96741940D01*
X113572515Y-96655038D01*
X113689964Y-96543193D01*
X113783451Y-96410666D01*
X113849417Y-96262505D01*
X113885348Y-96104352D01*
X113887935Y-95919109D01*
X113856433Y-95760014D01*
X113794630Y-95610069D01*
X113704880Y-95474983D01*
X113590600Y-95359903D01*
X113534698Y-95322196D01*
X112859701Y-93466259D01*
X112885148Y-93354252D01*
X112887735Y-93169009D01*
X112856233Y-93009914D01*
X112794430Y-92859969D01*
X112737700Y-92774583D01*
X112737700Y-89324939D01*
X112783251Y-89260366D01*
X112849217Y-89112205D01*
X112885148Y-88954052D01*
X112887735Y-88768809D01*
X112863631Y-88647075D01*
X113530038Y-86910091D01*
X113579915Y-86878438D01*
X113697364Y-86766593D01*
X113790851Y-86634066D01*
X113856817Y-86485905D01*
X113892748Y-86327752D01*
X113895335Y-86142509D01*
X113863833Y-85983414D01*
X113802030Y-85833469D01*
X113712280Y-85698383D01*
X113598000Y-85583303D01*
X113463544Y-85492611D01*
X113314034Y-85429763D01*
X113155163Y-85397151D01*
X112992984Y-85396019D01*
X112833674Y-85426409D01*
X112683301Y-85487164D01*
X112547592Y-85575969D01*
X112431716Y-85689443D01*
X112340088Y-85823262D01*
X112276198Y-85972330D01*
X112242478Y-86130969D01*
X112240213Y-86293136D01*
X112264901Y-86427645D01*
X111598823Y-88163771D01*
X111539992Y-88202269D01*
X111424116Y-88315743D01*
X111332488Y-88449562D01*
X111268598Y-88598630D01*
X111234878Y-88757269D01*
X111232613Y-88919436D01*
X111152000Y-88919436D01*
X111152000Y-87150000D01*
X111147392Y-87103010D01*
X111143108Y-87055935D01*
X111142611Y-87054245D01*
X111142439Y-87052494D01*
X111128787Y-87007276D01*
X111115446Y-86961947D01*
X111114630Y-86960387D01*
X111114122Y-86958703D01*
X111091971Y-86917043D01*
X111070056Y-86875123D01*
X111068951Y-86873749D01*
X111068126Y-86872197D01*
X111038273Y-86835593D01*
X111008665Y-86798769D01*
X111007318Y-86797639D01*
X111006205Y-86796274D01*
X110969766Y-86766129D01*
X110933613Y-86735793D01*
X110932073Y-86734946D01*
X110930715Y-86733823D01*
X110889153Y-86711351D01*
X110847759Y-86688594D01*
X110846080Y-86688061D01*
X110844533Y-86687225D01*
X110799415Y-86673259D01*
X110754372Y-86658970D01*
X110752624Y-86658774D01*
X110750941Y-86658253D01*
X110703914Y-86653310D01*
X110657009Y-86648049D01*
X110653632Y-86648025D01*
X110653505Y-86648012D01*
X110653377Y-86648024D01*
X110650000Y-86648000D01*
X105552000Y-86648000D01*
X105552000Y-80820465D01*
X108357353Y-80820465D01*
X108399021Y-81047495D01*
X108483992Y-81262107D01*
X108609030Y-81456128D01*
X108769372Y-81622168D01*
X108958911Y-81753901D01*
X109170427Y-81846310D01*
X109395864Y-81895875D01*
X109626635Y-81900709D01*
X109853950Y-81860628D01*
X109917610Y-81835936D01*
X112521404Y-84396268D01*
X112521485Y-84396333D01*
X112525175Y-84399940D01*
X112533475Y-84407940D01*
X112533563Y-84408010D01*
X112535175Y-84409571D01*
X117925429Y-89558702D01*
X117923613Y-89688736D01*
X117952891Y-89848255D01*
X118012594Y-89999049D01*
X118100450Y-90135374D01*
X118213112Y-90252039D01*
X118346288Y-90344599D01*
X118494907Y-90409529D01*
X118653306Y-90444355D01*
X118815454Y-90447752D01*
X118975173Y-90419589D01*
X119126380Y-90360940D01*
X119263315Y-90274038D01*
X119380764Y-90162193D01*
X119474251Y-90029666D01*
X119486774Y-90001539D01*
X119511350Y-90039674D01*
X119624012Y-90156339D01*
X119757188Y-90248899D01*
X119905807Y-90313829D01*
X120064206Y-90348655D01*
X120226354Y-90352052D01*
X120386073Y-90323889D01*
X120537280Y-90265240D01*
X120674215Y-90178338D01*
X120686130Y-90166991D01*
X120529028Y-93344492D01*
X120453388Y-93454962D01*
X120389498Y-93604030D01*
X120355778Y-93762669D01*
X120353513Y-93924836D01*
X120382791Y-94084355D01*
X120442494Y-94235149D01*
X120530350Y-94371474D01*
X120643012Y-94488139D01*
X120776188Y-94580699D01*
X120924807Y-94645629D01*
X121083206Y-94680455D01*
X121245354Y-94683852D01*
X121405073Y-94655689D01*
X121556280Y-94597040D01*
X121693215Y-94510138D01*
X121810664Y-94398293D01*
X121904151Y-94265766D01*
X121970117Y-94117605D01*
X122006048Y-93959452D01*
X122008635Y-93774209D01*
X121977133Y-93615114D01*
X121915330Y-93465169D01*
X121881252Y-93413877D01*
X122322687Y-84485503D01*
X122520703Y-84500314D01*
X122520714Y-84500314D01*
X122520914Y-84500330D01*
X122665915Y-84511130D01*
X122697737Y-84510386D01*
X122729470Y-84512870D01*
X122763618Y-84508844D01*
X122798006Y-84508040D01*
X122829086Y-84501127D01*
X122860689Y-84497401D01*
X122869909Y-84495320D01*
X123153010Y-84429320D01*
X123183032Y-84419145D01*
X123213931Y-84412077D01*
X123245445Y-84397991D01*
X123278145Y-84386908D01*
X123305622Y-84371093D01*
X123334557Y-84358160D01*
X123342736Y-84353422D01*
X123467936Y-84279721D01*
X123467945Y-84279715D01*
X123468177Y-84279580D01*
X124170977Y-83865479D01*
X124171004Y-83865459D01*
X124171550Y-83865142D01*
X124188680Y-83855026D01*
X124227307Y-83839500D01*
X124246673Y-83834965D01*
X124246711Y-83834952D01*
X124247186Y-83834844D01*
X130561511Y-82350875D01*
X130612907Y-82373329D01*
X130771306Y-82408155D01*
X130933454Y-82411552D01*
X131093173Y-82383389D01*
X131226178Y-82331800D01*
X140532734Y-82331800D01*
X140532734Y-84008200D01*
X140538156Y-84076198D01*
X140573873Y-84191530D01*
X140640306Y-84292346D01*
X140732195Y-84370663D01*
X140842265Y-84420279D01*
X140961800Y-84437266D01*
X142638200Y-84437266D01*
X142706198Y-84431844D01*
X142821530Y-84396127D01*
X142922346Y-84329694D01*
X143000663Y-84237805D01*
X143050279Y-84127735D01*
X143067266Y-84008200D01*
X143067266Y-82331800D01*
X144432734Y-82331800D01*
X144432734Y-84008200D01*
X144438156Y-84076198D01*
X144473873Y-84191530D01*
X144540306Y-84292346D01*
X144632195Y-84370663D01*
X144742265Y-84420279D01*
X144861800Y-84437266D01*
X146538200Y-84437266D01*
X146606198Y-84431844D01*
X146721530Y-84396127D01*
X146822346Y-84329694D01*
X146900663Y-84237805D01*
X146950279Y-84127735D01*
X146967266Y-84008200D01*
X146967266Y-82331800D01*
X146961844Y-82263802D01*
X146951934Y-82231800D01*
X148532734Y-82231800D01*
X148532734Y-83908200D01*
X148538156Y-83976198D01*
X148573873Y-84091530D01*
X148640306Y-84192346D01*
X148732195Y-84270663D01*
X148842265Y-84320279D01*
X148961800Y-84337266D01*
X150638200Y-84337266D01*
X150706198Y-84331844D01*
X150821530Y-84296127D01*
X150922346Y-84229694D01*
X151000663Y-84137805D01*
X151050279Y-84027735D01*
X151067266Y-83908200D01*
X151067266Y-82231800D01*
X151061844Y-82163802D01*
X151026127Y-82048470D01*
X150959694Y-81947654D01*
X150867805Y-81869337D01*
X150757735Y-81819721D01*
X150638200Y-81802734D01*
X148961800Y-81802734D01*
X148893802Y-81808156D01*
X148778470Y-81843873D01*
X148677654Y-81910306D01*
X148599337Y-82002195D01*
X148549721Y-82112265D01*
X148532734Y-82231800D01*
X146951934Y-82231800D01*
X146926127Y-82148470D01*
X146859694Y-82047654D01*
X146767805Y-81969337D01*
X146657735Y-81919721D01*
X146538200Y-81902734D01*
X144861800Y-81902734D01*
X144793802Y-81908156D01*
X144678470Y-81943873D01*
X144577654Y-82010306D01*
X144499337Y-82102195D01*
X144449721Y-82212265D01*
X144432734Y-82331800D01*
X143067266Y-82331800D01*
X143061844Y-82263802D01*
X143026127Y-82148470D01*
X142959694Y-82047654D01*
X142867805Y-81969337D01*
X142757735Y-81919721D01*
X142638200Y-81902734D01*
X140961800Y-81902734D01*
X140893802Y-81908156D01*
X140778470Y-81943873D01*
X140677654Y-82010306D01*
X140599337Y-82102195D01*
X140549721Y-82212265D01*
X140532734Y-82331800D01*
X131226178Y-82331800D01*
X131244380Y-82324740D01*
X131381315Y-82237838D01*
X131498764Y-82125993D01*
X131592251Y-81993466D01*
X131658217Y-81845305D01*
X131694148Y-81687152D01*
X131696225Y-81538368D01*
X141071237Y-81538368D01*
X141159218Y-81728025D01*
X141385745Y-81831937D01*
X141628191Y-81889659D01*
X141877239Y-81898973D01*
X142123320Y-81859521D01*
X142356975Y-81772820D01*
X142440782Y-81728025D01*
X142528763Y-81538368D01*
X144971237Y-81538368D01*
X145059218Y-81728025D01*
X145285745Y-81831937D01*
X145528191Y-81889659D01*
X145777239Y-81898973D01*
X146023320Y-81859521D01*
X146256975Y-81772820D01*
X146340782Y-81728025D01*
X146428763Y-81538368D01*
X146328763Y-81438368D01*
X149071237Y-81438368D01*
X149159218Y-81628025D01*
X149385745Y-81731937D01*
X149628191Y-81789659D01*
X149877239Y-81798973D01*
X150123320Y-81759521D01*
X150356975Y-81672820D01*
X150440782Y-81628025D01*
X150528763Y-81438368D01*
X149800000Y-80709605D01*
X149071237Y-81438368D01*
X146328763Y-81438368D01*
X145700000Y-80809605D01*
X144971237Y-81538368D01*
X142528763Y-81538368D01*
X141800000Y-80809605D01*
X141071237Y-81538368D01*
X131696225Y-81538368D01*
X131696735Y-81501909D01*
X131665233Y-81342814D01*
X131603430Y-81192869D01*
X131513680Y-81057783D01*
X131399400Y-80942703D01*
X131264944Y-80852011D01*
X131115434Y-80789163D01*
X130956563Y-80756551D01*
X130794384Y-80755419D01*
X130635074Y-80785809D01*
X130484701Y-80846564D01*
X130348992Y-80935369D01*
X130248810Y-81033475D01*
X123937531Y-82516728D01*
X123868327Y-82532935D01*
X123824058Y-82547989D01*
X123779014Y-82560478D01*
X123770219Y-82563942D01*
X123636119Y-82617842D01*
X123594905Y-82639294D01*
X123552523Y-82658309D01*
X123544351Y-82663058D01*
X123483339Y-82699087D01*
X122781064Y-83112878D01*
X122744933Y-83134147D01*
X122663279Y-83153183D01*
X122621486Y-83150070D01*
X122621484Y-83150070D01*
X122211601Y-83119412D01*
X122210500Y-83118303D01*
X122076044Y-83027611D01*
X121926534Y-82964763D01*
X121767663Y-82932151D01*
X121605484Y-82931019D01*
X121446174Y-82961409D01*
X121295801Y-83022164D01*
X121160092Y-83110969D01*
X121044216Y-83224443D01*
X120952588Y-83358262D01*
X120888698Y-83507330D01*
X120854978Y-83665969D01*
X120852713Y-83828136D01*
X120881991Y-83987655D01*
X120941694Y-84138449D01*
X120981165Y-84199695D01*
X120746885Y-88938170D01*
X120692300Y-88883203D01*
X120557844Y-88792511D01*
X120408334Y-88729663D01*
X120249463Y-88697051D01*
X120118119Y-88696134D01*
X113872899Y-81898500D01*
X114382150Y-81898500D01*
X114488900Y-81791750D01*
X114488900Y-80848500D01*
X114742900Y-80848500D01*
X114742900Y-81791750D01*
X114849650Y-81898500D01*
X115407956Y-81898500D01*
X115490451Y-81882091D01*
X115568161Y-81849902D01*
X115638097Y-81803172D01*
X115697573Y-81743697D01*
X115744303Y-81673760D01*
X115776491Y-81596051D01*
X115792900Y-81513556D01*
X115792900Y-80955250D01*
X115686150Y-80848500D01*
X114742900Y-80848500D01*
X114488900Y-80848500D01*
X113545650Y-80848500D01*
X113438900Y-80955250D01*
X113438900Y-81426112D01*
X113177369Y-81141448D01*
X113198131Y-81094817D01*
X113249269Y-80869731D01*
X113251537Y-80707239D01*
X140531027Y-80707239D01*
X140570479Y-80953320D01*
X140657180Y-81186975D01*
X140701975Y-81270782D01*
X140891632Y-81358763D01*
X141620395Y-80630000D01*
X141979605Y-80630000D01*
X142708368Y-81358763D01*
X142898025Y-81270782D01*
X143001937Y-81044255D01*
X143059659Y-80801809D01*
X143063195Y-80707239D01*
X144431027Y-80707239D01*
X144470479Y-80953320D01*
X144557180Y-81186975D01*
X144601975Y-81270782D01*
X144791632Y-81358763D01*
X145520395Y-80630000D01*
X145879605Y-80630000D01*
X146608368Y-81358763D01*
X146798025Y-81270782D01*
X146901937Y-81044255D01*
X146959659Y-80801809D01*
X146966935Y-80607239D01*
X148531027Y-80607239D01*
X148570479Y-80853320D01*
X148657180Y-81086975D01*
X148701975Y-81170782D01*
X148891632Y-81258763D01*
X149620395Y-80530000D01*
X149979605Y-80530000D01*
X150708368Y-81258763D01*
X150898025Y-81170782D01*
X151001937Y-80944255D01*
X151059659Y-80701809D01*
X151068973Y-80452761D01*
X151029521Y-80206680D01*
X150942820Y-79973025D01*
X150898025Y-79889218D01*
X150708368Y-79801237D01*
X149979605Y-80530000D01*
X149620395Y-80530000D01*
X148891632Y-79801237D01*
X148701975Y-79889218D01*
X148598063Y-80115745D01*
X148540341Y-80358191D01*
X148531027Y-80607239D01*
X146966935Y-80607239D01*
X146968973Y-80552761D01*
X146929521Y-80306680D01*
X146842820Y-80073025D01*
X146798025Y-79989218D01*
X146608368Y-79901237D01*
X145879605Y-80630000D01*
X145520395Y-80630000D01*
X144791632Y-79901237D01*
X144601975Y-79989218D01*
X144498063Y-80215745D01*
X144440341Y-80458191D01*
X144431027Y-80707239D01*
X143063195Y-80707239D01*
X143068973Y-80552761D01*
X143029521Y-80306680D01*
X142942820Y-80073025D01*
X142898025Y-79989218D01*
X142708368Y-79901237D01*
X141979605Y-80630000D01*
X141620395Y-80630000D01*
X140891632Y-79901237D01*
X140701975Y-79989218D01*
X140598063Y-80215745D01*
X140540341Y-80458191D01*
X140531027Y-80707239D01*
X113251537Y-80707239D01*
X113252950Y-80606089D01*
X113208117Y-80379664D01*
X113120158Y-80166258D01*
X112992423Y-79974002D01*
X112948175Y-79929444D01*
X113438900Y-79929444D01*
X113438900Y-80487750D01*
X113545650Y-80594500D01*
X114488900Y-80594500D01*
X114488900Y-79651250D01*
X114742900Y-79651250D01*
X114742900Y-80594500D01*
X115686150Y-80594500D01*
X115792900Y-80487750D01*
X115792900Y-79929444D01*
X115776491Y-79846949D01*
X115744303Y-79769240D01*
X115712493Y-79721632D01*
X141071237Y-79721632D01*
X141800000Y-80450395D01*
X142528763Y-79721632D01*
X144971237Y-79721632D01*
X145700000Y-80450395D01*
X146428763Y-79721632D01*
X146382374Y-79621632D01*
X149071237Y-79621632D01*
X149800000Y-80350395D01*
X150528763Y-79621632D01*
X150440782Y-79431975D01*
X150214255Y-79328063D01*
X149971809Y-79270341D01*
X149722761Y-79261027D01*
X149476680Y-79300479D01*
X149243025Y-79387180D01*
X149159218Y-79431975D01*
X149071237Y-79621632D01*
X146382374Y-79621632D01*
X146340782Y-79531975D01*
X146114255Y-79428063D01*
X145871809Y-79370341D01*
X145622761Y-79361027D01*
X145376680Y-79400479D01*
X145143025Y-79487180D01*
X145059218Y-79531975D01*
X144971237Y-79721632D01*
X142528763Y-79721632D01*
X142440782Y-79531975D01*
X142214255Y-79428063D01*
X141971809Y-79370341D01*
X141722761Y-79361027D01*
X141476680Y-79400479D01*
X141243025Y-79487180D01*
X141159218Y-79531975D01*
X141071237Y-79721632D01*
X115712493Y-79721632D01*
X115697573Y-79699303D01*
X115638097Y-79639828D01*
X115568161Y-79593098D01*
X115490451Y-79560909D01*
X115407956Y-79544500D01*
X114849650Y-79544500D01*
X114742900Y-79651250D01*
X114488900Y-79651250D01*
X114382150Y-79544500D01*
X113823844Y-79544500D01*
X113741349Y-79560909D01*
X113663639Y-79593098D01*
X113593703Y-79639828D01*
X113534227Y-79699303D01*
X113487497Y-79769240D01*
X113455309Y-79846949D01*
X113438900Y-79929444D01*
X112948175Y-79929444D01*
X112829778Y-79810218D01*
X112638418Y-79681144D01*
X112425632Y-79591697D01*
X112199525Y-79545284D01*
X111968709Y-79543673D01*
X111741976Y-79586924D01*
X111527962Y-79673391D01*
X111334819Y-79799781D01*
X111169903Y-79961278D01*
X111039496Y-80151732D01*
X110948566Y-80363889D01*
X110900576Y-80589666D01*
X110897353Y-80820465D01*
X110939021Y-81047495D01*
X111023992Y-81262107D01*
X111149030Y-81456128D01*
X111309372Y-81622168D01*
X111498911Y-81753901D01*
X111710427Y-81846310D01*
X111935864Y-81895875D01*
X112166635Y-81900709D01*
X112393950Y-81860628D01*
X112403430Y-81856951D01*
X118775181Y-88792309D01*
X118676384Y-88791619D01*
X118652980Y-88796084D01*
X113264001Y-83648170D01*
X113258490Y-83642858D01*
X110659786Y-81087531D01*
X110709269Y-80869731D01*
X110712950Y-80606089D01*
X110668117Y-80379664D01*
X110580158Y-80166258D01*
X110452423Y-79974002D01*
X110289778Y-79810218D01*
X110098418Y-79681144D01*
X109885632Y-79591697D01*
X109659525Y-79545284D01*
X109428709Y-79543673D01*
X109201976Y-79586924D01*
X108987962Y-79673391D01*
X108794819Y-79799781D01*
X108629903Y-79961278D01*
X108499496Y-80151732D01*
X108408566Y-80363889D01*
X108360576Y-80589666D01*
X108357353Y-80820465D01*
X105552000Y-80820465D01*
X105552000Y-78952000D01*
X165598000Y-78952000D01*
X165598000Y-85873000D01*
G36*
X142917366Y-96092954D02*
X142917371Y-96092956D01*
X142917492Y-96093022D01*
X142977643Y-96125220D01*
X143053947Y-96240137D01*
X143060262Y-96308077D01*
X143060266Y-96308096D01*
X143060286Y-96308331D01*
X143673181Y-102867367D01*
X143620616Y-102918843D01*
X143528988Y-103052662D01*
X143465098Y-103201730D01*
X143431378Y-103360369D01*
X143429113Y-103522536D01*
X143458391Y-103682055D01*
X143518094Y-103832849D01*
X143605950Y-103969174D01*
X143718612Y-104085839D01*
X143851788Y-104178399D01*
X144000407Y-104243329D01*
X144158806Y-104278155D01*
X144320954Y-104281552D01*
X144480673Y-104253389D01*
X144631880Y-104194740D01*
X144768815Y-104107838D01*
X144886264Y-103995993D01*
X144979751Y-103863466D01*
X145045717Y-103715305D01*
X145081648Y-103557152D01*
X145084235Y-103371909D01*
X145052733Y-103212814D01*
X144990930Y-103062869D01*
X144901180Y-102927783D01*
X144786900Y-102812703D01*
X144722612Y-102769340D01*
X144563674Y-101068430D01*
X144628907Y-101096929D01*
X144787306Y-101131755D01*
X144949454Y-101135152D01*
X145109173Y-101106989D01*
X145260380Y-101048340D01*
X145373000Y-100976869D01*
X145373000Y-104873000D01*
X123557541Y-104873000D01*
X124843948Y-103764177D01*
X124853945Y-103755579D01*
X124875960Y-103740006D01*
X124886899Y-103733735D01*
X124886907Y-103733729D01*
X124886982Y-103733687D01*
X125564666Y-103345067D01*
X125707154Y-103348052D01*
X125866873Y-103319889D01*
X126018080Y-103261240D01*
X126143263Y-103181796D01*
X128837618Y-103100895D01*
X128837633Y-103100893D01*
X128837892Y-103100887D01*
X128956193Y-103097287D01*
X128968961Y-103095642D01*
X128981829Y-103096020D01*
X129034373Y-103087212D01*
X129087237Y-103080400D01*
X129099447Y-103076304D01*
X129112138Y-103074177D01*
X129121246Y-103071649D01*
X129348846Y-103006749D01*
X129360926Y-103001987D01*
X129373598Y-102999176D01*
X129422282Y-102977799D01*
X129471767Y-102958291D01*
X129482692Y-102951273D01*
X129494576Y-102946055D01*
X129502786Y-102941371D01*
X129604773Y-102882237D01*
X129604816Y-102882212D01*
X132279252Y-101331938D01*
X132290231Y-101325588D01*
X132312439Y-101315251D01*
X132323180Y-101311368D01*
X132323212Y-101311353D01*
X132323730Y-101311169D01*
X135259886Y-100246765D01*
X135379006Y-100272955D01*
X135541154Y-100276352D01*
X135700873Y-100248189D01*
X135852080Y-100189540D01*
X135989015Y-100102638D01*
X136106464Y-99990793D01*
X136199951Y-99858266D01*
X136265917Y-99710105D01*
X136301848Y-99551952D01*
X136304435Y-99366709D01*
X136272933Y-99207614D01*
X136211130Y-99057669D01*
X136192855Y-99030163D01*
X136689175Y-93264524D01*
X136778451Y-93137966D01*
X136844417Y-92989805D01*
X136874752Y-92856285D01*
X142917366Y-96092954D01*
X142917366Y-96092954D01*
G37*
X142917366Y-96092954D02*
X142917371Y-96092956D01*
X142917492Y-96093022D01*
X142977643Y-96125220D01*
X143053947Y-96240137D01*
X143060262Y-96308077D01*
X143060266Y-96308096D01*
X143060286Y-96308331D01*
X143673181Y-102867367D01*
X143620616Y-102918843D01*
X143528988Y-103052662D01*
X143465098Y-103201730D01*
X143431378Y-103360369D01*
X143429113Y-103522536D01*
X143458391Y-103682055D01*
X143518094Y-103832849D01*
X143605950Y-103969174D01*
X143718612Y-104085839D01*
X143851788Y-104178399D01*
X144000407Y-104243329D01*
X144158806Y-104278155D01*
X144320954Y-104281552D01*
X144480673Y-104253389D01*
X144631880Y-104194740D01*
X144768815Y-104107838D01*
X144886264Y-103995993D01*
X144979751Y-103863466D01*
X145045717Y-103715305D01*
X145081648Y-103557152D01*
X145084235Y-103371909D01*
X145052733Y-103212814D01*
X144990930Y-103062869D01*
X144901180Y-102927783D01*
X144786900Y-102812703D01*
X144722612Y-102769340D01*
X144563674Y-101068430D01*
X144628907Y-101096929D01*
X144787306Y-101131755D01*
X144949454Y-101135152D01*
X145109173Y-101106989D01*
X145260380Y-101048340D01*
X145373000Y-100976869D01*
X145373000Y-104873000D01*
X123557541Y-104873000D01*
X124843948Y-103764177D01*
X124853945Y-103755579D01*
X124875960Y-103740006D01*
X124886899Y-103733735D01*
X124886907Y-103733729D01*
X124886982Y-103733687D01*
X125564666Y-103345067D01*
X125707154Y-103348052D01*
X125866873Y-103319889D01*
X126018080Y-103261240D01*
X126143263Y-103181796D01*
X128837618Y-103100895D01*
X128837633Y-103100893D01*
X128837892Y-103100887D01*
X128956193Y-103097287D01*
X128968961Y-103095642D01*
X128981829Y-103096020D01*
X129034373Y-103087212D01*
X129087237Y-103080400D01*
X129099447Y-103076304D01*
X129112138Y-103074177D01*
X129121246Y-103071649D01*
X129348846Y-103006749D01*
X129360926Y-103001987D01*
X129373598Y-102999176D01*
X129422282Y-102977799D01*
X129471767Y-102958291D01*
X129482692Y-102951273D01*
X129494576Y-102946055D01*
X129502786Y-102941371D01*
X129604773Y-102882237D01*
X129604816Y-102882212D01*
X132279252Y-101331938D01*
X132290231Y-101325588D01*
X132312439Y-101315251D01*
X132323180Y-101311368D01*
X132323212Y-101311353D01*
X132323730Y-101311169D01*
X135259886Y-100246765D01*
X135379006Y-100272955D01*
X135541154Y-100276352D01*
X135700873Y-100248189D01*
X135852080Y-100189540D01*
X135989015Y-100102638D01*
X136106464Y-99990793D01*
X136199951Y-99858266D01*
X136265917Y-99710105D01*
X136301848Y-99551952D01*
X136304435Y-99366709D01*
X136272933Y-99207614D01*
X136211130Y-99057669D01*
X136192855Y-99030163D01*
X136689175Y-93264524D01*
X136778451Y-93137966D01*
X136844417Y-92989805D01*
X136874752Y-92856285D01*
X142917366Y-96092954D01*
G36*
X156305801Y-86662872D02*
X156096308Y-86799960D01*
X155917433Y-86975128D01*
X155775988Y-87181703D01*
X155677360Y-87411818D01*
X155625308Y-87656707D01*
X155621812Y-87907043D01*
X155667007Y-88153290D01*
X155759170Y-88386068D01*
X155894793Y-88596513D01*
X156068707Y-88776607D01*
X156274290Y-88919491D01*
X156503711Y-89019722D01*
X156748231Y-89073483D01*
X156998536Y-89078726D01*
X157245092Y-89035252D01*
X157478509Y-88944715D01*
X157689895Y-88810566D01*
X157788949Y-88716238D01*
X163163427Y-88716238D01*
X163252794Y-88907063D01*
X163481273Y-89012119D01*
X163703039Y-89065129D01*
X163651574Y-89092637D01*
X163562207Y-89283462D01*
X164299140Y-90020395D01*
X165036073Y-89283462D01*
X164946706Y-89092637D01*
X164718227Y-88987581D01*
X164496461Y-88934571D01*
X164547926Y-88907063D01*
X164637293Y-88716238D01*
X163900360Y-87979305D01*
X163163427Y-88716238D01*
X157788949Y-88716238D01*
X157871199Y-88637913D01*
X158015514Y-88433332D01*
X158117345Y-88204617D01*
X158172812Y-87960478D01*
X158173984Y-87876488D01*
X162619853Y-87876488D01*
X162659439Y-88124826D01*
X162746712Y-88360671D01*
X162792997Y-88447266D01*
X162983822Y-88536633D01*
X163720755Y-87799700D01*
X164079965Y-87799700D01*
X164816898Y-88536633D01*
X165007723Y-88447266D01*
X165112779Y-88218787D01*
X165171243Y-87974203D01*
X165180867Y-87722912D01*
X165141281Y-87474574D01*
X165054008Y-87238729D01*
X165007723Y-87152134D01*
X164816898Y-87062767D01*
X164079965Y-87799700D01*
X163720755Y-87799700D01*
X162983822Y-87062767D01*
X162792997Y-87152134D01*
X162687941Y-87380613D01*
X162629477Y-87625197D01*
X162619853Y-87876488D01*
X158173984Y-87876488D01*
X158176805Y-87674520D01*
X158128176Y-87428928D01*
X158032771Y-87197459D01*
X157894224Y-86988928D01*
X157717812Y-86811280D01*
X157510254Y-86671281D01*
X157404914Y-86627000D01*
X163390875Y-86627000D01*
X163339389Y-86646052D01*
X163252794Y-86692337D01*
X163163427Y-86883162D01*
X163900360Y-87620095D01*
X164637293Y-86883162D01*
X164547926Y-86692337D01*
X164405829Y-86627000D01*
X165598000Y-86627000D01*
X165598000Y-115184685D01*
X165542267Y-114903212D01*
X165375839Y-114499428D01*
X165134152Y-114135660D01*
X164826412Y-113825764D01*
X164464340Y-113581544D01*
X164061728Y-113412301D01*
X163633911Y-113324483D01*
X163197185Y-113321434D01*
X162768183Y-113403270D01*
X162363247Y-113566875D01*
X161997801Y-113806016D01*
X161685764Y-114111585D01*
X161439022Y-114471943D01*
X161266973Y-114873364D01*
X161176170Y-115300557D01*
X161170072Y-115737252D01*
X161248912Y-116166815D01*
X161409685Y-116572883D01*
X161646270Y-116939990D01*
X161949653Y-117254152D01*
X162308279Y-117503404D01*
X162708489Y-117678251D01*
X163135038Y-117772034D01*
X163571680Y-117781181D01*
X164001782Y-117705342D01*
X164408963Y-117547407D01*
X164777712Y-117313392D01*
X165093985Y-117012209D01*
X165345735Y-116655331D01*
X165523372Y-116256352D01*
X165598000Y-115927874D01*
X165598000Y-121898000D01*
X118627000Y-121898000D01*
X118627000Y-118057136D01*
X142321013Y-118057136D01*
X142350291Y-118216655D01*
X142409994Y-118367449D01*
X142497850Y-118503774D01*
X142610512Y-118620439D01*
X142743688Y-118712999D01*
X142892307Y-118777929D01*
X143050706Y-118812755D01*
X143212854Y-118816152D01*
X143372573Y-118787989D01*
X143523780Y-118729340D01*
X143660715Y-118642438D01*
X143778164Y-118530593D01*
X143871651Y-118398066D01*
X143937617Y-118249905D01*
X143973548Y-118091752D01*
X143974399Y-118030820D01*
X147060279Y-115737252D01*
X151170072Y-115737252D01*
X151248912Y-116166815D01*
X151409685Y-116572883D01*
X151646270Y-116939990D01*
X151949653Y-117254152D01*
X152308279Y-117503404D01*
X152708489Y-117678251D01*
X153135038Y-117772034D01*
X153571680Y-117781181D01*
X154001782Y-117705342D01*
X154408963Y-117547407D01*
X154777712Y-117313392D01*
X155093985Y-117012209D01*
X155345735Y-116655331D01*
X155523372Y-116256352D01*
X155620130Y-115830468D01*
X155627096Y-115331631D01*
X155542267Y-114903212D01*
X155375839Y-114499428D01*
X155134152Y-114135660D01*
X154826412Y-113825764D01*
X154464340Y-113581544D01*
X154061728Y-113412301D01*
X153633911Y-113324483D01*
X153197185Y-113321434D01*
X152768183Y-113403270D01*
X152363247Y-113566875D01*
X151997801Y-113806016D01*
X151685764Y-114111585D01*
X151439022Y-114471943D01*
X151266973Y-114873364D01*
X151176170Y-115300557D01*
X151170072Y-115737252D01*
X147060279Y-115737252D01*
X147389748Y-115492376D01*
X147488806Y-115514155D01*
X147650954Y-115517552D01*
X147810673Y-115489389D01*
X147961880Y-115430740D01*
X148098815Y-115343838D01*
X148216264Y-115231993D01*
X148309751Y-115099466D01*
X148375717Y-114951305D01*
X148411648Y-114793152D01*
X148414235Y-114607909D01*
X148382733Y-114448814D01*
X148320930Y-114298869D01*
X148231180Y-114163783D01*
X148116900Y-114048703D01*
X147982444Y-113958011D01*
X147832934Y-113895163D01*
X147674063Y-113862551D01*
X147511884Y-113861419D01*
X147352574Y-113891809D01*
X147202201Y-113952564D01*
X147066492Y-114041369D01*
X146950616Y-114154843D01*
X146858988Y-114288662D01*
X146795098Y-114437730D01*
X146761378Y-114596369D01*
X146760675Y-114646691D01*
X143346944Y-117183933D01*
X143235963Y-117161151D01*
X143073784Y-117160019D01*
X142914474Y-117190409D01*
X142764101Y-117251164D01*
X142628392Y-117339969D01*
X142512516Y-117453443D01*
X142420888Y-117587262D01*
X142356998Y-117736330D01*
X142323278Y-117894969D01*
X142321013Y-118057136D01*
X118627000Y-118057136D01*
X118627000Y-109122898D01*
X122682784Y-105627000D01*
X145233861Y-105627000D01*
X139040599Y-112175904D01*
X138971374Y-112189109D01*
X138821001Y-112249864D01*
X138685292Y-112338669D01*
X138654774Y-112368554D01*
X132265699Y-113107685D01*
X132264774Y-113107885D01*
X132263831Y-113107904D01*
X132254452Y-113109082D01*
X132223552Y-113113182D01*
X132222833Y-113113350D01*
X132222095Y-113113377D01*
X132212737Y-113114706D01*
X126711458Y-113935169D01*
X126692103Y-113938018D01*
X126682192Y-113940484D01*
X126672013Y-113941285D01*
X126662719Y-113943007D01*
X126625318Y-113950207D01*
X126616827Y-113952722D01*
X126608032Y-113953769D01*
X126598814Y-113955862D01*
X126579614Y-113960362D01*
X126579612Y-113960363D01*
X125105566Y-114305075D01*
X125042734Y-114278663D01*
X124883863Y-114246051D01*
X124721684Y-114244919D01*
X124562374Y-114275309D01*
X124412001Y-114336064D01*
X124276292Y-114424869D01*
X124160416Y-114538343D01*
X124068788Y-114672162D01*
X124004898Y-114821230D01*
X123971178Y-114979869D01*
X123968913Y-115142036D01*
X123998191Y-115301555D01*
X124057894Y-115452349D01*
X124145750Y-115588674D01*
X124258412Y-115705339D01*
X124391588Y-115797899D01*
X124540207Y-115862829D01*
X124698606Y-115897655D01*
X124860754Y-115901052D01*
X125020473Y-115872889D01*
X125171680Y-115814240D01*
X125308615Y-115727338D01*
X125418878Y-115622336D01*
X126888260Y-115278714D01*
X126888278Y-115278708D01*
X126888586Y-115278638D01*
X126894583Y-115277232D01*
X126904042Y-115275411D01*
X126908997Y-115274682D01*
X126909074Y-115274663D01*
X126910263Y-115274494D01*
X132407063Y-114454699D01*
X132426908Y-114452066D01*
X138806048Y-113714085D01*
X138949207Y-113776629D01*
X139107606Y-113811455D01*
X139269754Y-113814852D01*
X139429473Y-113786689D01*
X139580680Y-113728040D01*
X139717615Y-113641138D01*
X139835064Y-113529293D01*
X139928551Y-113396766D01*
X139994517Y-113248605D01*
X140027651Y-113102762D01*
X143499962Y-109431057D01*
X155198548Y-109431057D01*
X155281897Y-109616810D01*
X155501899Y-109716897D01*
X155737199Y-109772141D01*
X155978755Y-109780419D01*
X156217285Y-109741412D01*
X156443622Y-109656620D01*
X156518103Y-109616810D01*
X156601452Y-109431057D01*
X155900000Y-108729605D01*
X155198548Y-109431057D01*
X143499962Y-109431057D01*
X144258695Y-108628755D01*
X154669581Y-108628755D01*
X154708588Y-108867285D01*
X154793380Y-109093622D01*
X154833190Y-109168103D01*
X155018943Y-109251452D01*
X155720395Y-108550000D01*
X156079605Y-108550000D01*
X156781057Y-109251452D01*
X156966810Y-109168103D01*
X157066897Y-108948101D01*
X157122141Y-108712801D01*
X157124184Y-108653170D01*
X157171387Y-108653170D01*
X157214825Y-108889843D01*
X157303406Y-109113573D01*
X157433755Y-109315836D01*
X157600909Y-109488929D01*
X157798500Y-109626258D01*
X158019002Y-109722593D01*
X158254015Y-109774264D01*
X158494590Y-109779303D01*
X158731561Y-109737519D01*
X158955904Y-109650502D01*
X159159072Y-109521568D01*
X159333327Y-109355626D01*
X159472032Y-109158999D01*
X159569904Y-108939175D01*
X159623215Y-108704528D01*
X159623932Y-108653170D01*
X159671387Y-108653170D01*
X159714825Y-108889843D01*
X159803406Y-109113573D01*
X159933755Y-109315836D01*
X160100909Y-109488929D01*
X160298500Y-109626258D01*
X160519002Y-109722593D01*
X160754015Y-109774264D01*
X160994590Y-109779303D01*
X161231561Y-109737519D01*
X161455904Y-109650502D01*
X161659072Y-109521568D01*
X161833327Y-109355626D01*
X161972032Y-109158999D01*
X162069904Y-108939175D01*
X162123215Y-108704528D01*
X162127053Y-108429686D01*
X162080315Y-108193642D01*
X161988619Y-107971171D01*
X161855458Y-107770748D01*
X161685904Y-107600006D01*
X161486415Y-107465449D01*
X161264589Y-107372202D01*
X161028877Y-107323817D01*
X160788256Y-107322137D01*
X160551891Y-107367226D01*
X160328785Y-107457367D01*
X160127437Y-107589125D01*
X159955515Y-107757483D01*
X159819569Y-107956028D01*
X159724776Y-108177197D01*
X159674747Y-108412566D01*
X159671387Y-108653170D01*
X159623932Y-108653170D01*
X159627053Y-108429686D01*
X159580315Y-108193642D01*
X159488619Y-107971171D01*
X159355458Y-107770748D01*
X159185904Y-107600006D01*
X158986415Y-107465449D01*
X158764589Y-107372202D01*
X158528877Y-107323817D01*
X158288256Y-107322137D01*
X158051891Y-107367226D01*
X157828785Y-107457367D01*
X157627437Y-107589125D01*
X157455515Y-107757483D01*
X157319569Y-107956028D01*
X157224776Y-108177197D01*
X157174747Y-108412566D01*
X157171387Y-108653170D01*
X157124184Y-108653170D01*
X157130419Y-108471245D01*
X157091412Y-108232715D01*
X157006620Y-108006378D01*
X156966810Y-107931897D01*
X156781057Y-107848548D01*
X156079605Y-108550000D01*
X155720395Y-108550000D01*
X155018943Y-107848548D01*
X154833190Y-107931897D01*
X154733103Y-108151899D01*
X154677859Y-108387199D01*
X154669581Y-108628755D01*
X144258695Y-108628755D01*
X145166384Y-107668943D01*
X155198548Y-107668943D01*
X155900000Y-108370395D01*
X156601452Y-107668943D01*
X156518103Y-107483190D01*
X156298101Y-107383103D01*
X156062801Y-107327859D01*
X155821245Y-107319581D01*
X155582715Y-107358588D01*
X155356378Y-107443380D01*
X155281897Y-107483190D01*
X155198548Y-107668943D01*
X145166384Y-107668943D01*
X146308601Y-106461136D01*
X149076913Y-106461136D01*
X149106191Y-106620655D01*
X149165894Y-106771449D01*
X149253750Y-106907774D01*
X149366412Y-107024439D01*
X149499588Y-107116999D01*
X149648207Y-107181929D01*
X149806606Y-107216755D01*
X149968754Y-107220152D01*
X150128473Y-107191989D01*
X150279680Y-107133340D01*
X150416615Y-107046438D01*
X150534064Y-106934593D01*
X150627551Y-106802066D01*
X150693517Y-106653905D01*
X150717971Y-106546270D01*
X158052572Y-102516881D01*
X158101207Y-102538129D01*
X158259606Y-102572955D01*
X158421754Y-102576352D01*
X158581473Y-102548189D01*
X158732680Y-102489540D01*
X158869615Y-102402638D01*
X158987064Y-102290793D01*
X159080551Y-102158266D01*
X159146517Y-102010105D01*
X159182448Y-101851952D01*
X159185035Y-101666709D01*
X159153533Y-101507614D01*
X159091730Y-101357669D01*
X159001980Y-101222583D01*
X158887700Y-101107503D01*
X158753244Y-101016811D01*
X158603734Y-100953963D01*
X158444863Y-100921351D01*
X158282684Y-100920219D01*
X158123374Y-100950609D01*
X157973001Y-101011364D01*
X157837292Y-101100169D01*
X157721416Y-101213643D01*
X157629788Y-101347462D01*
X157565898Y-101496530D01*
X157545409Y-101592922D01*
X156635852Y-102092602D01*
X156620250Y-102077000D01*
X156027000Y-102077000D01*
X156027000Y-102097000D01*
X155840250Y-102097000D01*
X155820250Y-102077000D01*
X155179750Y-102077000D01*
X155073000Y-102183750D01*
X155073000Y-102392056D01*
X155089409Y-102474551D01*
X155121598Y-102552261D01*
X155168328Y-102622197D01*
X155227803Y-102681673D01*
X155259808Y-102703058D01*
X155333750Y-102777000D01*
X155390059Y-102777000D01*
X150210080Y-105622710D01*
X150150734Y-105597763D01*
X149991863Y-105565151D01*
X149829684Y-105564019D01*
X149670374Y-105594409D01*
X149520001Y-105655164D01*
X149384292Y-105743969D01*
X149268416Y-105857443D01*
X149176788Y-105991262D01*
X149112898Y-106140330D01*
X149079178Y-106298969D01*
X149076913Y-106461136D01*
X146308601Y-106461136D01*
X148482338Y-104162575D01*
X148540673Y-104152289D01*
X148691880Y-104093640D01*
X148828815Y-104006738D01*
X148946264Y-103894893D01*
X149039751Y-103762366D01*
X149105717Y-103614205D01*
X149141648Y-103456052D01*
X149144235Y-103270809D01*
X149112733Y-103111714D01*
X149050930Y-102961769D01*
X148961180Y-102826683D01*
X148846900Y-102711603D01*
X148712444Y-102620911D01*
X148562934Y-102558063D01*
X148404063Y-102525451D01*
X148241884Y-102524319D01*
X148082574Y-102554709D01*
X147932201Y-102615464D01*
X147796492Y-102704269D01*
X147680616Y-102817743D01*
X147588988Y-102951562D01*
X147525098Y-103100630D01*
X147496703Y-103234217D01*
X146127000Y-104682574D01*
X146127000Y-102183750D01*
X154273000Y-102183750D01*
X154273000Y-102392056D01*
X154289409Y-102474551D01*
X154321598Y-102552261D01*
X154368328Y-102622197D01*
X154427803Y-102681673D01*
X154497740Y-102728403D01*
X154575449Y-102760591D01*
X154657944Y-102777000D01*
X154866250Y-102777000D01*
X154973000Y-102670250D01*
X154973000Y-102077000D01*
X154379750Y-102077000D01*
X154273000Y-102183750D01*
X146127000Y-102183750D01*
X146127000Y-100583750D01*
X154273000Y-100583750D01*
X154273000Y-100916250D01*
X154346944Y-100990194D01*
X154368328Y-101022197D01*
X154427803Y-101081673D01*
X154497740Y-101128403D01*
X154549880Y-101150000D01*
X154497740Y-101171597D01*
X154427803Y-101218327D01*
X154368328Y-101277803D01*
X154346944Y-101309806D01*
X154273000Y-101383750D01*
X154273000Y-101716250D01*
X154346944Y-101790194D01*
X154368328Y-101822197D01*
X154427803Y-101881673D01*
X154497740Y-101928403D01*
X154575449Y-101960591D01*
X154657944Y-101977000D01*
X154866250Y-101977000D01*
X154973000Y-101870250D01*
X154973000Y-101229750D01*
X154893250Y-101150000D01*
X154973000Y-101070250D01*
X154973000Y-100583750D01*
X155073000Y-100583750D01*
X155073000Y-100916250D01*
X155146944Y-100990194D01*
X155168328Y-101022197D01*
X155227803Y-101081673D01*
X155259808Y-101103058D01*
X155306750Y-101150000D01*
X155259808Y-101196942D01*
X155227803Y-101218327D01*
X155168328Y-101277803D01*
X155146944Y-101309806D01*
X155073000Y-101383750D01*
X155073000Y-101716250D01*
X155146944Y-101790194D01*
X155168328Y-101822197D01*
X155227803Y-101881673D01*
X155259808Y-101903058D01*
X155333750Y-101977000D01*
X155666250Y-101977000D01*
X155740192Y-101903058D01*
X155772197Y-101881673D01*
X155831672Y-101822197D01*
X155853056Y-101790194D01*
X155927000Y-101716250D01*
X155927000Y-101383750D01*
X155853056Y-101309806D01*
X155831672Y-101277803D01*
X155772197Y-101218327D01*
X155740192Y-101196942D01*
X155693250Y-101150000D01*
X155740192Y-101103058D01*
X155772197Y-101081673D01*
X155831672Y-101022197D01*
X155853056Y-100990194D01*
X155927000Y-100916250D01*
X155927000Y-100583750D01*
X155853056Y-100509806D01*
X155831672Y-100477803D01*
X155783620Y-100429750D01*
X156027000Y-100429750D01*
X156027000Y-101070250D01*
X156106750Y-101150000D01*
X156027000Y-101229750D01*
X156027000Y-101870250D01*
X156133750Y-101977000D01*
X156342056Y-101977000D01*
X156424551Y-101960591D01*
X156502260Y-101928403D01*
X156572197Y-101881673D01*
X156631672Y-101822197D01*
X156653056Y-101790194D01*
X156727000Y-101716250D01*
X156727000Y-101383750D01*
X156653056Y-101309806D01*
X156631672Y-101277803D01*
X156572197Y-101218327D01*
X156502260Y-101171597D01*
X156450120Y-101150000D01*
X156502260Y-101128403D01*
X156572197Y-101081673D01*
X156631672Y-101022197D01*
X156653056Y-100990194D01*
X156727000Y-100916250D01*
X156727000Y-100583750D01*
X156653056Y-100509806D01*
X156631672Y-100477803D01*
X156572197Y-100418327D01*
X156502260Y-100371597D01*
X156424551Y-100339409D01*
X156342056Y-100323000D01*
X156133750Y-100323000D01*
X156027000Y-100429750D01*
X155783620Y-100429750D01*
X155772197Y-100418327D01*
X155740192Y-100396942D01*
X155666250Y-100323000D01*
X155333750Y-100323000D01*
X155259808Y-100396942D01*
X155227803Y-100418327D01*
X155168328Y-100477803D01*
X155146944Y-100509806D01*
X155073000Y-100583750D01*
X154973000Y-100583750D01*
X154973000Y-100429750D01*
X154866250Y-100323000D01*
X154657944Y-100323000D01*
X154575449Y-100339409D01*
X154497740Y-100371597D01*
X154427803Y-100418327D01*
X154368328Y-100477803D01*
X154346944Y-100509806D01*
X154273000Y-100583750D01*
X146127000Y-100583750D01*
X146127000Y-99907944D01*
X154273000Y-99907944D01*
X154273000Y-100116250D01*
X154379750Y-100223000D01*
X154973000Y-100223000D01*
X154973000Y-99907944D01*
X155073000Y-99907944D01*
X155073000Y-100116250D01*
X155179750Y-100223000D01*
X155820250Y-100223000D01*
X155927000Y-100116250D01*
X155927000Y-99907944D01*
X155910591Y-99825449D01*
X155878402Y-99747739D01*
X155831672Y-99677803D01*
X155783620Y-99629750D01*
X156027000Y-99629750D01*
X156027000Y-100223000D01*
X156620250Y-100223000D01*
X156727000Y-100116250D01*
X156727000Y-99907944D01*
X156710591Y-99825449D01*
X156678402Y-99747739D01*
X156631672Y-99677803D01*
X156572197Y-99618327D01*
X156502260Y-99571597D01*
X156424551Y-99539409D01*
X156342056Y-99523000D01*
X156133750Y-99523000D01*
X156027000Y-99629750D01*
X155783620Y-99629750D01*
X155772197Y-99618327D01*
X155740192Y-99596942D01*
X155666250Y-99523000D01*
X155333750Y-99523000D01*
X155259808Y-99596942D01*
X155227803Y-99618327D01*
X155168328Y-99677803D01*
X155121598Y-99747739D01*
X155089409Y-99825449D01*
X155073000Y-99907944D01*
X154973000Y-99907944D01*
X154973000Y-99629750D01*
X154866250Y-99523000D01*
X154657944Y-99523000D01*
X154575449Y-99539409D01*
X154497740Y-99571597D01*
X154427803Y-99618327D01*
X154368328Y-99677803D01*
X154321598Y-99747739D01*
X154289409Y-99825449D01*
X154273000Y-99907944D01*
X146127000Y-99907944D01*
X146127000Y-99325740D01*
X147604012Y-96982736D01*
X147604539Y-96981685D01*
X147605252Y-96980758D01*
X147609105Y-96974489D01*
X147626105Y-96946389D01*
X147627090Y-96944330D01*
X147628446Y-96942483D01*
X147632155Y-96936128D01*
X150061485Y-92707643D01*
X160620532Y-92707643D01*
X160665727Y-92953890D01*
X160757890Y-93186668D01*
X160893513Y-93397113D01*
X161067427Y-93577207D01*
X161273010Y-93720091D01*
X161502431Y-93820322D01*
X161746951Y-93874083D01*
X161997256Y-93879326D01*
X162243812Y-93835852D01*
X162477229Y-93745315D01*
X162688615Y-93611166D01*
X162869919Y-93438513D01*
X163014234Y-93233932D01*
X163116065Y-93005217D01*
X163171532Y-92761078D01*
X163175525Y-92475120D01*
X163126896Y-92229528D01*
X163031491Y-91998059D01*
X162892944Y-91789528D01*
X162716532Y-91611880D01*
X162508974Y-91471881D01*
X162278176Y-91374862D01*
X162032930Y-91324520D01*
X161782576Y-91322773D01*
X161536650Y-91369685D01*
X161304521Y-91463472D01*
X161095028Y-91600560D01*
X160916153Y-91775728D01*
X160774708Y-91982303D01*
X160676080Y-92212418D01*
X160624028Y-92457307D01*
X160620532Y-92707643D01*
X150061485Y-92707643D01*
X150975600Y-91116538D01*
X157163947Y-91116538D01*
X157253314Y-91307363D01*
X157481793Y-91412419D01*
X157726377Y-91470883D01*
X157977668Y-91480507D01*
X158226006Y-91440921D01*
X158461851Y-91353648D01*
X158548446Y-91307363D01*
X158637813Y-91116538D01*
X163562207Y-91116538D01*
X163651574Y-91307363D01*
X163880053Y-91412419D01*
X164124637Y-91470883D01*
X164375928Y-91480507D01*
X164624266Y-91440921D01*
X164860111Y-91353648D01*
X164946706Y-91307363D01*
X165036073Y-91116538D01*
X164299140Y-90379605D01*
X163562207Y-91116538D01*
X158637813Y-91116538D01*
X157900880Y-90379605D01*
X157163947Y-91116538D01*
X150975600Y-91116538D01*
X151458050Y-90276788D01*
X156620373Y-90276788D01*
X156659959Y-90525126D01*
X156747232Y-90760971D01*
X156793517Y-90847566D01*
X156984342Y-90936933D01*
X157721275Y-90200000D01*
X158080485Y-90200000D01*
X158817418Y-90936933D01*
X159008243Y-90847566D01*
X159113299Y-90619087D01*
X159171763Y-90374503D01*
X159175505Y-90276788D01*
X163018633Y-90276788D01*
X163058219Y-90525126D01*
X163145492Y-90760971D01*
X163191777Y-90847566D01*
X163382602Y-90936933D01*
X164119535Y-90200000D01*
X164478745Y-90200000D01*
X165215678Y-90936933D01*
X165406503Y-90847566D01*
X165511559Y-90619087D01*
X165570023Y-90374503D01*
X165579647Y-90123212D01*
X165540061Y-89874874D01*
X165452788Y-89639029D01*
X165406503Y-89552434D01*
X165215678Y-89463067D01*
X164478745Y-90200000D01*
X164119535Y-90200000D01*
X163382602Y-89463067D01*
X163191777Y-89552434D01*
X163086721Y-89780913D01*
X163028257Y-90025497D01*
X163018633Y-90276788D01*
X159175505Y-90276788D01*
X159181387Y-90123212D01*
X159141801Y-89874874D01*
X159054528Y-89639029D01*
X159008243Y-89552434D01*
X158817418Y-89463067D01*
X158080485Y-90200000D01*
X157721275Y-90200000D01*
X156984342Y-89463067D01*
X156793517Y-89552434D01*
X156688461Y-89780913D01*
X156629997Y-90025497D01*
X156620373Y-90276788D01*
X151458050Y-90276788D01*
X152028731Y-89283462D01*
X157163947Y-89283462D01*
X157900880Y-90020395D01*
X158637813Y-89283462D01*
X158548446Y-89092637D01*
X158319967Y-88987581D01*
X158075383Y-88929117D01*
X157824092Y-88919493D01*
X157575754Y-88959079D01*
X157339909Y-89046352D01*
X157253314Y-89092637D01*
X157163947Y-89283462D01*
X152028731Y-89283462D01*
X152905532Y-87757308D01*
X152989573Y-87742489D01*
X153140780Y-87683840D01*
X153277715Y-87596938D01*
X153395164Y-87485093D01*
X153488651Y-87352566D01*
X153554617Y-87204405D01*
X153590548Y-87046252D01*
X153593135Y-86861009D01*
X153561633Y-86701914D01*
X153530756Y-86627000D01*
X156394587Y-86627000D01*
X156305801Y-86662872D01*
X156305801Y-86662872D01*
G37*
X156305801Y-86662872D02*
X156096308Y-86799960D01*
X155917433Y-86975128D01*
X155775988Y-87181703D01*
X155677360Y-87411818D01*
X155625308Y-87656707D01*
X155621812Y-87907043D01*
X155667007Y-88153290D01*
X155759170Y-88386068D01*
X155894793Y-88596513D01*
X156068707Y-88776607D01*
X156274290Y-88919491D01*
X156503711Y-89019722D01*
X156748231Y-89073483D01*
X156998536Y-89078726D01*
X157245092Y-89035252D01*
X157478509Y-88944715D01*
X157689895Y-88810566D01*
X157788949Y-88716238D01*
X163163427Y-88716238D01*
X163252794Y-88907063D01*
X163481273Y-89012119D01*
X163703039Y-89065129D01*
X163651574Y-89092637D01*
X163562207Y-89283462D01*
X164299140Y-90020395D01*
X165036073Y-89283462D01*
X164946706Y-89092637D01*
X164718227Y-88987581D01*
X164496461Y-88934571D01*
X164547926Y-88907063D01*
X164637293Y-88716238D01*
X163900360Y-87979305D01*
X163163427Y-88716238D01*
X157788949Y-88716238D01*
X157871199Y-88637913D01*
X158015514Y-88433332D01*
X158117345Y-88204617D01*
X158172812Y-87960478D01*
X158173984Y-87876488D01*
X162619853Y-87876488D01*
X162659439Y-88124826D01*
X162746712Y-88360671D01*
X162792997Y-88447266D01*
X162983822Y-88536633D01*
X163720755Y-87799700D01*
X164079965Y-87799700D01*
X164816898Y-88536633D01*
X165007723Y-88447266D01*
X165112779Y-88218787D01*
X165171243Y-87974203D01*
X165180867Y-87722912D01*
X165141281Y-87474574D01*
X165054008Y-87238729D01*
X165007723Y-87152134D01*
X164816898Y-87062767D01*
X164079965Y-87799700D01*
X163720755Y-87799700D01*
X162983822Y-87062767D01*
X162792997Y-87152134D01*
X162687941Y-87380613D01*
X162629477Y-87625197D01*
X162619853Y-87876488D01*
X158173984Y-87876488D01*
X158176805Y-87674520D01*
X158128176Y-87428928D01*
X158032771Y-87197459D01*
X157894224Y-86988928D01*
X157717812Y-86811280D01*
X157510254Y-86671281D01*
X157404914Y-86627000D01*
X163390875Y-86627000D01*
X163339389Y-86646052D01*
X163252794Y-86692337D01*
X163163427Y-86883162D01*
X163900360Y-87620095D01*
X164637293Y-86883162D01*
X164547926Y-86692337D01*
X164405829Y-86627000D01*
X165598000Y-86627000D01*
X165598000Y-115184685D01*
X165542267Y-114903212D01*
X165375839Y-114499428D01*
X165134152Y-114135660D01*
X164826412Y-113825764D01*
X164464340Y-113581544D01*
X164061728Y-113412301D01*
X163633911Y-113324483D01*
X163197185Y-113321434D01*
X162768183Y-113403270D01*
X162363247Y-113566875D01*
X161997801Y-113806016D01*
X161685764Y-114111585D01*
X161439022Y-114471943D01*
X161266973Y-114873364D01*
X161176170Y-115300557D01*
X161170072Y-115737252D01*
X161248912Y-116166815D01*
X161409685Y-116572883D01*
X161646270Y-116939990D01*
X161949653Y-117254152D01*
X162308279Y-117503404D01*
X162708489Y-117678251D01*
X163135038Y-117772034D01*
X163571680Y-117781181D01*
X164001782Y-117705342D01*
X164408963Y-117547407D01*
X164777712Y-117313392D01*
X165093985Y-117012209D01*
X165345735Y-116655331D01*
X165523372Y-116256352D01*
X165598000Y-115927874D01*
X165598000Y-121898000D01*
X118627000Y-121898000D01*
X118627000Y-118057136D01*
X142321013Y-118057136D01*
X142350291Y-118216655D01*
X142409994Y-118367449D01*
X142497850Y-118503774D01*
X142610512Y-118620439D01*
X142743688Y-118712999D01*
X142892307Y-118777929D01*
X143050706Y-118812755D01*
X143212854Y-118816152D01*
X143372573Y-118787989D01*
X143523780Y-118729340D01*
X143660715Y-118642438D01*
X143778164Y-118530593D01*
X143871651Y-118398066D01*
X143937617Y-118249905D01*
X143973548Y-118091752D01*
X143974399Y-118030820D01*
X147060279Y-115737252D01*
X151170072Y-115737252D01*
X151248912Y-116166815D01*
X151409685Y-116572883D01*
X151646270Y-116939990D01*
X151949653Y-117254152D01*
X152308279Y-117503404D01*
X152708489Y-117678251D01*
X153135038Y-117772034D01*
X153571680Y-117781181D01*
X154001782Y-117705342D01*
X154408963Y-117547407D01*
X154777712Y-117313392D01*
X155093985Y-117012209D01*
X155345735Y-116655331D01*
X155523372Y-116256352D01*
X155620130Y-115830468D01*
X155627096Y-115331631D01*
X155542267Y-114903212D01*
X155375839Y-114499428D01*
X155134152Y-114135660D01*
X154826412Y-113825764D01*
X154464340Y-113581544D01*
X154061728Y-113412301D01*
X153633911Y-113324483D01*
X153197185Y-113321434D01*
X152768183Y-113403270D01*
X152363247Y-113566875D01*
X151997801Y-113806016D01*
X151685764Y-114111585D01*
X151439022Y-114471943D01*
X151266973Y-114873364D01*
X151176170Y-115300557D01*
X151170072Y-115737252D01*
X147060279Y-115737252D01*
X147389748Y-115492376D01*
X147488806Y-115514155D01*
X147650954Y-115517552D01*
X147810673Y-115489389D01*
X147961880Y-115430740D01*
X148098815Y-115343838D01*
X148216264Y-115231993D01*
X148309751Y-115099466D01*
X148375717Y-114951305D01*
X148411648Y-114793152D01*
X148414235Y-114607909D01*
X148382733Y-114448814D01*
X148320930Y-114298869D01*
X148231180Y-114163783D01*
X148116900Y-114048703D01*
X147982444Y-113958011D01*
X147832934Y-113895163D01*
X147674063Y-113862551D01*
X147511884Y-113861419D01*
X147352574Y-113891809D01*
X147202201Y-113952564D01*
X147066492Y-114041369D01*
X146950616Y-114154843D01*
X146858988Y-114288662D01*
X146795098Y-114437730D01*
X146761378Y-114596369D01*
X146760675Y-114646691D01*
X143346944Y-117183933D01*
X143235963Y-117161151D01*
X143073784Y-117160019D01*
X142914474Y-117190409D01*
X142764101Y-117251164D01*
X142628392Y-117339969D01*
X142512516Y-117453443D01*
X142420888Y-117587262D01*
X142356998Y-117736330D01*
X142323278Y-117894969D01*
X142321013Y-118057136D01*
X118627000Y-118057136D01*
X118627000Y-109122898D01*
X122682784Y-105627000D01*
X145233861Y-105627000D01*
X139040599Y-112175904D01*
X138971374Y-112189109D01*
X138821001Y-112249864D01*
X138685292Y-112338669D01*
X138654774Y-112368554D01*
X132265699Y-113107685D01*
X132264774Y-113107885D01*
X132263831Y-113107904D01*
X132254452Y-113109082D01*
X132223552Y-113113182D01*
X132222833Y-113113350D01*
X132222095Y-113113377D01*
X132212737Y-113114706D01*
X126711458Y-113935169D01*
X126692103Y-113938018D01*
X126682192Y-113940484D01*
X126672013Y-113941285D01*
X126662719Y-113943007D01*
X126625318Y-113950207D01*
X126616827Y-113952722D01*
X126608032Y-113953769D01*
X126598814Y-113955862D01*
X126579614Y-113960362D01*
X126579612Y-113960363D01*
X125105566Y-114305075D01*
X125042734Y-114278663D01*
X124883863Y-114246051D01*
X124721684Y-114244919D01*
X124562374Y-114275309D01*
X124412001Y-114336064D01*
X124276292Y-114424869D01*
X124160416Y-114538343D01*
X124068788Y-114672162D01*
X124004898Y-114821230D01*
X123971178Y-114979869D01*
X123968913Y-115142036D01*
X123998191Y-115301555D01*
X124057894Y-115452349D01*
X124145750Y-115588674D01*
X124258412Y-115705339D01*
X124391588Y-115797899D01*
X124540207Y-115862829D01*
X124698606Y-115897655D01*
X124860754Y-115901052D01*
X125020473Y-115872889D01*
X125171680Y-115814240D01*
X125308615Y-115727338D01*
X125418878Y-115622336D01*
X126888260Y-115278714D01*
X126888278Y-115278708D01*
X126888586Y-115278638D01*
X126894583Y-115277232D01*
X126904042Y-115275411D01*
X126908997Y-115274682D01*
X126909074Y-115274663D01*
X126910263Y-115274494D01*
X132407063Y-114454699D01*
X132426908Y-114452066D01*
X138806048Y-113714085D01*
X138949207Y-113776629D01*
X139107606Y-113811455D01*
X139269754Y-113814852D01*
X139429473Y-113786689D01*
X139580680Y-113728040D01*
X139717615Y-113641138D01*
X139835064Y-113529293D01*
X139928551Y-113396766D01*
X139994517Y-113248605D01*
X140027651Y-113102762D01*
X143499962Y-109431057D01*
X155198548Y-109431057D01*
X155281897Y-109616810D01*
X155501899Y-109716897D01*
X155737199Y-109772141D01*
X155978755Y-109780419D01*
X156217285Y-109741412D01*
X156443622Y-109656620D01*
X156518103Y-109616810D01*
X156601452Y-109431057D01*
X155900000Y-108729605D01*
X155198548Y-109431057D01*
X143499962Y-109431057D01*
X144258695Y-108628755D01*
X154669581Y-108628755D01*
X154708588Y-108867285D01*
X154793380Y-109093622D01*
X154833190Y-109168103D01*
X155018943Y-109251452D01*
X155720395Y-108550000D01*
X156079605Y-108550000D01*
X156781057Y-109251452D01*
X156966810Y-109168103D01*
X157066897Y-108948101D01*
X157122141Y-108712801D01*
X157124184Y-108653170D01*
X157171387Y-108653170D01*
X157214825Y-108889843D01*
X157303406Y-109113573D01*
X157433755Y-109315836D01*
X157600909Y-109488929D01*
X157798500Y-109626258D01*
X158019002Y-109722593D01*
X158254015Y-109774264D01*
X158494590Y-109779303D01*
X158731561Y-109737519D01*
X158955904Y-109650502D01*
X159159072Y-109521568D01*
X159333327Y-109355626D01*
X159472032Y-109158999D01*
X159569904Y-108939175D01*
X159623215Y-108704528D01*
X159623932Y-108653170D01*
X159671387Y-108653170D01*
X159714825Y-108889843D01*
X159803406Y-109113573D01*
X159933755Y-109315836D01*
X160100909Y-109488929D01*
X160298500Y-109626258D01*
X160519002Y-109722593D01*
X160754015Y-109774264D01*
X160994590Y-109779303D01*
X161231561Y-109737519D01*
X161455904Y-109650502D01*
X161659072Y-109521568D01*
X161833327Y-109355626D01*
X161972032Y-109158999D01*
X162069904Y-108939175D01*
X162123215Y-108704528D01*
X162127053Y-108429686D01*
X162080315Y-108193642D01*
X161988619Y-107971171D01*
X161855458Y-107770748D01*
X161685904Y-107600006D01*
X161486415Y-107465449D01*
X161264589Y-107372202D01*
X161028877Y-107323817D01*
X160788256Y-107322137D01*
X160551891Y-107367226D01*
X160328785Y-107457367D01*
X160127437Y-107589125D01*
X159955515Y-107757483D01*
X159819569Y-107956028D01*
X159724776Y-108177197D01*
X159674747Y-108412566D01*
X159671387Y-108653170D01*
X159623932Y-108653170D01*
X159627053Y-108429686D01*
X159580315Y-108193642D01*
X159488619Y-107971171D01*
X159355458Y-107770748D01*
X159185904Y-107600006D01*
X158986415Y-107465449D01*
X158764589Y-107372202D01*
X158528877Y-107323817D01*
X158288256Y-107322137D01*
X158051891Y-107367226D01*
X157828785Y-107457367D01*
X157627437Y-107589125D01*
X157455515Y-107757483D01*
X157319569Y-107956028D01*
X157224776Y-108177197D01*
X157174747Y-108412566D01*
X157171387Y-108653170D01*
X157124184Y-108653170D01*
X157130419Y-108471245D01*
X157091412Y-108232715D01*
X157006620Y-108006378D01*
X156966810Y-107931897D01*
X156781057Y-107848548D01*
X156079605Y-108550000D01*
X155720395Y-108550000D01*
X155018943Y-107848548D01*
X154833190Y-107931897D01*
X154733103Y-108151899D01*
X154677859Y-108387199D01*
X154669581Y-108628755D01*
X144258695Y-108628755D01*
X145166384Y-107668943D01*
X155198548Y-107668943D01*
X155900000Y-108370395D01*
X156601452Y-107668943D01*
X156518103Y-107483190D01*
X156298101Y-107383103D01*
X156062801Y-107327859D01*
X155821245Y-107319581D01*
X155582715Y-107358588D01*
X155356378Y-107443380D01*
X155281897Y-107483190D01*
X155198548Y-107668943D01*
X145166384Y-107668943D01*
X146308601Y-106461136D01*
X149076913Y-106461136D01*
X149106191Y-106620655D01*
X149165894Y-106771449D01*
X149253750Y-106907774D01*
X149366412Y-107024439D01*
X149499588Y-107116999D01*
X149648207Y-107181929D01*
X149806606Y-107216755D01*
X149968754Y-107220152D01*
X150128473Y-107191989D01*
X150279680Y-107133340D01*
X150416615Y-107046438D01*
X150534064Y-106934593D01*
X150627551Y-106802066D01*
X150693517Y-106653905D01*
X150717971Y-106546270D01*
X158052572Y-102516881D01*
X158101207Y-102538129D01*
X158259606Y-102572955D01*
X158421754Y-102576352D01*
X158581473Y-102548189D01*
X158732680Y-102489540D01*
X158869615Y-102402638D01*
X158987064Y-102290793D01*
X159080551Y-102158266D01*
X159146517Y-102010105D01*
X159182448Y-101851952D01*
X159185035Y-101666709D01*
X159153533Y-101507614D01*
X159091730Y-101357669D01*
X159001980Y-101222583D01*
X158887700Y-101107503D01*
X158753244Y-101016811D01*
X158603734Y-100953963D01*
X158444863Y-100921351D01*
X158282684Y-100920219D01*
X158123374Y-100950609D01*
X157973001Y-101011364D01*
X157837292Y-101100169D01*
X157721416Y-101213643D01*
X157629788Y-101347462D01*
X157565898Y-101496530D01*
X157545409Y-101592922D01*
X156635852Y-102092602D01*
X156620250Y-102077000D01*
X156027000Y-102077000D01*
X156027000Y-102097000D01*
X155840250Y-102097000D01*
X155820250Y-102077000D01*
X155179750Y-102077000D01*
X155073000Y-102183750D01*
X155073000Y-102392056D01*
X155089409Y-102474551D01*
X155121598Y-102552261D01*
X155168328Y-102622197D01*
X155227803Y-102681673D01*
X155259808Y-102703058D01*
X155333750Y-102777000D01*
X155390059Y-102777000D01*
X150210080Y-105622710D01*
X150150734Y-105597763D01*
X149991863Y-105565151D01*
X149829684Y-105564019D01*
X149670374Y-105594409D01*
X149520001Y-105655164D01*
X149384292Y-105743969D01*
X149268416Y-105857443D01*
X149176788Y-105991262D01*
X149112898Y-106140330D01*
X149079178Y-106298969D01*
X149076913Y-106461136D01*
X146308601Y-106461136D01*
X148482338Y-104162575D01*
X148540673Y-104152289D01*
X148691880Y-104093640D01*
X148828815Y-104006738D01*
X148946264Y-103894893D01*
X149039751Y-103762366D01*
X149105717Y-103614205D01*
X149141648Y-103456052D01*
X149144235Y-103270809D01*
X149112733Y-103111714D01*
X149050930Y-102961769D01*
X148961180Y-102826683D01*
X148846900Y-102711603D01*
X148712444Y-102620911D01*
X148562934Y-102558063D01*
X148404063Y-102525451D01*
X148241884Y-102524319D01*
X148082574Y-102554709D01*
X147932201Y-102615464D01*
X147796492Y-102704269D01*
X147680616Y-102817743D01*
X147588988Y-102951562D01*
X147525098Y-103100630D01*
X147496703Y-103234217D01*
X146127000Y-104682574D01*
X146127000Y-102183750D01*
X154273000Y-102183750D01*
X154273000Y-102392056D01*
X154289409Y-102474551D01*
X154321598Y-102552261D01*
X154368328Y-102622197D01*
X154427803Y-102681673D01*
X154497740Y-102728403D01*
X154575449Y-102760591D01*
X154657944Y-102777000D01*
X154866250Y-102777000D01*
X154973000Y-102670250D01*
X154973000Y-102077000D01*
X154379750Y-102077000D01*
X154273000Y-102183750D01*
X146127000Y-102183750D01*
X146127000Y-100583750D01*
X154273000Y-100583750D01*
X154273000Y-100916250D01*
X154346944Y-100990194D01*
X154368328Y-101022197D01*
X154427803Y-101081673D01*
X154497740Y-101128403D01*
X154549880Y-101150000D01*
X154497740Y-101171597D01*
X154427803Y-101218327D01*
X154368328Y-101277803D01*
X154346944Y-101309806D01*
X154273000Y-101383750D01*
X154273000Y-101716250D01*
X154346944Y-101790194D01*
X154368328Y-101822197D01*
X154427803Y-101881673D01*
X154497740Y-101928403D01*
X154575449Y-101960591D01*
X154657944Y-101977000D01*
X154866250Y-101977000D01*
X154973000Y-101870250D01*
X154973000Y-101229750D01*
X154893250Y-101150000D01*
X154973000Y-101070250D01*
X154973000Y-100583750D01*
X155073000Y-100583750D01*
X155073000Y-100916250D01*
X155146944Y-100990194D01*
X155168328Y-101022197D01*
X155227803Y-101081673D01*
X155259808Y-101103058D01*
X155306750Y-101150000D01*
X155259808Y-101196942D01*
X155227803Y-101218327D01*
X155168328Y-101277803D01*
X155146944Y-101309806D01*
X155073000Y-101383750D01*
X155073000Y-101716250D01*
X155146944Y-101790194D01*
X155168328Y-101822197D01*
X155227803Y-101881673D01*
X155259808Y-101903058D01*
X155333750Y-101977000D01*
X155666250Y-101977000D01*
X155740192Y-101903058D01*
X155772197Y-101881673D01*
X155831672Y-101822197D01*
X155853056Y-101790194D01*
X155927000Y-101716250D01*
X155927000Y-101383750D01*
X155853056Y-101309806D01*
X155831672Y-101277803D01*
X155772197Y-101218327D01*
X155740192Y-101196942D01*
X155693250Y-101150000D01*
X155740192Y-101103058D01*
X155772197Y-101081673D01*
X155831672Y-101022197D01*
X155853056Y-100990194D01*
X155927000Y-100916250D01*
X155927000Y-100583750D01*
X155853056Y-100509806D01*
X155831672Y-100477803D01*
X155783620Y-100429750D01*
X156027000Y-100429750D01*
X156027000Y-101070250D01*
X156106750Y-101150000D01*
X156027000Y-101229750D01*
X156027000Y-101870250D01*
X156133750Y-101977000D01*
X156342056Y-101977000D01*
X156424551Y-101960591D01*
X156502260Y-101928403D01*
X156572197Y-101881673D01*
X156631672Y-101822197D01*
X156653056Y-101790194D01*
X156727000Y-101716250D01*
X156727000Y-101383750D01*
X156653056Y-101309806D01*
X156631672Y-101277803D01*
X156572197Y-101218327D01*
X156502260Y-101171597D01*
X156450120Y-101150000D01*
X156502260Y-101128403D01*
X156572197Y-101081673D01*
X156631672Y-101022197D01*
X156653056Y-100990194D01*
X156727000Y-100916250D01*
X156727000Y-100583750D01*
X156653056Y-100509806D01*
X156631672Y-100477803D01*
X156572197Y-100418327D01*
X156502260Y-100371597D01*
X156424551Y-100339409D01*
X156342056Y-100323000D01*
X156133750Y-100323000D01*
X156027000Y-100429750D01*
X155783620Y-100429750D01*
X155772197Y-100418327D01*
X155740192Y-100396942D01*
X155666250Y-100323000D01*
X155333750Y-100323000D01*
X155259808Y-100396942D01*
X155227803Y-100418327D01*
X155168328Y-100477803D01*
X155146944Y-100509806D01*
X155073000Y-100583750D01*
X154973000Y-100583750D01*
X154973000Y-100429750D01*
X154866250Y-100323000D01*
X154657944Y-100323000D01*
X154575449Y-100339409D01*
X154497740Y-100371597D01*
X154427803Y-100418327D01*
X154368328Y-100477803D01*
X154346944Y-100509806D01*
X154273000Y-100583750D01*
X146127000Y-100583750D01*
X146127000Y-99907944D01*
X154273000Y-99907944D01*
X154273000Y-100116250D01*
X154379750Y-100223000D01*
X154973000Y-100223000D01*
X154973000Y-99907944D01*
X155073000Y-99907944D01*
X155073000Y-100116250D01*
X155179750Y-100223000D01*
X155820250Y-100223000D01*
X155927000Y-100116250D01*
X155927000Y-99907944D01*
X155910591Y-99825449D01*
X155878402Y-99747739D01*
X155831672Y-99677803D01*
X155783620Y-99629750D01*
X156027000Y-99629750D01*
X156027000Y-100223000D01*
X156620250Y-100223000D01*
X156727000Y-100116250D01*
X156727000Y-99907944D01*
X156710591Y-99825449D01*
X156678402Y-99747739D01*
X156631672Y-99677803D01*
X156572197Y-99618327D01*
X156502260Y-99571597D01*
X156424551Y-99539409D01*
X156342056Y-99523000D01*
X156133750Y-99523000D01*
X156027000Y-99629750D01*
X155783620Y-99629750D01*
X155772197Y-99618327D01*
X155740192Y-99596942D01*
X155666250Y-99523000D01*
X155333750Y-99523000D01*
X155259808Y-99596942D01*
X155227803Y-99618327D01*
X155168328Y-99677803D01*
X155121598Y-99747739D01*
X155089409Y-99825449D01*
X155073000Y-99907944D01*
X154973000Y-99907944D01*
X154973000Y-99629750D01*
X154866250Y-99523000D01*
X154657944Y-99523000D01*
X154575449Y-99539409D01*
X154497740Y-99571597D01*
X154427803Y-99618327D01*
X154368328Y-99677803D01*
X154321598Y-99747739D01*
X154289409Y-99825449D01*
X154273000Y-99907944D01*
X146127000Y-99907944D01*
X146127000Y-99325740D01*
X147604012Y-96982736D01*
X147604539Y-96981685D01*
X147605252Y-96980758D01*
X147609105Y-96974489D01*
X147626105Y-96946389D01*
X147627090Y-96944330D01*
X147628446Y-96942483D01*
X147632155Y-96936128D01*
X150061485Y-92707643D01*
X160620532Y-92707643D01*
X160665727Y-92953890D01*
X160757890Y-93186668D01*
X160893513Y-93397113D01*
X161067427Y-93577207D01*
X161273010Y-93720091D01*
X161502431Y-93820322D01*
X161746951Y-93874083D01*
X161997256Y-93879326D01*
X162243812Y-93835852D01*
X162477229Y-93745315D01*
X162688615Y-93611166D01*
X162869919Y-93438513D01*
X163014234Y-93233932D01*
X163116065Y-93005217D01*
X163171532Y-92761078D01*
X163175525Y-92475120D01*
X163126896Y-92229528D01*
X163031491Y-91998059D01*
X162892944Y-91789528D01*
X162716532Y-91611880D01*
X162508974Y-91471881D01*
X162278176Y-91374862D01*
X162032930Y-91324520D01*
X161782576Y-91322773D01*
X161536650Y-91369685D01*
X161304521Y-91463472D01*
X161095028Y-91600560D01*
X160916153Y-91775728D01*
X160774708Y-91982303D01*
X160676080Y-92212418D01*
X160624028Y-92457307D01*
X160620532Y-92707643D01*
X150061485Y-92707643D01*
X150975600Y-91116538D01*
X157163947Y-91116538D01*
X157253314Y-91307363D01*
X157481793Y-91412419D01*
X157726377Y-91470883D01*
X157977668Y-91480507D01*
X158226006Y-91440921D01*
X158461851Y-91353648D01*
X158548446Y-91307363D01*
X158637813Y-91116538D01*
X163562207Y-91116538D01*
X163651574Y-91307363D01*
X163880053Y-91412419D01*
X164124637Y-91470883D01*
X164375928Y-91480507D01*
X164624266Y-91440921D01*
X164860111Y-91353648D01*
X164946706Y-91307363D01*
X165036073Y-91116538D01*
X164299140Y-90379605D01*
X163562207Y-91116538D01*
X158637813Y-91116538D01*
X157900880Y-90379605D01*
X157163947Y-91116538D01*
X150975600Y-91116538D01*
X151458050Y-90276788D01*
X156620373Y-90276788D01*
X156659959Y-90525126D01*
X156747232Y-90760971D01*
X156793517Y-90847566D01*
X156984342Y-90936933D01*
X157721275Y-90200000D01*
X158080485Y-90200000D01*
X158817418Y-90936933D01*
X159008243Y-90847566D01*
X159113299Y-90619087D01*
X159171763Y-90374503D01*
X159175505Y-90276788D01*
X163018633Y-90276788D01*
X163058219Y-90525126D01*
X163145492Y-90760971D01*
X163191777Y-90847566D01*
X163382602Y-90936933D01*
X164119535Y-90200000D01*
X164478745Y-90200000D01*
X165215678Y-90936933D01*
X165406503Y-90847566D01*
X165511559Y-90619087D01*
X165570023Y-90374503D01*
X165579647Y-90123212D01*
X165540061Y-89874874D01*
X165452788Y-89639029D01*
X165406503Y-89552434D01*
X165215678Y-89463067D01*
X164478745Y-90200000D01*
X164119535Y-90200000D01*
X163382602Y-89463067D01*
X163191777Y-89552434D01*
X163086721Y-89780913D01*
X163028257Y-90025497D01*
X163018633Y-90276788D01*
X159175505Y-90276788D01*
X159181387Y-90123212D01*
X159141801Y-89874874D01*
X159054528Y-89639029D01*
X159008243Y-89552434D01*
X158817418Y-89463067D01*
X158080485Y-90200000D01*
X157721275Y-90200000D01*
X156984342Y-89463067D01*
X156793517Y-89552434D01*
X156688461Y-89780913D01*
X156629997Y-90025497D01*
X156620373Y-90276788D01*
X151458050Y-90276788D01*
X152028731Y-89283462D01*
X157163947Y-89283462D01*
X157900880Y-90020395D01*
X158637813Y-89283462D01*
X158548446Y-89092637D01*
X158319967Y-88987581D01*
X158075383Y-88929117D01*
X157824092Y-88919493D01*
X157575754Y-88959079D01*
X157339909Y-89046352D01*
X157253314Y-89092637D01*
X157163947Y-89283462D01*
X152028731Y-89283462D01*
X152905532Y-87757308D01*
X152989573Y-87742489D01*
X153140780Y-87683840D01*
X153277715Y-87596938D01*
X153395164Y-87485093D01*
X153488651Y-87352566D01*
X153554617Y-87204405D01*
X153590548Y-87046252D01*
X153593135Y-86861009D01*
X153561633Y-86701914D01*
X153530756Y-86627000D01*
X156394587Y-86627000D01*
X156305801Y-86662872D01*
M02*
