M48
;DRILL file {KiCad 4.0.0-rc1-stable} date 26.11.2015 17:23:42
;FORMAT={-:-/ absolute / metric / decimal}
FMAT,2
METRIC,TZ
T1C0.300
T2C0.813
T3C0.900
T4C1.000
T5C1.199
T6C2.200
%
G90
G05
M71
T1
X106.204Y-99.19
X107.59Y-83.527
X110.113Y-118.967
X112.061Y-88.85
X112.061Y-93.25
X112.225Y-98.956
X113.061Y-96.
X113.068Y-86.224
X113.452Y-83.45
X113.655Y-107.989
X114.591Y-112.962
X116.492Y-83.935
X117.076Y-90.306
X117.113Y-99.931
X117.186Y-118.051
X117.921Y-83.008
X118.057Y-105.566
X118.698Y-93.614
X118.752Y-89.619
X120.163Y-89.523
X120.444Y-95.972
X121.182Y-93.855
X121.681Y-83.759
X121.869Y-103.457
X122.395Y-98.664
X122.642Y-82.878
X122.98Y-86.565
X122.98Y-112.517
X123.631Y-92.12
X123.856Y-109.77
X124.31Y-84.101
X124.379Y-117.954
X124.797Y-115.072
X125.023Y-103.971
X125.084Y-119.297
X125.643Y-102.519
X126.342Y-100.16
X126.95Y-115.545
X127.736Y-84.186
X127.862Y-111.622
X128.332Y-109.609
X128.632Y-90.518
X128.771Y-93.153
X128.789Y-101.474
X129.279Y-86.175
X129.703Y-93.769
X130.111Y-104.509
X130.236Y-95.548
X130.87Y-81.583
X132.261Y-88.605
X132.417Y-101.568
X132.453Y-114.724
X132.799Y-96.969
X133.267Y-86.799
X134.085Y-107.841
X134.377Y-119.18
X135.133Y-91.405
X135.477Y-99.448
X136.056Y-92.727
X136.306Y-88.611
X137.3Y-110.939
X137.64Y-115.128
X138.294Y-81.831
X139.206Y-112.986
X140.339Y-90.832
X140.393Y-87.085
X140.698Y-99.273
X141.216Y-119.94
X141.684Y-105.912
X141.759Y-87.141
X142.034Y-116.375
X142.788Y-96.334
X143.012Y-91.3
X143.149Y-117.988
X144.257Y-103.453
X144.886Y-100.307
X145.191Y-88.728
X146.481Y-96.275
X146.485Y-114.343
X146.673Y-111.828
X147.587Y-114.689
X148.317Y-103.352
X148.659Y-87.53
X148.768Y-102.349
X149.122Y-120.05
X149.525Y-96.684
X149.904Y-115.023
X149.905Y-106.392
X149.933Y-108.893
X150.743Y-88.377
X151.405Y-93.26
X152.766Y-86.942
X153.083Y-107.36
X153.549Y-82.649
X153.688Y-90.239
X153.998Y-103.05
X154.493Y-111.657
X155.03Y-119.58
X155.1Y-100.35
X155.1Y-101.15
X155.1Y-101.95
X155.9Y-100.35
X155.9Y-101.15
X155.9Y-101.95
X157.515Y-105.211
X158.358Y-101.748
X158.522Y-117.095
X159.059Y-94.737
X160.388Y-83.642
X162.148Y-112.664
X162.483Y-105.278
X164.095Y-94.737
X164.095Y-108.971
X164.187Y-82.298
X164.833Y-99.101
T2
X108.562Y-101.469
X111.102Y-101.469
X141.8Y-80.63
X141.8Y-83.17
X145.7Y-80.63
X145.7Y-83.17
X149.8Y-80.53
X149.8Y-83.07
T3
X109.536Y-80.721
X109.538Y-108.386
X109.538Y-110.926
X109.538Y-113.466
X109.538Y-116.006
X112.076Y-80.721
X114.616Y-80.721
T4
X155.9Y-108.55
X158.4Y-108.55
X160.9Y-108.55
T5
X156.9Y-87.8
X157.901Y-90.2
X161.899Y-92.6
X163.9Y-87.8
X164.299Y-90.2
T6
X153.4Y-115.55
X163.4Y-115.55
T0
M30
